G04 #@! TF.GenerationSoftware,KiCad,Pcbnew,(6.0.0-rc1-dev-1248-ged6c68a1e)*
G04 #@! TF.CreationDate,2018-11-30T22:55:46-05:00*
G04 #@! TF.ProjectId,cuttle2fish,63757474-6c65-4326-9669-73682e6b6963,rev?*
G04 #@! TF.SameCoordinates,Original*
G04 #@! TF.FileFunction,Legend,Top*
G04 #@! TF.FilePolarity,Positive*
%FSLAX46Y46*%
G04 Gerber Fmt 4.6, Leading zero omitted, Abs format (unit mm)*
G04 Created by KiCad (PCBNEW (6.0.0-rc1-dev-1248-ged6c68a1e)) date 11/30/2018 10:55:46 PM*
%MOMM*%
%LPD*%
G01*
G04 APERTURE LIST*
%ADD10C,0.150000*%
%ADD11C,0.120000*%
%ADD12C,0.350000*%
%ADD13C,0.074930*%
%ADD14R,0.352000X1.102000*%
%ADD15R,1.102000X0.352000*%
%ADD16R,1.002000X1.802000*%
%ADD17R,0.752000X1.162000*%
%ADD18R,1.702000X1.402000*%
%ADD19R,2.002000X8.102000*%
%ADD20R,2.102000X7.602000*%
%ADD21R,0.902000X0.602000*%
%ADD22R,0.902000X0.402000*%
%ADD23R,1.002000X0.602000*%
%ADD24R,3.102000X1.802000*%
%ADD25R,0.902000X0.902000*%
%ADD26R,0.852000X0.902000*%
%ADD27R,0.902000X0.852000*%
G04 APERTURE END LIST*
D10*
G04 #@! TO.C,U2*
X117425000Y-69755000D02*
X116425000Y-69755000D01*
X117425000Y-80105000D02*
X116350000Y-80105000D01*
X107075000Y-80105000D02*
X108150000Y-80105000D01*
X107075000Y-69755000D02*
X108150000Y-69755000D01*
X117425000Y-69755000D02*
X117425000Y-70830000D01*
X107075000Y-69755000D02*
X107075000Y-70830000D01*
X107075000Y-80105000D02*
X107075000Y-79030000D01*
X117425000Y-80105000D02*
X117425000Y-79030000D01*
X116425000Y-69755000D02*
X116425000Y-68730000D01*
D11*
G04 #@! TO.C,SW1*
X110850000Y-59400000D02*
X110850000Y-59100000D01*
X114150000Y-59400000D02*
X110850000Y-59400000D01*
X114150000Y-59100000D02*
X114150000Y-59400000D01*
X110850000Y-56600000D02*
X110850000Y-56900000D01*
X114150000Y-56600000D02*
X110850000Y-56600000D01*
X114150000Y-56900000D02*
X114150000Y-56600000D01*
G04 #@! TO.C,U1*
X106640000Y-82600000D02*
X106640000Y-85050000D01*
X109860000Y-84400000D02*
X109860000Y-82600000D01*
G04 #@! TO.C,Y1*
X111650000Y-67890000D02*
X116950000Y-67890000D01*
X111650000Y-64190000D02*
X111650000Y-67890000D01*
D12*
G04 #@! TO.C,U4*
X116470000Y-53850000D02*
X115770000Y-53850000D01*
X115770000Y-53850000D02*
X115770000Y-53350000D01*
D10*
X114570000Y-53250000D02*
X116570000Y-53250000D01*
X116570000Y-53250000D02*
X116570000Y-55250000D01*
X116570000Y-55250000D02*
X114570000Y-55250000D01*
X114570000Y-55250000D02*
X114570000Y-53250000D01*
D12*
G04 #@! TO.C,U3*
X110400000Y-53850000D02*
X109700000Y-53850000D01*
X109700000Y-53850000D02*
X109700000Y-53350000D01*
D10*
X108500000Y-53250000D02*
X110500000Y-53250000D01*
X110500000Y-53250000D02*
X110500000Y-55250000D01*
X110500000Y-55250000D02*
X108500000Y-55250000D01*
X108500000Y-55250000D02*
X108500000Y-53250000D01*
D11*
G04 #@! TO.C,R3*
X107820000Y-63000000D02*
X107820000Y-62000000D01*
X109180000Y-62000000D02*
X109180000Y-63000000D01*
G04 #@! TO.C,R2*
X111820000Y-63000000D02*
X111820000Y-62000000D01*
X113180000Y-62000000D02*
X113180000Y-63000000D01*
G04 #@! TO.C,R1*
X109820000Y-63000000D02*
X109820000Y-62000000D01*
X111180000Y-62000000D02*
X111180000Y-63000000D01*
G04 #@! TO.C,J3*
X103472000Y-56090000D02*
X105250000Y-56090000D01*
X103472000Y-57420000D02*
X103472000Y-56090000D01*
X107028000Y-58690000D02*
X107028000Y-68910000D01*
X103472000Y-58690000D02*
X103472000Y-68910000D01*
X103472000Y-68910000D02*
X107028000Y-68910000D01*
G04 #@! TO.C,J2*
X117602000Y-56090000D02*
X119380000Y-56090000D01*
X117602000Y-57420000D02*
X117602000Y-56090000D01*
X121158000Y-58690000D02*
X121158000Y-68910000D01*
X117602000Y-58690000D02*
X117602000Y-68910000D01*
X117602000Y-68910000D02*
X121158000Y-68910000D01*
G04 #@! TO.C,D2*
X108750000Y-56700000D02*
X108750000Y-58800000D01*
X107750000Y-56700000D02*
X107750000Y-58800000D01*
X108750000Y-56700000D02*
X107750000Y-56700000D01*
G04 #@! TO.C,D1*
X117000000Y-56700000D02*
X117000000Y-58800000D01*
X116000000Y-56700000D02*
X116000000Y-58800000D01*
X117000000Y-56700000D02*
X116000000Y-56700000D01*
G04 #@! TO.C,C11*
X115650000Y-62600000D02*
X115650000Y-61900000D01*
X116850000Y-61900000D02*
X116850000Y-62600000D01*
G04 #@! TO.C,C10*
X113650000Y-62600000D02*
X113650000Y-61900000D01*
X114850000Y-61900000D02*
X114850000Y-62600000D01*
G04 #@! TO.C,C9*
X116600000Y-85100000D02*
X115900000Y-85100000D01*
X115900000Y-83900000D02*
X116600000Y-83900000D01*
G04 #@! TO.C,C8*
X111410000Y-81950000D02*
X112110000Y-81950000D01*
X112110000Y-83150000D02*
X111410000Y-83150000D01*
G04 #@! TO.C,C7*
X111410000Y-83900000D02*
X112110000Y-83900000D01*
X112110000Y-85100000D02*
X111410000Y-85100000D01*
G04 #@! TO.C,C6*
X109100000Y-66400000D02*
X109100000Y-67100000D01*
X107900000Y-67100000D02*
X107900000Y-66400000D01*
G04 #@! TO.C,C5*
X120600000Y-71900000D02*
X120600000Y-72600000D01*
X119400000Y-72600000D02*
X119400000Y-71900000D01*
G04 #@! TO.C,C4*
X116600000Y-83150000D02*
X115900000Y-83150000D01*
X115900000Y-81950000D02*
X116600000Y-81950000D01*
G04 #@! TO.C,C3*
X103900000Y-78850000D02*
X103900000Y-78150000D01*
X105100000Y-78150000D02*
X105100000Y-78850000D01*
G04 #@! TO.C,C2*
X103900000Y-72850000D02*
X103900000Y-72150000D01*
X105100000Y-72150000D02*
X105100000Y-72850000D01*
G04 #@! TO.C,C1*
X109900000Y-67140000D02*
X109900000Y-66440000D01*
X111100000Y-66440000D02*
X111100000Y-67140000D01*
G04 #@! TO.C,U2*
D10*
X111782857Y-74421428D02*
X111782857Y-74907142D01*
X111811428Y-74964285D01*
X111840000Y-74992857D01*
X111897142Y-75021428D01*
X112011428Y-75021428D01*
X112068571Y-74992857D01*
X112097142Y-74964285D01*
X112125714Y-74907142D01*
X112125714Y-74421428D01*
X112382857Y-74478571D02*
X112411428Y-74450000D01*
X112468571Y-74421428D01*
X112611428Y-74421428D01*
X112668571Y-74450000D01*
X112697142Y-74478571D01*
X112725714Y-74535714D01*
X112725714Y-74592857D01*
X112697142Y-74678571D01*
X112354285Y-75021428D01*
X112725714Y-75021428D01*
G04 #@! TO.C,SW1*
X111670000Y-55822857D02*
X111755714Y-55851428D01*
X111898571Y-55851428D01*
X111955714Y-55822857D01*
X111984285Y-55794285D01*
X112012857Y-55737142D01*
X112012857Y-55680000D01*
X111984285Y-55622857D01*
X111955714Y-55594285D01*
X111898571Y-55565714D01*
X111784285Y-55537142D01*
X111727142Y-55508571D01*
X111698571Y-55480000D01*
X111670000Y-55422857D01*
X111670000Y-55365714D01*
X111698571Y-55308571D01*
X111727142Y-55280000D01*
X111784285Y-55251428D01*
X111927142Y-55251428D01*
X112012857Y-55280000D01*
X112212857Y-55251428D02*
X112355714Y-55851428D01*
X112470000Y-55422857D01*
X112584285Y-55851428D01*
X112727142Y-55251428D01*
X113270000Y-55851428D02*
X112927142Y-55851428D01*
X113098571Y-55851428D02*
X113098571Y-55251428D01*
X113041428Y-55337142D01*
X112984285Y-55394285D01*
X112927142Y-55422857D01*
G04 #@! TO.C,U1*
X107921428Y-83707142D02*
X108407142Y-83707142D01*
X108464285Y-83678571D01*
X108492857Y-83650000D01*
X108521428Y-83592857D01*
X108521428Y-83478571D01*
X108492857Y-83421428D01*
X108464285Y-83392857D01*
X108407142Y-83364285D01*
X107921428Y-83364285D01*
X108521428Y-82764285D02*
X108521428Y-83107142D01*
X108521428Y-82935714D02*
X107921428Y-82935714D01*
X108007142Y-82992857D01*
X108064285Y-83050000D01*
X108092857Y-83107142D01*
G04 #@! TO.C,U4*
D13*
X115112857Y-54321428D02*
X115112857Y-54807142D01*
X115141428Y-54864285D01*
X115170000Y-54892857D01*
X115227142Y-54921428D01*
X115341428Y-54921428D01*
X115398571Y-54892857D01*
X115427142Y-54864285D01*
X115455714Y-54807142D01*
X115455714Y-54321428D01*
X115998571Y-54521428D02*
X115998571Y-54921428D01*
X115855714Y-54292857D02*
X115712857Y-54721428D01*
X116084285Y-54721428D01*
G04 #@! TO.C,U3*
X109042857Y-54321428D02*
X109042857Y-54807142D01*
X109071428Y-54864285D01*
X109100000Y-54892857D01*
X109157142Y-54921428D01*
X109271428Y-54921428D01*
X109328571Y-54892857D01*
X109357142Y-54864285D01*
X109385714Y-54807142D01*
X109385714Y-54321428D01*
X109614285Y-54321428D02*
X109985714Y-54321428D01*
X109785714Y-54550000D01*
X109871428Y-54550000D01*
X109928571Y-54578571D01*
X109957142Y-54607142D01*
X109985714Y-54664285D01*
X109985714Y-54807142D01*
X109957142Y-54864285D01*
X109928571Y-54892857D01*
X109871428Y-54921428D01*
X109700000Y-54921428D01*
X109642857Y-54892857D01*
X109614285Y-54864285D01*
G04 #@! TO.C,R3*
D10*
X108400000Y-61021428D02*
X108200000Y-60735714D01*
X108057142Y-61021428D02*
X108057142Y-60421428D01*
X108285714Y-60421428D01*
X108342857Y-60450000D01*
X108371428Y-60478571D01*
X108400000Y-60535714D01*
X108400000Y-60621428D01*
X108371428Y-60678571D01*
X108342857Y-60707142D01*
X108285714Y-60735714D01*
X108057142Y-60735714D01*
X108600000Y-60421428D02*
X108971428Y-60421428D01*
X108771428Y-60650000D01*
X108857142Y-60650000D01*
X108914285Y-60678571D01*
X108942857Y-60707142D01*
X108971428Y-60764285D01*
X108971428Y-60907142D01*
X108942857Y-60964285D01*
X108914285Y-60992857D01*
X108857142Y-61021428D01*
X108685714Y-61021428D01*
X108628571Y-60992857D01*
X108600000Y-60964285D01*
G04 #@! TO.C,R2*
X112400000Y-61021428D02*
X112200000Y-60735714D01*
X112057142Y-61021428D02*
X112057142Y-60421428D01*
X112285714Y-60421428D01*
X112342857Y-60450000D01*
X112371428Y-60478571D01*
X112400000Y-60535714D01*
X112400000Y-60621428D01*
X112371428Y-60678571D01*
X112342857Y-60707142D01*
X112285714Y-60735714D01*
X112057142Y-60735714D01*
X112628571Y-60478571D02*
X112657142Y-60450000D01*
X112714285Y-60421428D01*
X112857142Y-60421428D01*
X112914285Y-60450000D01*
X112942857Y-60478571D01*
X112971428Y-60535714D01*
X112971428Y-60592857D01*
X112942857Y-60678571D01*
X112600000Y-61021428D01*
X112971428Y-61021428D01*
G04 #@! TO.C,R1*
X110400000Y-61021428D02*
X110200000Y-60735714D01*
X110057142Y-61021428D02*
X110057142Y-60421428D01*
X110285714Y-60421428D01*
X110342857Y-60450000D01*
X110371428Y-60478571D01*
X110400000Y-60535714D01*
X110400000Y-60621428D01*
X110371428Y-60678571D01*
X110342857Y-60707142D01*
X110285714Y-60735714D01*
X110057142Y-60735714D01*
X110971428Y-61021428D02*
X110628571Y-61021428D01*
X110800000Y-61021428D02*
X110800000Y-60421428D01*
X110742857Y-60507142D01*
X110685714Y-60564285D01*
X110628571Y-60592857D01*
G04 #@! TO.C,J3*
X106300000Y-55171428D02*
X106300000Y-55600000D01*
X106271428Y-55685714D01*
X106214285Y-55742857D01*
X106128571Y-55771428D01*
X106071428Y-55771428D01*
X106528571Y-55171428D02*
X106900000Y-55171428D01*
X106700000Y-55400000D01*
X106785714Y-55400000D01*
X106842857Y-55428571D01*
X106871428Y-55457142D01*
X106900000Y-55514285D01*
X106900000Y-55657142D01*
X106871428Y-55714285D01*
X106842857Y-55742857D01*
X106785714Y-55771428D01*
X106614285Y-55771428D01*
X106557142Y-55742857D01*
X106528571Y-55714285D01*
G04 #@! TO.C,J2*
X120550000Y-55421428D02*
X120550000Y-55850000D01*
X120521428Y-55935714D01*
X120464285Y-55992857D01*
X120378571Y-56021428D01*
X120321428Y-56021428D01*
X120807142Y-55478571D02*
X120835714Y-55450000D01*
X120892857Y-55421428D01*
X121035714Y-55421428D01*
X121092857Y-55450000D01*
X121121428Y-55478571D01*
X121150000Y-55535714D01*
X121150000Y-55592857D01*
X121121428Y-55678571D01*
X120778571Y-56021428D01*
X121150000Y-56021428D01*
G04 #@! TO.C,D2*
X107807142Y-56351428D02*
X107807142Y-55751428D01*
X107950000Y-55751428D01*
X108035714Y-55780000D01*
X108092857Y-55837142D01*
X108121428Y-55894285D01*
X108150000Y-56008571D01*
X108150000Y-56094285D01*
X108121428Y-56208571D01*
X108092857Y-56265714D01*
X108035714Y-56322857D01*
X107950000Y-56351428D01*
X107807142Y-56351428D01*
X108378571Y-55808571D02*
X108407142Y-55780000D01*
X108464285Y-55751428D01*
X108607142Y-55751428D01*
X108664285Y-55780000D01*
X108692857Y-55808571D01*
X108721428Y-55865714D01*
X108721428Y-55922857D01*
X108692857Y-56008571D01*
X108350000Y-56351428D01*
X108721428Y-56351428D01*
G04 #@! TO.C,D1*
X116057142Y-56351428D02*
X116057142Y-55751428D01*
X116200000Y-55751428D01*
X116285714Y-55780000D01*
X116342857Y-55837142D01*
X116371428Y-55894285D01*
X116400000Y-56008571D01*
X116400000Y-56094285D01*
X116371428Y-56208571D01*
X116342857Y-56265714D01*
X116285714Y-56322857D01*
X116200000Y-56351428D01*
X116057142Y-56351428D01*
X116971428Y-56351428D02*
X116628571Y-56351428D01*
X116800000Y-56351428D02*
X116800000Y-55751428D01*
X116742857Y-55837142D01*
X116685714Y-55894285D01*
X116628571Y-55922857D01*
G04 #@! TO.C,C11*
X115614285Y-60464285D02*
X115585714Y-60492857D01*
X115500000Y-60521428D01*
X115442857Y-60521428D01*
X115357142Y-60492857D01*
X115300000Y-60435714D01*
X115271428Y-60378571D01*
X115242857Y-60264285D01*
X115242857Y-60178571D01*
X115271428Y-60064285D01*
X115300000Y-60007142D01*
X115357142Y-59950000D01*
X115442857Y-59921428D01*
X115500000Y-59921428D01*
X115585714Y-59950000D01*
X115614285Y-59978571D01*
X116185714Y-60521428D02*
X115842857Y-60521428D01*
X116014285Y-60521428D02*
X116014285Y-59921428D01*
X115957142Y-60007142D01*
X115900000Y-60064285D01*
X115842857Y-60092857D01*
X116757142Y-60521428D02*
X116414285Y-60521428D01*
X116585714Y-60521428D02*
X116585714Y-59921428D01*
X116528571Y-60007142D01*
X116471428Y-60064285D01*
X116414285Y-60092857D01*
G04 #@! TO.C,C10*
X113864285Y-60464285D02*
X113835714Y-60492857D01*
X113750000Y-60521428D01*
X113692857Y-60521428D01*
X113607142Y-60492857D01*
X113550000Y-60435714D01*
X113521428Y-60378571D01*
X113492857Y-60264285D01*
X113492857Y-60178571D01*
X113521428Y-60064285D01*
X113550000Y-60007142D01*
X113607142Y-59950000D01*
X113692857Y-59921428D01*
X113750000Y-59921428D01*
X113835714Y-59950000D01*
X113864285Y-59978571D01*
X114435714Y-60521428D02*
X114092857Y-60521428D01*
X114264285Y-60521428D02*
X114264285Y-59921428D01*
X114207142Y-60007142D01*
X114150000Y-60064285D01*
X114092857Y-60092857D01*
X114807142Y-59921428D02*
X114864285Y-59921428D01*
X114921428Y-59950000D01*
X114950000Y-59978571D01*
X114978571Y-60035714D01*
X115007142Y-60150000D01*
X115007142Y-60292857D01*
X114978571Y-60407142D01*
X114950000Y-60464285D01*
X114921428Y-60492857D01*
X114864285Y-60521428D01*
X114807142Y-60521428D01*
X114750000Y-60492857D01*
X114721428Y-60464285D01*
X114692857Y-60407142D01*
X114664285Y-60292857D01*
X114664285Y-60150000D01*
X114692857Y-60035714D01*
X114721428Y-59978571D01*
X114750000Y-59950000D01*
X114807142Y-59921428D01*
G04 #@! TO.C,C9*
X118150000Y-84714285D02*
X118121428Y-84742857D01*
X118035714Y-84771428D01*
X117978571Y-84771428D01*
X117892857Y-84742857D01*
X117835714Y-84685714D01*
X117807142Y-84628571D01*
X117778571Y-84514285D01*
X117778571Y-84428571D01*
X117807142Y-84314285D01*
X117835714Y-84257142D01*
X117892857Y-84200000D01*
X117978571Y-84171428D01*
X118035714Y-84171428D01*
X118121428Y-84200000D01*
X118150000Y-84228571D01*
X118435714Y-84771428D02*
X118550000Y-84771428D01*
X118607142Y-84742857D01*
X118635714Y-84714285D01*
X118692857Y-84628571D01*
X118721428Y-84514285D01*
X118721428Y-84285714D01*
X118692857Y-84228571D01*
X118664285Y-84200000D01*
X118607142Y-84171428D01*
X118492857Y-84171428D01*
X118435714Y-84200000D01*
X118407142Y-84228571D01*
X118378571Y-84285714D01*
X118378571Y-84428571D01*
X118407142Y-84485714D01*
X118435714Y-84514285D01*
X118492857Y-84542857D01*
X118607142Y-84542857D01*
X118664285Y-84514285D01*
X118692857Y-84485714D01*
X118721428Y-84428571D01*
G04 #@! TO.C,C8*
X113900000Y-82714285D02*
X113871428Y-82742857D01*
X113785714Y-82771428D01*
X113728571Y-82771428D01*
X113642857Y-82742857D01*
X113585714Y-82685714D01*
X113557142Y-82628571D01*
X113528571Y-82514285D01*
X113528571Y-82428571D01*
X113557142Y-82314285D01*
X113585714Y-82257142D01*
X113642857Y-82200000D01*
X113728571Y-82171428D01*
X113785714Y-82171428D01*
X113871428Y-82200000D01*
X113900000Y-82228571D01*
X114242857Y-82428571D02*
X114185714Y-82400000D01*
X114157142Y-82371428D01*
X114128571Y-82314285D01*
X114128571Y-82285714D01*
X114157142Y-82228571D01*
X114185714Y-82200000D01*
X114242857Y-82171428D01*
X114357142Y-82171428D01*
X114414285Y-82200000D01*
X114442857Y-82228571D01*
X114471428Y-82285714D01*
X114471428Y-82314285D01*
X114442857Y-82371428D01*
X114414285Y-82400000D01*
X114357142Y-82428571D01*
X114242857Y-82428571D01*
X114185714Y-82457142D01*
X114157142Y-82485714D01*
X114128571Y-82542857D01*
X114128571Y-82657142D01*
X114157142Y-82714285D01*
X114185714Y-82742857D01*
X114242857Y-82771428D01*
X114357142Y-82771428D01*
X114414285Y-82742857D01*
X114442857Y-82714285D01*
X114471428Y-82657142D01*
X114471428Y-82542857D01*
X114442857Y-82485714D01*
X114414285Y-82457142D01*
X114357142Y-82428571D01*
G04 #@! TO.C,C7*
X113900000Y-84714285D02*
X113871428Y-84742857D01*
X113785714Y-84771428D01*
X113728571Y-84771428D01*
X113642857Y-84742857D01*
X113585714Y-84685714D01*
X113557142Y-84628571D01*
X113528571Y-84514285D01*
X113528571Y-84428571D01*
X113557142Y-84314285D01*
X113585714Y-84257142D01*
X113642857Y-84200000D01*
X113728571Y-84171428D01*
X113785714Y-84171428D01*
X113871428Y-84200000D01*
X113900000Y-84228571D01*
X114100000Y-84171428D02*
X114500000Y-84171428D01*
X114242857Y-84771428D01*
G04 #@! TO.C,C6*
X108400000Y-64964285D02*
X108371428Y-64992857D01*
X108285714Y-65021428D01*
X108228571Y-65021428D01*
X108142857Y-64992857D01*
X108085714Y-64935714D01*
X108057142Y-64878571D01*
X108028571Y-64764285D01*
X108028571Y-64678571D01*
X108057142Y-64564285D01*
X108085714Y-64507142D01*
X108142857Y-64450000D01*
X108228571Y-64421428D01*
X108285714Y-64421428D01*
X108371428Y-64450000D01*
X108400000Y-64478571D01*
X108914285Y-64421428D02*
X108800000Y-64421428D01*
X108742857Y-64450000D01*
X108714285Y-64478571D01*
X108657142Y-64564285D01*
X108628571Y-64678571D01*
X108628571Y-64907142D01*
X108657142Y-64964285D01*
X108685714Y-64992857D01*
X108742857Y-65021428D01*
X108857142Y-65021428D01*
X108914285Y-64992857D01*
X108942857Y-64964285D01*
X108971428Y-64907142D01*
X108971428Y-64764285D01*
X108942857Y-64707142D01*
X108914285Y-64678571D01*
X108857142Y-64650000D01*
X108742857Y-64650000D01*
X108685714Y-64678571D01*
X108657142Y-64707142D01*
X108628571Y-64764285D01*
G04 #@! TO.C,C5*
X119900000Y-70464285D02*
X119871428Y-70492857D01*
X119785714Y-70521428D01*
X119728571Y-70521428D01*
X119642857Y-70492857D01*
X119585714Y-70435714D01*
X119557142Y-70378571D01*
X119528571Y-70264285D01*
X119528571Y-70178571D01*
X119557142Y-70064285D01*
X119585714Y-70007142D01*
X119642857Y-69950000D01*
X119728571Y-69921428D01*
X119785714Y-69921428D01*
X119871428Y-69950000D01*
X119900000Y-69978571D01*
X120442857Y-69921428D02*
X120157142Y-69921428D01*
X120128571Y-70207142D01*
X120157142Y-70178571D01*
X120214285Y-70150000D01*
X120357142Y-70150000D01*
X120414285Y-70178571D01*
X120442857Y-70207142D01*
X120471428Y-70264285D01*
X120471428Y-70407142D01*
X120442857Y-70464285D01*
X120414285Y-70492857D01*
X120357142Y-70521428D01*
X120214285Y-70521428D01*
X120157142Y-70492857D01*
X120128571Y-70464285D01*
G04 #@! TO.C,C4*
X118400000Y-82714285D02*
X118371428Y-82742857D01*
X118285714Y-82771428D01*
X118228571Y-82771428D01*
X118142857Y-82742857D01*
X118085714Y-82685714D01*
X118057142Y-82628571D01*
X118028571Y-82514285D01*
X118028571Y-82428571D01*
X118057142Y-82314285D01*
X118085714Y-82257142D01*
X118142857Y-82200000D01*
X118228571Y-82171428D01*
X118285714Y-82171428D01*
X118371428Y-82200000D01*
X118400000Y-82228571D01*
X118914285Y-82371428D02*
X118914285Y-82771428D01*
X118771428Y-82142857D02*
X118628571Y-82571428D01*
X119000000Y-82571428D01*
G04 #@! TO.C,C3*
X104260000Y-76494285D02*
X104231428Y-76522857D01*
X104145714Y-76551428D01*
X104088571Y-76551428D01*
X104002857Y-76522857D01*
X103945714Y-76465714D01*
X103917142Y-76408571D01*
X103888571Y-76294285D01*
X103888571Y-76208571D01*
X103917142Y-76094285D01*
X103945714Y-76037142D01*
X104002857Y-75980000D01*
X104088571Y-75951428D01*
X104145714Y-75951428D01*
X104231428Y-75980000D01*
X104260000Y-76008571D01*
X104460000Y-75951428D02*
X104831428Y-75951428D01*
X104631428Y-76180000D01*
X104717142Y-76180000D01*
X104774285Y-76208571D01*
X104802857Y-76237142D01*
X104831428Y-76294285D01*
X104831428Y-76437142D01*
X104802857Y-76494285D01*
X104774285Y-76522857D01*
X104717142Y-76551428D01*
X104545714Y-76551428D01*
X104488571Y-76522857D01*
X104460000Y-76494285D01*
G04 #@! TO.C,C2*
X104400000Y-70714285D02*
X104371428Y-70742857D01*
X104285714Y-70771428D01*
X104228571Y-70771428D01*
X104142857Y-70742857D01*
X104085714Y-70685714D01*
X104057142Y-70628571D01*
X104028571Y-70514285D01*
X104028571Y-70428571D01*
X104057142Y-70314285D01*
X104085714Y-70257142D01*
X104142857Y-70200000D01*
X104228571Y-70171428D01*
X104285714Y-70171428D01*
X104371428Y-70200000D01*
X104400000Y-70228571D01*
X104628571Y-70228571D02*
X104657142Y-70200000D01*
X104714285Y-70171428D01*
X104857142Y-70171428D01*
X104914285Y-70200000D01*
X104942857Y-70228571D01*
X104971428Y-70285714D01*
X104971428Y-70342857D01*
X104942857Y-70428571D01*
X104600000Y-70771428D01*
X104971428Y-70771428D01*
G04 #@! TO.C,C1*
X110400000Y-64964285D02*
X110371428Y-64992857D01*
X110285714Y-65021428D01*
X110228571Y-65021428D01*
X110142857Y-64992857D01*
X110085714Y-64935714D01*
X110057142Y-64878571D01*
X110028571Y-64764285D01*
X110028571Y-64678571D01*
X110057142Y-64564285D01*
X110085714Y-64507142D01*
X110142857Y-64450000D01*
X110228571Y-64421428D01*
X110285714Y-64421428D01*
X110371428Y-64450000D01*
X110400000Y-64478571D01*
X110971428Y-65021428D02*
X110628571Y-65021428D01*
X110800000Y-65021428D02*
X110800000Y-64421428D01*
X110742857Y-64507142D01*
X110685714Y-64564285D01*
X110628571Y-64592857D01*
G04 #@! TD*
%LPC*%
D14*
G04 #@! TO.C,U2*
X116000000Y-69230000D03*
X115500000Y-69230000D03*
X115000000Y-69230000D03*
X114500000Y-69230000D03*
X114000000Y-69230000D03*
X113500000Y-69230000D03*
X113000000Y-69230000D03*
X112500000Y-69230000D03*
X112000000Y-69230000D03*
X111500000Y-69230000D03*
X111000000Y-69230000D03*
X110500000Y-69230000D03*
X110000000Y-69230000D03*
X109500000Y-69230000D03*
X109000000Y-69230000D03*
X108500000Y-69230000D03*
D15*
X106550000Y-71180000D03*
X106550000Y-71680000D03*
X106550000Y-72180000D03*
X106550000Y-72680000D03*
X106550000Y-73180000D03*
X106550000Y-73680000D03*
X106550000Y-74180000D03*
X106550000Y-74680000D03*
X106550000Y-75180000D03*
X106550000Y-75680000D03*
X106550000Y-76180000D03*
X106550000Y-76680000D03*
X106550000Y-77180000D03*
X106550000Y-77680000D03*
X106550000Y-78180000D03*
X106550000Y-78680000D03*
D14*
X108500000Y-80630000D03*
X109000000Y-80630000D03*
X109500000Y-80630000D03*
X110000000Y-80630000D03*
X110500000Y-80630000D03*
X111000000Y-80630000D03*
X111500000Y-80630000D03*
X112000000Y-80630000D03*
X112500000Y-80630000D03*
X113000000Y-80630000D03*
X113500000Y-80630000D03*
X114000000Y-80630000D03*
X114500000Y-80630000D03*
X115000000Y-80630000D03*
X115500000Y-80630000D03*
X116000000Y-80630000D03*
D15*
X117950000Y-78680000D03*
X117950000Y-78180000D03*
X117950000Y-77680000D03*
X117950000Y-77180000D03*
X117950000Y-76680000D03*
X117950000Y-76180000D03*
X117950000Y-75680000D03*
X117950000Y-75180000D03*
X117950000Y-74680000D03*
X117950000Y-74180000D03*
X117950000Y-73680000D03*
X117950000Y-73180000D03*
X117950000Y-72680000D03*
X117950000Y-72180000D03*
X117950000Y-71680000D03*
X117950000Y-71180000D03*
G04 #@! TD*
D16*
G04 #@! TO.C,SW1*
X110800000Y-58000000D03*
X114200000Y-58000000D03*
G04 #@! TD*
D17*
G04 #@! TO.C,U1*
X107300000Y-82400000D03*
X109200000Y-82400000D03*
X109200000Y-84600000D03*
X108250000Y-84600000D03*
X107300000Y-84600000D03*
G04 #@! TD*
D18*
G04 #@! TO.C,Y1*
X112650000Y-65040000D03*
X115950000Y-65040000D03*
X115950000Y-67040000D03*
X112650000Y-67040000D03*
G04 #@! TD*
D19*
G04 #@! TO.C,U5*
X115860000Y-92500000D03*
X108240000Y-92500000D03*
D20*
X110750000Y-92250000D03*
X113350000Y-92250000D03*
G04 #@! TD*
D21*
G04 #@! TO.C,U4*
X114720000Y-53350000D03*
D22*
X114720000Y-54250000D03*
D21*
X114720000Y-55150000D03*
X116420000Y-55150000D03*
D22*
X116420000Y-54250000D03*
D21*
X116420000Y-53350000D03*
G04 #@! TD*
G04 #@! TO.C,U3*
X108650000Y-53350000D03*
D22*
X108650000Y-54250000D03*
D21*
X108650000Y-55150000D03*
X110350000Y-55150000D03*
D22*
X110350000Y-54250000D03*
D21*
X110350000Y-53350000D03*
G04 #@! TD*
D23*
G04 #@! TO.C,R3*
X108500000Y-61750000D03*
X108500000Y-63250000D03*
G04 #@! TD*
G04 #@! TO.C,R2*
X112500000Y-61750000D03*
X112500000Y-63250000D03*
G04 #@! TD*
G04 #@! TO.C,R1*
X110500000Y-61750000D03*
X110500000Y-63250000D03*
G04 #@! TD*
D24*
G04 #@! TO.C,J3*
X105250000Y-67580000D03*
X105250000Y-65040000D03*
X105250000Y-62500000D03*
X105250000Y-59960000D03*
X105250000Y-57420000D03*
G04 #@! TD*
G04 #@! TO.C,J2*
X119380000Y-67580000D03*
X119380000Y-65040000D03*
X119380000Y-62500000D03*
X119380000Y-59960000D03*
X119380000Y-57420000D03*
G04 #@! TD*
D25*
G04 #@! TO.C,D2*
X108250000Y-57200000D03*
X108250000Y-58800000D03*
G04 #@! TD*
G04 #@! TO.C,D1*
X116500000Y-57200000D03*
X116500000Y-58800000D03*
G04 #@! TD*
D26*
G04 #@! TO.C,C11*
X116250000Y-63000000D03*
X116250000Y-61500000D03*
G04 #@! TD*
G04 #@! TO.C,C10*
X114250000Y-63000000D03*
X114250000Y-61500000D03*
G04 #@! TD*
D27*
G04 #@! TO.C,C9*
X117000000Y-84500000D03*
X115500000Y-84500000D03*
G04 #@! TD*
G04 #@! TO.C,C8*
X111010000Y-82550000D03*
X112510000Y-82550000D03*
G04 #@! TD*
G04 #@! TO.C,C7*
X111010000Y-84500000D03*
X112510000Y-84500000D03*
G04 #@! TD*
D26*
G04 #@! TO.C,C6*
X108500000Y-66000000D03*
X108500000Y-67500000D03*
G04 #@! TD*
G04 #@! TO.C,C5*
X120000000Y-71500000D03*
X120000000Y-73000000D03*
G04 #@! TD*
D27*
G04 #@! TO.C,C4*
X117000000Y-82550000D03*
X115500000Y-82550000D03*
G04 #@! TD*
D26*
G04 #@! TO.C,C3*
X104500000Y-79250000D03*
X104500000Y-77750000D03*
G04 #@! TD*
G04 #@! TO.C,C2*
X104500000Y-73250000D03*
X104500000Y-71750000D03*
G04 #@! TD*
G04 #@! TO.C,C1*
X110500000Y-67540000D03*
X110500000Y-66040000D03*
G04 #@! TD*
M02*
