G04 #@! TF.GenerationSoftware,KiCad,Pcbnew,(6.0.0-rc1-dev-1248-ged6c68a1e)*
G04 #@! TF.CreationDate,2018-11-30T22:55:46-05:00*
G04 #@! TF.ProjectId,cuttle2fish,63757474-6c65-4326-9669-73682e6b6963,rev?*
G04 #@! TF.SameCoordinates,Original*
G04 #@! TF.FileFunction,Soldermask,Top*
G04 #@! TF.FilePolarity,Negative*
%FSLAX46Y46*%
G04 Gerber Fmt 4.6, Leading zero omitted, Abs format (unit mm)*
G04 Created by KiCad (PCBNEW (6.0.0-rc1-dev-1248-ged6c68a1e)) date 11/30/2018 10:55:46 PM*
%MOMM*%
%LPD*%
G01*
G04 APERTURE LIST*
G04 #@! TA.AperFunction,NonConductor*
%ADD10C,0.100000*%
G04 #@! TD*
G04 APERTURE END LIST*
D10*
G36*
X116861000Y-96551000D02*
X114859000Y-96551000D01*
X114859000Y-88449000D01*
X116861000Y-88449000D01*
X116861000Y-96551000D01*
X116861000Y-96551000D01*
G37*
G36*
X109241000Y-96551000D02*
X107239000Y-96551000D01*
X107239000Y-88449000D01*
X109241000Y-88449000D01*
X109241000Y-96551000D01*
X109241000Y-96551000D01*
G37*
G36*
X111801000Y-96051000D02*
X109699000Y-96051000D01*
X109699000Y-88449000D01*
X111801000Y-88449000D01*
X111801000Y-96051000D01*
X111801000Y-96051000D01*
G37*
G36*
X114401000Y-96051000D02*
X112299000Y-96051000D01*
X112299000Y-88449000D01*
X114401000Y-88449000D01*
X114401000Y-96051000D01*
X114401000Y-96051000D01*
G37*
G36*
X109576000Y-85181000D02*
X106924000Y-85181000D01*
X106924000Y-84019000D01*
X109576000Y-84019000D01*
X109576000Y-85181000D01*
X109576000Y-85181000D01*
G37*
G36*
X117451000Y-84926000D02*
X116549000Y-84926000D01*
X116549000Y-84074000D01*
X117451000Y-84074000D01*
X117451000Y-84926000D01*
X117451000Y-84926000D01*
G37*
G36*
X115951000Y-84926000D02*
X115049000Y-84926000D01*
X115049000Y-84074000D01*
X115951000Y-84074000D01*
X115951000Y-84926000D01*
X115951000Y-84926000D01*
G37*
G36*
X111461000Y-84926000D02*
X110559000Y-84926000D01*
X110559000Y-84074000D01*
X111461000Y-84074000D01*
X111461000Y-84926000D01*
X111461000Y-84926000D01*
G37*
G36*
X112961000Y-84926000D02*
X112059000Y-84926000D01*
X112059000Y-84074000D01*
X112961000Y-84074000D01*
X112961000Y-84926000D01*
X112961000Y-84926000D01*
G37*
G36*
X107676000Y-82981000D02*
X106924000Y-82981000D01*
X106924000Y-81819000D01*
X107676000Y-81819000D01*
X107676000Y-82981000D01*
X107676000Y-82981000D01*
G37*
G36*
X109576000Y-82981000D02*
X108824000Y-82981000D01*
X108824000Y-81819000D01*
X109576000Y-81819000D01*
X109576000Y-82981000D01*
X109576000Y-82981000D01*
G37*
G36*
X115951000Y-82976000D02*
X115049000Y-82976000D01*
X115049000Y-82124000D01*
X115951000Y-82124000D01*
X115951000Y-82976000D01*
X115951000Y-82976000D01*
G37*
G36*
X117451000Y-82976000D02*
X116549000Y-82976000D01*
X116549000Y-82124000D01*
X117451000Y-82124000D01*
X117451000Y-82976000D01*
X117451000Y-82976000D01*
G37*
G36*
X112961000Y-82976000D02*
X112059000Y-82976000D01*
X112059000Y-82124000D01*
X112961000Y-82124000D01*
X112961000Y-82976000D01*
X112961000Y-82976000D01*
G37*
G36*
X111461000Y-82976000D02*
X110559000Y-82976000D01*
X110559000Y-82124000D01*
X111461000Y-82124000D01*
X111461000Y-82976000D01*
X111461000Y-82976000D01*
G37*
G36*
X116176000Y-81181000D02*
X108324000Y-81181000D01*
X108324000Y-80079000D01*
X116176000Y-80079000D01*
X116176000Y-81181000D01*
X116176000Y-81181000D01*
G37*
G36*
X104926000Y-79701000D02*
X104074000Y-79701000D01*
X104074000Y-78799000D01*
X104926000Y-78799000D01*
X104926000Y-79701000D01*
X104926000Y-79701000D01*
G37*
G36*
X107101000Y-78856000D02*
X105999000Y-78856000D01*
X105999000Y-71004000D01*
X107101000Y-71004000D01*
X107101000Y-78856000D01*
X107101000Y-78856000D01*
G37*
G36*
X118501000Y-78856000D02*
X117399000Y-78856000D01*
X117399000Y-71004000D01*
X118501000Y-71004000D01*
X118501000Y-78856000D01*
X118501000Y-78856000D01*
G37*
G36*
X104926000Y-78201000D02*
X104074000Y-78201000D01*
X104074000Y-77299000D01*
X104926000Y-77299000D01*
X104926000Y-78201000D01*
X104926000Y-78201000D01*
G37*
G36*
X104926000Y-73701000D02*
X104074000Y-73701000D01*
X104074000Y-72799000D01*
X104926000Y-72799000D01*
X104926000Y-73701000D01*
X104926000Y-73701000D01*
G37*
G36*
X120426000Y-73451000D02*
X119574000Y-73451000D01*
X119574000Y-72549000D01*
X120426000Y-72549000D01*
X120426000Y-73451000D01*
X120426000Y-73451000D01*
G37*
G36*
X104926000Y-72201000D02*
X104074000Y-72201000D01*
X104074000Y-71299000D01*
X104926000Y-71299000D01*
X104926000Y-72201000D01*
X104926000Y-72201000D01*
G37*
G36*
X120426000Y-71951000D02*
X119574000Y-71951000D01*
X119574000Y-71049000D01*
X120426000Y-71049000D01*
X120426000Y-71951000D01*
X120426000Y-71951000D01*
G37*
G36*
X116176000Y-69781000D02*
X108324000Y-69781000D01*
X108324000Y-68679000D01*
X116176000Y-68679000D01*
X116176000Y-69781000D01*
X116176000Y-69781000D01*
G37*
G36*
X106801000Y-68481000D02*
X103699000Y-68481000D01*
X103699000Y-66679000D01*
X106801000Y-66679000D01*
X106801000Y-68481000D01*
X106801000Y-68481000D01*
G37*
G36*
X120931000Y-68481000D02*
X117829000Y-68481000D01*
X117829000Y-66679000D01*
X120931000Y-66679000D01*
X120931000Y-68481000D01*
X120931000Y-68481000D01*
G37*
G36*
X110926000Y-67991000D02*
X110074000Y-67991000D01*
X110074000Y-67089000D01*
X110926000Y-67089000D01*
X110926000Y-67991000D01*
X110926000Y-67991000D01*
G37*
G36*
X108926000Y-67951000D02*
X108074000Y-67951000D01*
X108074000Y-67049000D01*
X108926000Y-67049000D01*
X108926000Y-67951000D01*
X108926000Y-67951000D01*
G37*
G36*
X113501000Y-67741000D02*
X111799000Y-67741000D01*
X111799000Y-66339000D01*
X113501000Y-66339000D01*
X113501000Y-67741000D01*
X113501000Y-67741000D01*
G37*
G36*
X116801000Y-67741000D02*
X115099000Y-67741000D01*
X115099000Y-66339000D01*
X116801000Y-66339000D01*
X116801000Y-67741000D01*
X116801000Y-67741000D01*
G37*
G36*
X110926000Y-66491000D02*
X110074000Y-66491000D01*
X110074000Y-65589000D01*
X110926000Y-65589000D01*
X110926000Y-66491000D01*
X110926000Y-66491000D01*
G37*
G36*
X108926000Y-66451000D02*
X108074000Y-66451000D01*
X108074000Y-65549000D01*
X108926000Y-65549000D01*
X108926000Y-66451000D01*
X108926000Y-66451000D01*
G37*
G36*
X120931000Y-65941000D02*
X117829000Y-65941000D01*
X117829000Y-64139000D01*
X120931000Y-64139000D01*
X120931000Y-65941000D01*
X120931000Y-65941000D01*
G37*
G36*
X106801000Y-65941000D02*
X103699000Y-65941000D01*
X103699000Y-64139000D01*
X106801000Y-64139000D01*
X106801000Y-65941000D01*
X106801000Y-65941000D01*
G37*
G36*
X113501000Y-65741000D02*
X111799000Y-65741000D01*
X111799000Y-64339000D01*
X113501000Y-64339000D01*
X113501000Y-65741000D01*
X113501000Y-65741000D01*
G37*
G36*
X116801000Y-65741000D02*
X115099000Y-65741000D01*
X115099000Y-64339000D01*
X116801000Y-64339000D01*
X116801000Y-65741000D01*
X116801000Y-65741000D01*
G37*
G36*
X113001000Y-63551000D02*
X111999000Y-63551000D01*
X111999000Y-62949000D01*
X113001000Y-62949000D01*
X113001000Y-63551000D01*
X113001000Y-63551000D01*
G37*
G36*
X109001000Y-63551000D02*
X107999000Y-63551000D01*
X107999000Y-62949000D01*
X109001000Y-62949000D01*
X109001000Y-63551000D01*
X109001000Y-63551000D01*
G37*
G36*
X111001000Y-63551000D02*
X109999000Y-63551000D01*
X109999000Y-62949000D01*
X111001000Y-62949000D01*
X111001000Y-63551000D01*
X111001000Y-63551000D01*
G37*
G36*
X114676000Y-63451000D02*
X113824000Y-63451000D01*
X113824000Y-62549000D01*
X114676000Y-62549000D01*
X114676000Y-63451000D01*
X114676000Y-63451000D01*
G37*
G36*
X116676000Y-63451000D02*
X115824000Y-63451000D01*
X115824000Y-62549000D01*
X116676000Y-62549000D01*
X116676000Y-63451000D01*
X116676000Y-63451000D01*
G37*
G36*
X120931000Y-63401000D02*
X117829000Y-63401000D01*
X117829000Y-61599000D01*
X120931000Y-61599000D01*
X120931000Y-63401000D01*
X120931000Y-63401000D01*
G37*
G36*
X106801000Y-63401000D02*
X103699000Y-63401000D01*
X103699000Y-61599000D01*
X106801000Y-61599000D01*
X106801000Y-63401000D01*
X106801000Y-63401000D01*
G37*
G36*
X109001000Y-62051000D02*
X107999000Y-62051000D01*
X107999000Y-61449000D01*
X109001000Y-61449000D01*
X109001000Y-62051000D01*
X109001000Y-62051000D01*
G37*
G36*
X113001000Y-62051000D02*
X111999000Y-62051000D01*
X111999000Y-61449000D01*
X113001000Y-61449000D01*
X113001000Y-62051000D01*
X113001000Y-62051000D01*
G37*
G36*
X111001000Y-62051000D02*
X109999000Y-62051000D01*
X109999000Y-61449000D01*
X111001000Y-61449000D01*
X111001000Y-62051000D01*
X111001000Y-62051000D01*
G37*
G36*
X116676000Y-61951000D02*
X115824000Y-61951000D01*
X115824000Y-61049000D01*
X116676000Y-61049000D01*
X116676000Y-61951000D01*
X116676000Y-61951000D01*
G37*
G36*
X114676000Y-61951000D02*
X113824000Y-61951000D01*
X113824000Y-61049000D01*
X114676000Y-61049000D01*
X114676000Y-61951000D01*
X114676000Y-61951000D01*
G37*
G36*
X120931000Y-60861000D02*
X117829000Y-60861000D01*
X117829000Y-59059000D01*
X120931000Y-59059000D01*
X120931000Y-60861000D01*
X120931000Y-60861000D01*
G37*
G36*
X106801000Y-60861000D02*
X103699000Y-60861000D01*
X103699000Y-59059000D01*
X106801000Y-59059000D01*
X106801000Y-60861000D01*
X106801000Y-60861000D01*
G37*
G36*
X116951000Y-59251000D02*
X116049000Y-59251000D01*
X116049000Y-58349000D01*
X116951000Y-58349000D01*
X116951000Y-59251000D01*
X116951000Y-59251000D01*
G37*
G36*
X108701000Y-59251000D02*
X107799000Y-59251000D01*
X107799000Y-58349000D01*
X108701000Y-58349000D01*
X108701000Y-59251000D01*
X108701000Y-59251000D01*
G37*
G36*
X114701000Y-58901000D02*
X113699000Y-58901000D01*
X113699000Y-57099000D01*
X114701000Y-57099000D01*
X114701000Y-58901000D01*
X114701000Y-58901000D01*
G37*
G36*
X111301000Y-58901000D02*
X110299000Y-58901000D01*
X110299000Y-57099000D01*
X111301000Y-57099000D01*
X111301000Y-58901000D01*
X111301000Y-58901000D01*
G37*
G36*
X106801000Y-58321000D02*
X103699000Y-58321000D01*
X103699000Y-56519000D01*
X106801000Y-56519000D01*
X106801000Y-58321000D01*
X106801000Y-58321000D01*
G37*
G36*
X120931000Y-58321000D02*
X117829000Y-58321000D01*
X117829000Y-56519000D01*
X120931000Y-56519000D01*
X120931000Y-58321000D01*
X120931000Y-58321000D01*
G37*
G36*
X108701000Y-57651000D02*
X107799000Y-57651000D01*
X107799000Y-56749000D01*
X108701000Y-56749000D01*
X108701000Y-57651000D01*
X108701000Y-57651000D01*
G37*
G36*
X116951000Y-57651000D02*
X116049000Y-57651000D01*
X116049000Y-56749000D01*
X116951000Y-56749000D01*
X116951000Y-57651000D01*
X116951000Y-57651000D01*
G37*
G36*
X116871000Y-55451000D02*
X115969000Y-55451000D01*
X115969000Y-54849000D01*
X116871000Y-54849000D01*
X116871000Y-55451000D01*
X116871000Y-55451000D01*
G37*
G36*
X109101000Y-55451000D02*
X108199000Y-55451000D01*
X108199000Y-54849000D01*
X109101000Y-54849000D01*
X109101000Y-55451000D01*
X109101000Y-55451000D01*
G37*
G36*
X110801000Y-55451000D02*
X109899000Y-55451000D01*
X109899000Y-54849000D01*
X110801000Y-54849000D01*
X110801000Y-55451000D01*
X110801000Y-55451000D01*
G37*
G36*
X115171000Y-55451000D02*
X114269000Y-55451000D01*
X114269000Y-54849000D01*
X115171000Y-54849000D01*
X115171000Y-55451000D01*
X115171000Y-55451000D01*
G37*
G36*
X109101000Y-54451000D02*
X108199000Y-54451000D01*
X108199000Y-54049000D01*
X109101000Y-54049000D01*
X109101000Y-54451000D01*
X109101000Y-54451000D01*
G37*
G36*
X110801000Y-54451000D02*
X109899000Y-54451000D01*
X109899000Y-54049000D01*
X110801000Y-54049000D01*
X110801000Y-54451000D01*
X110801000Y-54451000D01*
G37*
G36*
X116871000Y-54451000D02*
X115969000Y-54451000D01*
X115969000Y-54049000D01*
X116871000Y-54049000D01*
X116871000Y-54451000D01*
X116871000Y-54451000D01*
G37*
G36*
X115171000Y-54451000D02*
X114269000Y-54451000D01*
X114269000Y-54049000D01*
X115171000Y-54049000D01*
X115171000Y-54451000D01*
X115171000Y-54451000D01*
G37*
G36*
X110801000Y-53651000D02*
X109899000Y-53651000D01*
X109899000Y-53049000D01*
X110801000Y-53049000D01*
X110801000Y-53651000D01*
X110801000Y-53651000D01*
G37*
G36*
X116871000Y-53651000D02*
X115969000Y-53651000D01*
X115969000Y-53049000D01*
X116871000Y-53049000D01*
X116871000Y-53651000D01*
X116871000Y-53651000D01*
G37*
G36*
X115171000Y-53651000D02*
X114269000Y-53651000D01*
X114269000Y-53049000D01*
X115171000Y-53049000D01*
X115171000Y-53651000D01*
X115171000Y-53651000D01*
G37*
G36*
X109101000Y-53651000D02*
X108199000Y-53651000D01*
X108199000Y-53049000D01*
X109101000Y-53049000D01*
X109101000Y-53651000D01*
X109101000Y-53651000D01*
G37*
M02*
