M48
INCH,TZ
T1C0.0118
%
G90
G05
T1
X40551Y-28642
X40650Y-23327
X40650Y-26575
X41142Y-30118
X41437Y-25098
X41437Y-29724
X41535Y-26083
X42126Y-22638
X42323Y-22146
X42520Y-21752
X42618Y-33661
X42618Y-34646
X42717Y-20669
X43012Y-29921
X43110Y-22520
X43307Y-28740
X43701Y-33661
X43799Y-25591
X43937Y-24016
X44291Y-32874
X44685Y-21752
X44783Y-28937
X45079Y-27854
X45079Y-28740
X45374Y-31102
X45472Y-32874
X45571Y-28740
X45571Y-34547
X45965Y-28346
X45965Y-28740
X46161Y-26394
X46358Y-25591
X46921Y-23130
X46949Y-30315
X47244Y-29331
X47441Y-25098
T0
M30
