G04 #@! TF.GenerationSoftware,KiCad,Pcbnew,(6.0.0-rc1-dev-1248-ged6c68a1e)*
G04 #@! TF.CreationDate,2018-11-30T22:55:46-05:00*
G04 #@! TF.ProjectId,cuttle2fish,63757474-6c65-4326-9669-73682e6b6963,rev?*
G04 #@! TF.SameCoordinates,Original*
G04 #@! TF.FileFunction,Copper,L2,Bot*
G04 #@! TF.FilePolarity,Positive*
%FSLAX46Y46*%
G04 Gerber Fmt 4.6, Leading zero omitted, Abs format (unit mm)*
G04 Created by KiCad (PCBNEW (6.0.0-rc1-dev-1248-ged6c68a1e)) date 11/30/2018 10:55:46 PM*
%MOMM*%
%LPD*%
G01*
G04 APERTURE LIST*
G04 #@! TA.AperFunction,EtchedComponent*
%ADD10C,0.001772*%
G04 #@! TD*
G04 #@! TA.AperFunction,ViaPad*
%ADD11C,0.400000*%
G04 #@! TD*
G04 #@! TA.AperFunction,Conductor*
%ADD12C,0.160000*%
G04 #@! TD*
G04 #@! TA.AperFunction,Conductor*
%ADD13C,0.200000*%
G04 #@! TD*
G04 APERTURE END LIST*
D10*
G04 #@! TO.C,svg2mod*
G36*
X110687822Y-75084315D02*
X110684653Y-74871827D01*
X110574449Y-74681148D01*
X110434558Y-74460010D01*
X110278340Y-74250190D01*
X110095661Y-74063295D01*
X109876258Y-74098327D01*
X109727264Y-74271314D01*
X109619840Y-74438324D01*
X109510167Y-74603872D01*
X109388542Y-74760708D01*
X109171760Y-74707983D01*
X109019946Y-74533646D01*
X108901262Y-74355626D01*
X108771633Y-74185492D01*
X108607601Y-74049746D01*
X108411388Y-74095003D01*
X108286746Y-74255709D01*
X108164165Y-74438299D01*
X108022996Y-74606818D01*
X107858525Y-74752449D01*
X107852900Y-74875626D01*
X107950462Y-74960413D01*
X108071648Y-74937659D01*
X108238123Y-74797785D01*
X108379508Y-74632461D01*
X108496340Y-74448889D01*
X108678067Y-74524512D01*
X108790511Y-74705735D01*
X108907189Y-74851703D01*
X109054373Y-74970477D01*
X109224770Y-75044601D01*
X109411088Y-75056616D01*
X109592566Y-74966090D01*
X109729353Y-74813775D01*
X109836572Y-74638888D01*
X109918530Y-74496593D01*
X110064670Y-74456433D01*
X110186751Y-74605341D01*
X110288677Y-74772699D01*
X110399125Y-74951642D01*
X110539178Y-75106380D01*
X110687822Y-75084310D01*
X110687822Y-75084315D01*
X110687822Y-75084315D01*
G37*
X110687822Y-75084315D02*
X110684653Y-74871827D01*
X110574449Y-74681148D01*
X110434558Y-74460010D01*
X110278340Y-74250190D01*
X110095661Y-74063295D01*
X109876258Y-74098327D01*
X109727264Y-74271314D01*
X109619840Y-74438324D01*
X109510167Y-74603872D01*
X109388542Y-74760708D01*
X109171760Y-74707983D01*
X109019946Y-74533646D01*
X108901262Y-74355626D01*
X108771633Y-74185492D01*
X108607601Y-74049746D01*
X108411388Y-74095003D01*
X108286746Y-74255709D01*
X108164165Y-74438299D01*
X108022996Y-74606818D01*
X107858525Y-74752449D01*
X107852900Y-74875626D01*
X107950462Y-74960413D01*
X108071648Y-74937659D01*
X108238123Y-74797785D01*
X108379508Y-74632461D01*
X108496340Y-74448889D01*
X108678067Y-74524512D01*
X108790511Y-74705735D01*
X108907189Y-74851703D01*
X109054373Y-74970477D01*
X109224770Y-75044601D01*
X109411088Y-75056616D01*
X109592566Y-74966090D01*
X109729353Y-74813775D01*
X109836572Y-74638888D01*
X109918530Y-74496593D01*
X110064670Y-74456433D01*
X110186751Y-74605341D01*
X110288677Y-74772699D01*
X110399125Y-74951642D01*
X110539178Y-75106380D01*
X110687822Y-75084310D01*
X110687822Y-75084315D01*
G36*
X117693274Y-75141774D02*
X117768171Y-74968694D01*
X117688504Y-74789133D01*
X117569000Y-74602198D01*
X117447026Y-74416014D01*
X117311863Y-74240549D01*
X117152791Y-74085770D01*
X116942065Y-74113175D01*
X116796317Y-74275701D01*
X116686327Y-74445139D01*
X116575527Y-74614055D01*
X116457520Y-74777964D01*
X116254056Y-74748866D01*
X116106283Y-74595642D01*
X115980578Y-74406637D01*
X115846117Y-74223773D01*
X115678017Y-74072586D01*
X115463424Y-74126450D01*
X115324353Y-74306279D01*
X115211656Y-74476317D01*
X115079294Y-74631357D01*
X114920172Y-74758286D01*
X114905635Y-74883758D01*
X115001575Y-74975909D01*
X115126356Y-74956321D01*
X115300795Y-74813351D01*
X115446637Y-74640861D01*
X115572674Y-74453240D01*
X115727209Y-74537332D01*
X115824507Y-74701130D01*
X115985169Y-74892091D01*
X116189411Y-75035031D01*
X116430814Y-75087142D01*
X116607936Y-75021489D01*
X116744726Y-74889125D01*
X116849006Y-74728837D01*
X116919043Y-74607354D01*
X116997056Y-74490973D01*
X117155138Y-74505586D01*
X117259358Y-74646166D01*
X117387645Y-74856249D01*
X117521495Y-75062627D01*
X117693274Y-75141774D01*
X117693274Y-75141774D01*
G37*
X117693274Y-75141774D02*
X117768171Y-74968694D01*
X117688504Y-74789133D01*
X117569000Y-74602198D01*
X117447026Y-74416014D01*
X117311863Y-74240549D01*
X117152791Y-74085770D01*
X116942065Y-74113175D01*
X116796317Y-74275701D01*
X116686327Y-74445139D01*
X116575527Y-74614055D01*
X116457520Y-74777964D01*
X116254056Y-74748866D01*
X116106283Y-74595642D01*
X115980578Y-74406637D01*
X115846117Y-74223773D01*
X115678017Y-74072586D01*
X115463424Y-74126450D01*
X115324353Y-74306279D01*
X115211656Y-74476317D01*
X115079294Y-74631357D01*
X114920172Y-74758286D01*
X114905635Y-74883758D01*
X115001575Y-74975909D01*
X115126356Y-74956321D01*
X115300795Y-74813351D01*
X115446637Y-74640861D01*
X115572674Y-74453240D01*
X115727209Y-74537332D01*
X115824507Y-74701130D01*
X115985169Y-74892091D01*
X116189411Y-75035031D01*
X116430814Y-75087142D01*
X116607936Y-75021489D01*
X116744726Y-74889125D01*
X116849006Y-74728837D01*
X116919043Y-74607354D01*
X116997056Y-74490973D01*
X117155138Y-74505586D01*
X117259358Y-74646166D01*
X117387645Y-74856249D01*
X117521495Y-75062627D01*
X117693274Y-75141774D01*
G04 #@! TD*
D11*
G04 #@! TO.N,GND*
X108250000Y-88000000D03*
X108250000Y-85500000D03*
X112500000Y-83500000D03*
X115500000Y-83500000D03*
X120000000Y-74500000D03*
X117250000Y-67040000D03*
X111250000Y-65000000D03*
X103000000Y-72750000D03*
X104500000Y-76500000D03*
X103250000Y-67500000D03*
X109500000Y-57200000D03*
X113500000Y-55250000D03*
X110000000Y-73000000D03*
X108000000Y-55250000D03*
G04 #@! TO.N,/RESET*
X117750000Y-65000000D03*
X114500000Y-70750000D03*
G04 #@! TO.N,+5V*
X115750000Y-87750000D03*
X111000000Y-85500000D03*
G04 #@! TO.N,/SWCLK*
X119180000Y-58750000D03*
X119250000Y-77000000D03*
G04 #@! TO.N,/SWDIO*
X115250000Y-79000000D03*
X120500000Y-63750000D03*
G04 #@! TO.N,/USART1_TX*
X115750000Y-73000000D03*
X107000000Y-57500000D03*
G04 #@! TO.N,/USART1_RX*
X116750000Y-73000000D03*
X103250000Y-59250000D03*
G04 #@! TO.N,/PB0*
X105500000Y-66250000D03*
X109250000Y-76000000D03*
G04 #@! TO.N,/PB1*
X105250000Y-75500000D03*
X105250000Y-63750000D03*
G04 #@! TO.N,/BUTTON*
X116750000Y-72000000D03*
X111600000Y-61000000D03*
G04 #@! TO.N,/SPI1_SCK*
X113750000Y-73500000D03*
X107500000Y-56250000D03*
G04 #@! TO.N,/SPI1_MOSI*
X114500000Y-73000000D03*
X108500000Y-52500000D03*
G04 #@! TD*
D12*
G04 #@! TO.N,/RESET*
X117750000Y-65000000D02*
X117750000Y-67500000D01*
X117750000Y-67500000D02*
X114500000Y-70750000D01*
G04 #@! TO.N,+5V*
X115750000Y-87750000D02*
X113500000Y-85500000D01*
X113500000Y-85500000D02*
X111000000Y-85500000D01*
G04 #@! TO.N,/SWCLK*
X119180000Y-58750000D02*
X119180000Y-76930000D01*
X119180000Y-76930000D02*
X119250000Y-77000000D01*
G04 #@! TO.N,/SWDIO*
X117960402Y-79000000D02*
X120500000Y-76460402D01*
X115250000Y-79000000D02*
X117960402Y-79000000D01*
X120500000Y-76460402D02*
X120500000Y-63750000D01*
G04 #@! TO.N,/USART1_TX*
X113539598Y-74000000D02*
X113000000Y-73460402D01*
X115750000Y-73000000D02*
X114750000Y-74000000D01*
X114750000Y-74000000D02*
X113539598Y-74000000D01*
X107000000Y-66009130D02*
X107000000Y-57500000D01*
X113000000Y-73460402D02*
X113000000Y-72009130D01*
X113000000Y-72009130D02*
X107000000Y-66009130D01*
G04 #@! TO.N,/USART1_RX*
X106639990Y-62639990D02*
X103250000Y-59250000D01*
X118500000Y-74750000D02*
X118500000Y-76000000D01*
X116750000Y-73000000D02*
X118500000Y-74750000D01*
X118500000Y-76000000D02*
X118250000Y-76250000D01*
X115280468Y-76250000D02*
X106639990Y-67609522D01*
X118250000Y-76250000D02*
X115280468Y-76250000D01*
X106639990Y-67609522D02*
X106639990Y-62639990D01*
G04 #@! TO.N,/PB0*
X105500000Y-66250000D02*
X105500000Y-67000000D01*
X105500000Y-67000000D02*
X113750000Y-75250000D01*
X113750000Y-75250000D02*
X113750000Y-75750000D01*
X113750000Y-75750000D02*
X109500000Y-75750000D01*
X109500000Y-75750000D02*
X109250000Y-76000000D01*
G04 #@! TO.N,/PB1*
X105019999Y-63980001D02*
X105250000Y-63750000D01*
X105250000Y-75500000D02*
X105019999Y-75269999D01*
X105019999Y-75269999D02*
X105019999Y-63980001D01*
G04 #@! TO.N,/BUTTON*
X114269599Y-71230001D02*
X109500000Y-66460402D01*
X114690403Y-71230001D02*
X114269599Y-71230001D01*
X116269999Y-72809597D02*
X114690403Y-71230001D01*
X116750000Y-72000000D02*
X116269999Y-72480001D01*
X116269999Y-72480001D02*
X116269999Y-72809597D01*
X109500000Y-63100000D02*
X111600000Y-61000000D01*
X109500000Y-66460402D02*
X109500000Y-63100000D01*
G04 #@! TO.N,/SPI1_SCK*
X107500000Y-56250000D02*
X107500000Y-66000000D01*
X113750000Y-72250000D02*
X113750000Y-73500000D01*
X107500000Y-66000000D02*
X113750000Y-72250000D01*
G04 #@! TO.N,/SPI1_MOSI*
X107879565Y-65870435D02*
X108500000Y-65250000D01*
X108500000Y-65250000D02*
X108500000Y-52500000D01*
X114110009Y-72100879D02*
X107879565Y-65870435D01*
X114500000Y-72490870D02*
X114110009Y-72100879D01*
X114500000Y-73000000D02*
X114500000Y-72490870D01*
G04 #@! TD*
D13*
G04 #@! TO.N,GND*
G36*
X107900000Y-52619347D02*
X107991344Y-52839873D01*
X108020001Y-52868530D01*
X108020001Y-55937516D01*
X108008656Y-55910127D01*
X107839873Y-55741344D01*
X107619347Y-55650000D01*
X107380653Y-55650000D01*
X107160127Y-55741344D01*
X106991344Y-55910127D01*
X106900000Y-56130653D01*
X106900000Y-56369347D01*
X106991344Y-56589873D01*
X107020000Y-56618529D01*
X107020000Y-56900000D01*
X106880653Y-56900000D01*
X106660127Y-56991344D01*
X106491344Y-57160127D01*
X106400000Y-57380653D01*
X106400000Y-57619347D01*
X106491344Y-57839873D01*
X106520001Y-57868530D01*
X106520000Y-61841178D01*
X103850000Y-59171179D01*
X103850000Y-59130653D01*
X103758656Y-58910127D01*
X103589873Y-58741344D01*
X103369347Y-58650000D01*
X103130653Y-58650000D01*
X102910127Y-58741344D01*
X102741344Y-58910127D01*
X102650000Y-59130653D01*
X102650000Y-59369347D01*
X102741344Y-59589873D01*
X102910127Y-59758656D01*
X103130653Y-59850000D01*
X103171179Y-59850000D01*
X106159991Y-62838814D01*
X106159990Y-66981169D01*
X105980000Y-66801179D01*
X105980000Y-66618529D01*
X106008656Y-66589873D01*
X106100000Y-66369347D01*
X106100000Y-66130653D01*
X106008656Y-65910127D01*
X105839873Y-65741344D01*
X105619347Y-65650000D01*
X105499999Y-65650000D01*
X105499999Y-64295883D01*
X105589873Y-64258656D01*
X105758656Y-64089873D01*
X105850000Y-63869347D01*
X105850000Y-63630653D01*
X105758656Y-63410127D01*
X105589873Y-63241344D01*
X105369347Y-63150000D01*
X105130653Y-63150000D01*
X104910127Y-63241344D01*
X104741344Y-63410127D01*
X104650000Y-63630653D01*
X104650000Y-63669770D01*
X104584373Y-63767988D01*
X104567851Y-63792715D01*
X104530597Y-63980001D01*
X104540000Y-64027272D01*
X104539999Y-75222733D01*
X104530597Y-75269999D01*
X104539999Y-75317265D01*
X104539999Y-75317269D01*
X104567850Y-75457284D01*
X104650000Y-75580231D01*
X104650000Y-75619347D01*
X104741344Y-75839873D01*
X104910127Y-76008656D01*
X105130653Y-76100000D01*
X105369347Y-76100000D01*
X105589873Y-76008656D01*
X105758656Y-75839873D01*
X105850000Y-75619347D01*
X105850000Y-75380653D01*
X105758656Y-75160127D01*
X105589873Y-74991344D01*
X105499999Y-74954117D01*
X105499999Y-67678820D01*
X113091178Y-75270000D01*
X111036628Y-75270000D01*
X111058192Y-75237727D01*
X111058785Y-75234743D01*
X111060439Y-75232187D01*
X111065270Y-75205852D01*
X111076706Y-75181664D01*
X111079112Y-75132558D01*
X111088708Y-75084315D01*
X111088708Y-75084310D01*
X111088115Y-75081327D01*
X111088663Y-75078337D01*
X111085494Y-74865849D01*
X111080555Y-74842821D01*
X111082085Y-74819320D01*
X111064288Y-74766968D01*
X111052694Y-74712909D01*
X111039321Y-74693527D01*
X111031740Y-74671227D01*
X110921535Y-74480547D01*
X110916164Y-74474429D01*
X110913238Y-74466832D01*
X110773347Y-74245693D01*
X110762723Y-74234524D01*
X110756108Y-74220605D01*
X110599891Y-74010785D01*
X110579801Y-73992645D01*
X110565024Y-73969973D01*
X110382345Y-73783078D01*
X110354131Y-73763757D01*
X110330889Y-73738677D01*
X110290219Y-73719990D01*
X110253288Y-73694699D01*
X110219827Y-73687645D01*
X110188757Y-73673369D01*
X110144033Y-73671668D01*
X110100234Y-73662435D01*
X110066620Y-73668724D01*
X110032452Y-73667424D01*
X109813049Y-73702455D01*
X109755185Y-73723885D01*
X109695747Y-73740382D01*
X109682334Y-73750866D01*
X109666368Y-73756779D01*
X109621117Y-73798713D01*
X109572508Y-73836707D01*
X109423514Y-74009693D01*
X109409658Y-74034196D01*
X109390103Y-74054445D01*
X109288053Y-74213102D01*
X109234816Y-74133249D01*
X109225765Y-74124179D01*
X109220137Y-74112668D01*
X109090508Y-73942534D01*
X109056150Y-73912195D01*
X109027220Y-73876648D01*
X108863188Y-73740901D01*
X108839614Y-73728176D01*
X108820108Y-73709819D01*
X108771389Y-73691350D01*
X108725543Y-73666603D01*
X108698896Y-73663868D01*
X108673847Y-73654372D01*
X108621769Y-73655952D01*
X108569942Y-73650633D01*
X108544278Y-73658304D01*
X108517502Y-73659116D01*
X108321288Y-73704373D01*
X108268087Y-73728325D01*
X108212746Y-73746792D01*
X108197302Y-73760195D01*
X108178660Y-73768588D01*
X108138682Y-73811068D01*
X108094612Y-73849314D01*
X107969970Y-74010021D01*
X107963759Y-74022453D01*
X107953909Y-74032260D01*
X107843187Y-74197186D01*
X107734871Y-74326486D01*
X107592768Y-74452311D01*
X107590909Y-74454758D01*
X107588283Y-74456344D01*
X107543682Y-74516917D01*
X107498140Y-74576859D01*
X107497359Y-74579829D01*
X107495539Y-74582301D01*
X107477505Y-74655367D01*
X107458377Y-74728138D01*
X107458792Y-74731179D01*
X107458056Y-74734162D01*
X107452431Y-74857338D01*
X107455941Y-74880452D01*
X107452994Y-74903643D01*
X107467590Y-74957151D01*
X107475917Y-75011983D01*
X107488005Y-75031993D01*
X107494157Y-75054547D01*
X107528119Y-75098398D01*
X107556795Y-75145868D01*
X107575619Y-75159728D01*
X107589935Y-75178213D01*
X107687496Y-75263000D01*
X107707811Y-75274607D01*
X107724172Y-75291324D01*
X107775162Y-75313090D01*
X107823308Y-75340599D01*
X107846517Y-75343548D01*
X107868031Y-75352732D01*
X107923475Y-75353328D01*
X107978478Y-75360318D01*
X108001045Y-75354162D01*
X108024440Y-75354414D01*
X108145626Y-75331660D01*
X108168231Y-75322580D01*
X108192446Y-75319912D01*
X108240209Y-75293668D01*
X108290772Y-75273358D01*
X108308179Y-75256321D01*
X108329533Y-75244588D01*
X108496008Y-75104713D01*
X108516741Y-75078846D01*
X108542791Y-75058337D01*
X108551242Y-75048455D01*
X108594049Y-75102008D01*
X108627448Y-75130146D01*
X108655433Y-75163678D01*
X108802617Y-75282452D01*
X108850269Y-75307420D01*
X108894460Y-75338087D01*
X109064857Y-75412211D01*
X109088677Y-75417387D01*
X108910127Y-75491344D01*
X108741344Y-75660127D01*
X108650000Y-75880653D01*
X108650000Y-76119347D01*
X108741344Y-76339873D01*
X108910127Y-76508656D01*
X109130653Y-76600000D01*
X109369347Y-76600000D01*
X109589873Y-76508656D01*
X109758656Y-76339873D01*
X109804166Y-76230000D01*
X113702729Y-76230000D01*
X113750000Y-76239403D01*
X113797271Y-76230000D01*
X113857589Y-76218002D01*
X113937286Y-76202149D01*
X114096060Y-76096060D01*
X114202149Y-75937286D01*
X114216547Y-75864901D01*
X114907631Y-76555984D01*
X114934408Y-76596060D01*
X115093182Y-76702149D01*
X115233197Y-76730000D01*
X115233201Y-76730000D01*
X115280467Y-76739402D01*
X115327734Y-76730000D01*
X118202734Y-76730000D01*
X118250000Y-76739402D01*
X118297266Y-76730000D01*
X118297271Y-76730000D01*
X118437286Y-76702149D01*
X118596060Y-76596060D01*
X118622839Y-76555982D01*
X118700001Y-76478820D01*
X118700001Y-76759939D01*
X118650000Y-76880653D01*
X118650000Y-77119347D01*
X118741344Y-77339873D01*
X118841526Y-77440055D01*
X117761581Y-78520000D01*
X115618529Y-78520000D01*
X115589873Y-78491344D01*
X115369347Y-78400000D01*
X115130653Y-78400000D01*
X114910127Y-78491344D01*
X114741344Y-78660127D01*
X114650000Y-78880653D01*
X114650000Y-79119347D01*
X114741344Y-79339873D01*
X114910127Y-79508656D01*
X115130653Y-79600000D01*
X115369347Y-79600000D01*
X115589873Y-79508656D01*
X115618529Y-79480000D01*
X117913136Y-79480000D01*
X117960402Y-79489402D01*
X118007668Y-79480000D01*
X118007673Y-79480000D01*
X118147688Y-79452149D01*
X118306462Y-79346060D01*
X118333241Y-79305982D01*
X120805985Y-76833239D01*
X120846060Y-76806462D01*
X120952149Y-76647688D01*
X120980000Y-76507673D01*
X120980000Y-76507669D01*
X120989402Y-76460402D01*
X120980000Y-76413136D01*
X120980000Y-69126721D01*
X120999037Y-69156788D01*
X121031469Y-69215730D01*
X121041380Y-69223665D01*
X121048173Y-69234393D01*
X121103168Y-69273130D01*
X121124338Y-69290078D01*
X121135324Y-69295780D01*
X121178269Y-69326029D01*
X121205313Y-69332104D01*
X121315111Y-69389089D01*
X121448008Y-69482847D01*
X121583897Y-69603975D01*
X121720150Y-69750856D01*
X121854436Y-69920993D01*
X121984892Y-70111488D01*
X122110029Y-70319243D01*
X122228678Y-70541140D01*
X122339857Y-70774004D01*
X122442784Y-71014770D01*
X122536724Y-71260247D01*
X122621092Y-71507432D01*
X122695274Y-71753052D01*
X122758790Y-71994071D01*
X122811153Y-72227206D01*
X122851934Y-72449048D01*
X122880798Y-72656041D01*
X122897547Y-72844158D01*
X122902345Y-73009907D01*
X122892896Y-73239418D01*
X122868491Y-73468358D01*
X122830215Y-73697097D01*
X122779169Y-73925901D01*
X122716479Y-74154987D01*
X122643335Y-74384476D01*
X122560998Y-74614405D01*
X122470773Y-74844836D01*
X122374041Y-75075782D01*
X122272163Y-75307403D01*
X122166660Y-75539609D01*
X122058560Y-75773476D01*
X121966967Y-75971147D01*
X121966410Y-75971918D01*
X121950411Y-76006878D01*
X121934243Y-76041770D01*
X121934019Y-76042694D01*
X121845664Y-76235757D01*
X121776074Y-76378360D01*
X121688287Y-76540028D01*
X121581688Y-76722787D01*
X121459040Y-76922524D01*
X121322793Y-77135983D01*
X121175497Y-77359883D01*
X121019322Y-77591594D01*
X120856758Y-77828042D01*
X120689901Y-78066750D01*
X120521132Y-78304847D01*
X120352601Y-78539784D01*
X120186573Y-78768867D01*
X120025284Y-78989442D01*
X119870804Y-79199081D01*
X119760419Y-79347884D01*
X119743877Y-79360198D01*
X119713362Y-79411318D01*
X119701828Y-79426866D01*
X119693221Y-79445059D01*
X119662314Y-79496835D01*
X119659438Y-79516465D01*
X119650952Y-79534402D01*
X119647986Y-79594634D01*
X119645069Y-79614543D01*
X119646053Y-79633874D01*
X119643125Y-79693338D01*
X119650070Y-79712755D01*
X119777087Y-82207000D01*
X119773261Y-82577026D01*
X119769454Y-82926731D01*
X119764023Y-83241422D01*
X119755228Y-83523053D01*
X119741488Y-83772437D01*
X119721507Y-83989991D01*
X119694452Y-84176178D01*
X119660169Y-84331662D01*
X119619253Y-84458039D01*
X119572508Y-84558937D01*
X119519483Y-84640616D01*
X119456671Y-84710889D01*
X119377455Y-84776284D01*
X119274459Y-84839995D01*
X119141975Y-84902414D01*
X118976707Y-84962839D01*
X118777034Y-85020775D01*
X118542063Y-85076359D01*
X118271082Y-85130307D01*
X118034752Y-85171339D01*
X118031006Y-85170570D01*
X117956527Y-85184920D01*
X117921318Y-85191033D01*
X117917846Y-85192373D01*
X117874751Y-85200676D01*
X117844327Y-85220741D01*
X117810330Y-85233859D01*
X117778550Y-85264121D01*
X117741910Y-85288286D01*
X117721482Y-85318465D01*
X117695091Y-85343596D01*
X117677309Y-85383723D01*
X117652709Y-85420065D01*
X117645385Y-85455762D01*
X117630620Y-85489081D01*
X117629547Y-85532958D01*
X117628800Y-85536601D01*
X117628585Y-85572308D01*
X117626731Y-85648162D01*
X117628108Y-85651731D01*
X117611588Y-88400000D01*
X106491437Y-88400000D01*
X106491437Y-85549254D01*
X106499041Y-85502912D01*
X106482437Y-85432023D01*
X106472219Y-85380653D01*
X110400000Y-85380653D01*
X110400000Y-85619347D01*
X110491344Y-85839873D01*
X110660127Y-86008656D01*
X110880653Y-86100000D01*
X111119347Y-86100000D01*
X111339873Y-86008656D01*
X111368529Y-85980000D01*
X113301179Y-85980000D01*
X115150000Y-87828823D01*
X115150000Y-87869347D01*
X115241344Y-88089873D01*
X115410127Y-88258656D01*
X115630653Y-88350000D01*
X115869347Y-88350000D01*
X116089873Y-88258656D01*
X116258656Y-88089873D01*
X116350000Y-87869347D01*
X116350000Y-87630653D01*
X116258656Y-87410127D01*
X116089873Y-87241344D01*
X115869347Y-87150000D01*
X115828823Y-87150000D01*
X113872839Y-85194018D01*
X113846060Y-85153940D01*
X113687286Y-85047851D01*
X113547271Y-85020000D01*
X113547266Y-85020000D01*
X113500000Y-85010598D01*
X113452734Y-85020000D01*
X111368529Y-85020000D01*
X111339873Y-84991344D01*
X111119347Y-84900000D01*
X110880653Y-84900000D01*
X110660127Y-84991344D01*
X110491344Y-85160127D01*
X110400000Y-85380653D01*
X106472219Y-85380653D01*
X106468228Y-85360590D01*
X106464344Y-85354778D01*
X106462751Y-85347975D01*
X106420290Y-85288845D01*
X106379821Y-85228278D01*
X106374008Y-85224394D01*
X106369933Y-85218719D01*
X106308074Y-85180339D01*
X106247509Y-85139871D01*
X106240652Y-85138507D01*
X106234716Y-85134824D01*
X106162883Y-85123038D01*
X106091437Y-85108826D01*
X106045371Y-85117989D01*
X105860717Y-85124218D01*
X105860672Y-85124211D01*
X105822590Y-85125504D01*
X105782023Y-85126873D01*
X105781976Y-85126884D01*
X105582572Y-85133657D01*
X105362707Y-85140402D01*
X105160603Y-85145058D01*
X104976591Y-85146896D01*
X104810589Y-85145276D01*
X104662733Y-85139679D01*
X104533270Y-85129785D01*
X104422524Y-85115590D01*
X104330738Y-85097542D01*
X104257720Y-85076626D01*
X104202212Y-85054211D01*
X104161273Y-85031400D01*
X104130246Y-85007878D01*
X104103882Y-84980912D01*
X104078251Y-84945673D01*
X104051887Y-84896937D01*
X104025360Y-84830695D01*
X104000112Y-84744742D01*
X103977491Y-84638169D01*
X103958397Y-84510835D01*
X103943242Y-84362774D01*
X103932072Y-84194104D01*
X103924677Y-84004794D01*
X103920684Y-83794674D01*
X103919626Y-83563461D01*
X103920973Y-83310750D01*
X103924161Y-83036230D01*
X103928597Y-82739876D01*
X103933085Y-82458732D01*
X103933124Y-82458552D01*
X103933716Y-82419256D01*
X103934340Y-82380140D01*
X103934307Y-82379959D01*
X103938293Y-82115183D01*
X103938396Y-82114696D01*
X103938887Y-82075693D01*
X103939471Y-82036901D01*
X103939382Y-82036413D01*
X103943021Y-81747397D01*
X103943173Y-81746665D01*
X103943516Y-81708054D01*
X103944003Y-81669366D01*
X103943866Y-81668629D01*
X103946654Y-81354710D01*
X103946843Y-81353779D01*
X103947002Y-81315498D01*
X103947345Y-81276884D01*
X103947166Y-81275943D01*
X103948577Y-80936440D01*
X103948793Y-80935348D01*
X103948740Y-80897181D01*
X103948900Y-80858775D01*
X103948686Y-80857675D01*
X103948138Y-80460269D01*
X103950422Y-80387287D01*
X103933890Y-80343552D01*
X103924705Y-80297709D01*
X103884062Y-80237064D01*
X103737958Y-80002860D01*
X103585478Y-79756615D01*
X103431828Y-79506328D01*
X103278123Y-79253422D01*
X103126299Y-79000657D01*
X102977738Y-78749901D01*
X102834100Y-78503472D01*
X102697005Y-78263642D01*
X102568080Y-78032709D01*
X102448934Y-77812960D01*
X102341357Y-77607072D01*
X102247045Y-77417643D01*
X102167917Y-77247928D01*
X102105952Y-77101844D01*
X102060023Y-76976208D01*
X101993513Y-76775699D01*
X101993391Y-76774757D01*
X101981126Y-76738355D01*
X101969007Y-76701821D01*
X101968537Y-76700994D01*
X101898909Y-76494347D01*
X101816946Y-76250340D01*
X101737283Y-76007961D01*
X101661183Y-75766625D01*
X101590110Y-75526471D01*
X101525468Y-75287595D01*
X101468600Y-75050034D01*
X101420829Y-74813936D01*
X101383408Y-74579382D01*
X101357523Y-74346318D01*
X101344336Y-74114787D01*
X101344958Y-73884524D01*
X101360277Y-73658796D01*
X101382627Y-73515887D01*
X101422961Y-73353133D01*
X101481907Y-73170571D01*
X101558501Y-72972712D01*
X101651498Y-72763305D01*
X101759508Y-72545725D01*
X101881137Y-72322971D01*
X102014892Y-72098002D01*
X102159328Y-71873544D01*
X102312928Y-71652337D01*
X102474171Y-71437024D01*
X102641431Y-71230302D01*
X102813037Y-71034807D01*
X102987238Y-70853139D01*
X103162049Y-70687964D01*
X103335267Y-70541882D01*
X103504374Y-70417377D01*
X103666348Y-70316716D01*
X103817687Y-70241581D01*
X103954441Y-70192585D01*
X104094671Y-70164104D01*
X104160731Y-70155068D01*
X104206621Y-70128263D01*
X104255631Y-70107731D01*
X104274726Y-70088482D01*
X104298137Y-70074807D01*
X104330271Y-70032489D01*
X104367700Y-69994757D01*
X104377976Y-69969663D01*
X104394370Y-69948073D01*
X104407863Y-69896678D01*
X104428003Y-69847496D01*
X104427894Y-69820380D01*
X104434778Y-69794159D01*
X104427577Y-69741514D01*
X104427363Y-69688369D01*
X104416887Y-69663362D01*
X104413212Y-69636499D01*
X104386408Y-69590611D01*
X104365875Y-69541599D01*
X104346625Y-69522503D01*
X104332951Y-69499093D01*
X104290635Y-69466961D01*
X104252902Y-69429530D01*
X104191194Y-69404261D01*
X104142302Y-69380456D01*
X104141124Y-69379575D01*
X104106938Y-69363238D01*
X104072790Y-69346612D01*
X104071363Y-69346237D01*
X104043207Y-69332782D01*
X104042940Y-69332583D01*
X104007551Y-69315743D01*
X103972416Y-69298952D01*
X103972096Y-69298870D01*
X103907790Y-69268270D01*
X103807742Y-69220220D01*
X103707661Y-69171108D01*
X103608084Y-69120605D01*
X103509347Y-69068320D01*
X103411805Y-69013884D01*
X103315841Y-68956966D01*
X103221857Y-68897271D01*
X103130160Y-68834467D01*
X103041081Y-68768247D01*
X102954894Y-68698281D01*
X102871874Y-68624243D01*
X102792207Y-68545726D01*
X102716106Y-68462323D01*
X102643738Y-68373544D01*
X102575264Y-68278826D01*
X102510878Y-68177556D01*
X102450805Y-68069063D01*
X102395323Y-67952633D01*
X102344767Y-67827505D01*
X102299562Y-67692976D01*
X102260169Y-67548274D01*
X102227135Y-67392771D01*
X102201029Y-67225786D01*
X102182456Y-67046738D01*
X102172037Y-66855101D01*
X102170396Y-66650368D01*
X102178153Y-66432099D01*
X102195915Y-66199848D01*
X102224275Y-65953242D01*
X102263817Y-65691864D01*
X102315098Y-65415379D01*
X102378665Y-65123426D01*
X102455058Y-64815624D01*
X102544798Y-64491622D01*
X102648399Y-64151046D01*
X102766366Y-63793543D01*
X102899180Y-63418782D01*
X103047379Y-63026272D01*
X103211362Y-62615860D01*
X103391719Y-62186899D01*
X103584636Y-61748773D01*
X103615265Y-61690302D01*
X103620092Y-61636706D01*
X103631751Y-61584179D01*
X103627167Y-61558141D01*
X103629538Y-61531813D01*
X103613491Y-61480458D01*
X103604160Y-61427460D01*
X103568711Y-61371784D01*
X103472312Y-61195001D01*
X103371290Y-61007756D01*
X103272111Y-60821401D01*
X103175092Y-60636017D01*
X103080615Y-60451811D01*
X102989003Y-60268887D01*
X102900640Y-60087470D01*
X102815854Y-59907701D01*
X102734928Y-59729609D01*
X102658266Y-59553520D01*
X102586152Y-59379498D01*
X102518939Y-59207795D01*
X102456905Y-59038498D01*
X102400405Y-58871936D01*
X102349701Y-58708218D01*
X102305080Y-58547575D01*
X102266806Y-58390239D01*
X102235110Y-58236397D01*
X102210203Y-58086245D01*
X102192272Y-57940014D01*
X102181462Y-57797843D01*
X102177895Y-57659877D01*
X102181665Y-57526187D01*
X102192850Y-57396788D01*
X102211533Y-57271604D01*
X102237819Y-57150462D01*
X102271873Y-57033111D01*
X102313941Y-56919214D01*
X102364373Y-56808394D01*
X102423639Y-56700264D01*
X102492345Y-56594432D01*
X102571154Y-56490649D01*
X102660821Y-56388715D01*
X102762117Y-56288561D01*
X102875771Y-56190257D01*
X103002506Y-56093933D01*
X103142956Y-55999820D01*
X103297702Y-55908181D01*
X103467243Y-55819324D01*
X103652038Y-55733549D01*
X103852506Y-55651153D01*
X104068952Y-55572450D01*
X104301782Y-55497688D01*
X104551249Y-55427143D01*
X104817746Y-55361028D01*
X105101428Y-55299595D01*
X105402731Y-55243015D01*
X105721822Y-55191501D01*
X106059079Y-55145214D01*
X106378378Y-55108510D01*
X106417102Y-55111937D01*
X106456644Y-55099513D01*
X106457925Y-55099366D01*
X106494267Y-55087692D01*
X106568914Y-55064239D01*
X106569930Y-55063389D01*
X106571189Y-55062984D01*
X106630915Y-55012320D01*
X106690917Y-54962074D01*
X106691528Y-54960902D01*
X106692539Y-54960045D01*
X106728308Y-54890421D01*
X106745954Y-54856607D01*
X106746316Y-54855370D01*
X106765257Y-54818502D01*
X106768438Y-54779756D01*
X106826764Y-54580389D01*
X106902745Y-54354263D01*
X106986950Y-54132944D01*
X107079170Y-53916523D01*
X107179170Y-53705150D01*
X107286721Y-53498965D01*
X107401625Y-53298057D01*
X107523622Y-53102624D01*
X107652506Y-52912771D01*
X107788031Y-52728670D01*
X107900000Y-52588088D01*
X107900000Y-52619347D01*
X107900000Y-52619347D01*
G37*
X107900000Y-52619347D02*
X107991344Y-52839873D01*
X108020001Y-52868530D01*
X108020001Y-55937516D01*
X108008656Y-55910127D01*
X107839873Y-55741344D01*
X107619347Y-55650000D01*
X107380653Y-55650000D01*
X107160127Y-55741344D01*
X106991344Y-55910127D01*
X106900000Y-56130653D01*
X106900000Y-56369347D01*
X106991344Y-56589873D01*
X107020000Y-56618529D01*
X107020000Y-56900000D01*
X106880653Y-56900000D01*
X106660127Y-56991344D01*
X106491344Y-57160127D01*
X106400000Y-57380653D01*
X106400000Y-57619347D01*
X106491344Y-57839873D01*
X106520001Y-57868530D01*
X106520000Y-61841178D01*
X103850000Y-59171179D01*
X103850000Y-59130653D01*
X103758656Y-58910127D01*
X103589873Y-58741344D01*
X103369347Y-58650000D01*
X103130653Y-58650000D01*
X102910127Y-58741344D01*
X102741344Y-58910127D01*
X102650000Y-59130653D01*
X102650000Y-59369347D01*
X102741344Y-59589873D01*
X102910127Y-59758656D01*
X103130653Y-59850000D01*
X103171179Y-59850000D01*
X106159991Y-62838814D01*
X106159990Y-66981169D01*
X105980000Y-66801179D01*
X105980000Y-66618529D01*
X106008656Y-66589873D01*
X106100000Y-66369347D01*
X106100000Y-66130653D01*
X106008656Y-65910127D01*
X105839873Y-65741344D01*
X105619347Y-65650000D01*
X105499999Y-65650000D01*
X105499999Y-64295883D01*
X105589873Y-64258656D01*
X105758656Y-64089873D01*
X105850000Y-63869347D01*
X105850000Y-63630653D01*
X105758656Y-63410127D01*
X105589873Y-63241344D01*
X105369347Y-63150000D01*
X105130653Y-63150000D01*
X104910127Y-63241344D01*
X104741344Y-63410127D01*
X104650000Y-63630653D01*
X104650000Y-63669770D01*
X104584373Y-63767988D01*
X104567851Y-63792715D01*
X104530597Y-63980001D01*
X104540000Y-64027272D01*
X104539999Y-75222733D01*
X104530597Y-75269999D01*
X104539999Y-75317265D01*
X104539999Y-75317269D01*
X104567850Y-75457284D01*
X104650000Y-75580231D01*
X104650000Y-75619347D01*
X104741344Y-75839873D01*
X104910127Y-76008656D01*
X105130653Y-76100000D01*
X105369347Y-76100000D01*
X105589873Y-76008656D01*
X105758656Y-75839873D01*
X105850000Y-75619347D01*
X105850000Y-75380653D01*
X105758656Y-75160127D01*
X105589873Y-74991344D01*
X105499999Y-74954117D01*
X105499999Y-67678820D01*
X113091178Y-75270000D01*
X111036628Y-75270000D01*
X111058192Y-75237727D01*
X111058785Y-75234743D01*
X111060439Y-75232187D01*
X111065270Y-75205852D01*
X111076706Y-75181664D01*
X111079112Y-75132558D01*
X111088708Y-75084315D01*
X111088708Y-75084310D01*
X111088115Y-75081327D01*
X111088663Y-75078337D01*
X111085494Y-74865849D01*
X111080555Y-74842821D01*
X111082085Y-74819320D01*
X111064288Y-74766968D01*
X111052694Y-74712909D01*
X111039321Y-74693527D01*
X111031740Y-74671227D01*
X110921535Y-74480547D01*
X110916164Y-74474429D01*
X110913238Y-74466832D01*
X110773347Y-74245693D01*
X110762723Y-74234524D01*
X110756108Y-74220605D01*
X110599891Y-74010785D01*
X110579801Y-73992645D01*
X110565024Y-73969973D01*
X110382345Y-73783078D01*
X110354131Y-73763757D01*
X110330889Y-73738677D01*
X110290219Y-73719990D01*
X110253288Y-73694699D01*
X110219827Y-73687645D01*
X110188757Y-73673369D01*
X110144033Y-73671668D01*
X110100234Y-73662435D01*
X110066620Y-73668724D01*
X110032452Y-73667424D01*
X109813049Y-73702455D01*
X109755185Y-73723885D01*
X109695747Y-73740382D01*
X109682334Y-73750866D01*
X109666368Y-73756779D01*
X109621117Y-73798713D01*
X109572508Y-73836707D01*
X109423514Y-74009693D01*
X109409658Y-74034196D01*
X109390103Y-74054445D01*
X109288053Y-74213102D01*
X109234816Y-74133249D01*
X109225765Y-74124179D01*
X109220137Y-74112668D01*
X109090508Y-73942534D01*
X109056150Y-73912195D01*
X109027220Y-73876648D01*
X108863188Y-73740901D01*
X108839614Y-73728176D01*
X108820108Y-73709819D01*
X108771389Y-73691350D01*
X108725543Y-73666603D01*
X108698896Y-73663868D01*
X108673847Y-73654372D01*
X108621769Y-73655952D01*
X108569942Y-73650633D01*
X108544278Y-73658304D01*
X108517502Y-73659116D01*
X108321288Y-73704373D01*
X108268087Y-73728325D01*
X108212746Y-73746792D01*
X108197302Y-73760195D01*
X108178660Y-73768588D01*
X108138682Y-73811068D01*
X108094612Y-73849314D01*
X107969970Y-74010021D01*
X107963759Y-74022453D01*
X107953909Y-74032260D01*
X107843187Y-74197186D01*
X107734871Y-74326486D01*
X107592768Y-74452311D01*
X107590909Y-74454758D01*
X107588283Y-74456344D01*
X107543682Y-74516917D01*
X107498140Y-74576859D01*
X107497359Y-74579829D01*
X107495539Y-74582301D01*
X107477505Y-74655367D01*
X107458377Y-74728138D01*
X107458792Y-74731179D01*
X107458056Y-74734162D01*
X107452431Y-74857338D01*
X107455941Y-74880452D01*
X107452994Y-74903643D01*
X107467590Y-74957151D01*
X107475917Y-75011983D01*
X107488005Y-75031993D01*
X107494157Y-75054547D01*
X107528119Y-75098398D01*
X107556795Y-75145868D01*
X107575619Y-75159728D01*
X107589935Y-75178213D01*
X107687496Y-75263000D01*
X107707811Y-75274607D01*
X107724172Y-75291324D01*
X107775162Y-75313090D01*
X107823308Y-75340599D01*
X107846517Y-75343548D01*
X107868031Y-75352732D01*
X107923475Y-75353328D01*
X107978478Y-75360318D01*
X108001045Y-75354162D01*
X108024440Y-75354414D01*
X108145626Y-75331660D01*
X108168231Y-75322580D01*
X108192446Y-75319912D01*
X108240209Y-75293668D01*
X108290772Y-75273358D01*
X108308179Y-75256321D01*
X108329533Y-75244588D01*
X108496008Y-75104713D01*
X108516741Y-75078846D01*
X108542791Y-75058337D01*
X108551242Y-75048455D01*
X108594049Y-75102008D01*
X108627448Y-75130146D01*
X108655433Y-75163678D01*
X108802617Y-75282452D01*
X108850269Y-75307420D01*
X108894460Y-75338087D01*
X109064857Y-75412211D01*
X109088677Y-75417387D01*
X108910127Y-75491344D01*
X108741344Y-75660127D01*
X108650000Y-75880653D01*
X108650000Y-76119347D01*
X108741344Y-76339873D01*
X108910127Y-76508656D01*
X109130653Y-76600000D01*
X109369347Y-76600000D01*
X109589873Y-76508656D01*
X109758656Y-76339873D01*
X109804166Y-76230000D01*
X113702729Y-76230000D01*
X113750000Y-76239403D01*
X113797271Y-76230000D01*
X113857589Y-76218002D01*
X113937286Y-76202149D01*
X114096060Y-76096060D01*
X114202149Y-75937286D01*
X114216547Y-75864901D01*
X114907631Y-76555984D01*
X114934408Y-76596060D01*
X115093182Y-76702149D01*
X115233197Y-76730000D01*
X115233201Y-76730000D01*
X115280467Y-76739402D01*
X115327734Y-76730000D01*
X118202734Y-76730000D01*
X118250000Y-76739402D01*
X118297266Y-76730000D01*
X118297271Y-76730000D01*
X118437286Y-76702149D01*
X118596060Y-76596060D01*
X118622839Y-76555982D01*
X118700001Y-76478820D01*
X118700001Y-76759939D01*
X118650000Y-76880653D01*
X118650000Y-77119347D01*
X118741344Y-77339873D01*
X118841526Y-77440055D01*
X117761581Y-78520000D01*
X115618529Y-78520000D01*
X115589873Y-78491344D01*
X115369347Y-78400000D01*
X115130653Y-78400000D01*
X114910127Y-78491344D01*
X114741344Y-78660127D01*
X114650000Y-78880653D01*
X114650000Y-79119347D01*
X114741344Y-79339873D01*
X114910127Y-79508656D01*
X115130653Y-79600000D01*
X115369347Y-79600000D01*
X115589873Y-79508656D01*
X115618529Y-79480000D01*
X117913136Y-79480000D01*
X117960402Y-79489402D01*
X118007668Y-79480000D01*
X118007673Y-79480000D01*
X118147688Y-79452149D01*
X118306462Y-79346060D01*
X118333241Y-79305982D01*
X120805985Y-76833239D01*
X120846060Y-76806462D01*
X120952149Y-76647688D01*
X120980000Y-76507673D01*
X120980000Y-76507669D01*
X120989402Y-76460402D01*
X120980000Y-76413136D01*
X120980000Y-69126721D01*
X120999037Y-69156788D01*
X121031469Y-69215730D01*
X121041380Y-69223665D01*
X121048173Y-69234393D01*
X121103168Y-69273130D01*
X121124338Y-69290078D01*
X121135324Y-69295780D01*
X121178269Y-69326029D01*
X121205313Y-69332104D01*
X121315111Y-69389089D01*
X121448008Y-69482847D01*
X121583897Y-69603975D01*
X121720150Y-69750856D01*
X121854436Y-69920993D01*
X121984892Y-70111488D01*
X122110029Y-70319243D01*
X122228678Y-70541140D01*
X122339857Y-70774004D01*
X122442784Y-71014770D01*
X122536724Y-71260247D01*
X122621092Y-71507432D01*
X122695274Y-71753052D01*
X122758790Y-71994071D01*
X122811153Y-72227206D01*
X122851934Y-72449048D01*
X122880798Y-72656041D01*
X122897547Y-72844158D01*
X122902345Y-73009907D01*
X122892896Y-73239418D01*
X122868491Y-73468358D01*
X122830215Y-73697097D01*
X122779169Y-73925901D01*
X122716479Y-74154987D01*
X122643335Y-74384476D01*
X122560998Y-74614405D01*
X122470773Y-74844836D01*
X122374041Y-75075782D01*
X122272163Y-75307403D01*
X122166660Y-75539609D01*
X122058560Y-75773476D01*
X121966967Y-75971147D01*
X121966410Y-75971918D01*
X121950411Y-76006878D01*
X121934243Y-76041770D01*
X121934019Y-76042694D01*
X121845664Y-76235757D01*
X121776074Y-76378360D01*
X121688287Y-76540028D01*
X121581688Y-76722787D01*
X121459040Y-76922524D01*
X121322793Y-77135983D01*
X121175497Y-77359883D01*
X121019322Y-77591594D01*
X120856758Y-77828042D01*
X120689901Y-78066750D01*
X120521132Y-78304847D01*
X120352601Y-78539784D01*
X120186573Y-78768867D01*
X120025284Y-78989442D01*
X119870804Y-79199081D01*
X119760419Y-79347884D01*
X119743877Y-79360198D01*
X119713362Y-79411318D01*
X119701828Y-79426866D01*
X119693221Y-79445059D01*
X119662314Y-79496835D01*
X119659438Y-79516465D01*
X119650952Y-79534402D01*
X119647986Y-79594634D01*
X119645069Y-79614543D01*
X119646053Y-79633874D01*
X119643125Y-79693338D01*
X119650070Y-79712755D01*
X119777087Y-82207000D01*
X119773261Y-82577026D01*
X119769454Y-82926731D01*
X119764023Y-83241422D01*
X119755228Y-83523053D01*
X119741488Y-83772437D01*
X119721507Y-83989991D01*
X119694452Y-84176178D01*
X119660169Y-84331662D01*
X119619253Y-84458039D01*
X119572508Y-84558937D01*
X119519483Y-84640616D01*
X119456671Y-84710889D01*
X119377455Y-84776284D01*
X119274459Y-84839995D01*
X119141975Y-84902414D01*
X118976707Y-84962839D01*
X118777034Y-85020775D01*
X118542063Y-85076359D01*
X118271082Y-85130307D01*
X118034752Y-85171339D01*
X118031006Y-85170570D01*
X117956527Y-85184920D01*
X117921318Y-85191033D01*
X117917846Y-85192373D01*
X117874751Y-85200676D01*
X117844327Y-85220741D01*
X117810330Y-85233859D01*
X117778550Y-85264121D01*
X117741910Y-85288286D01*
X117721482Y-85318465D01*
X117695091Y-85343596D01*
X117677309Y-85383723D01*
X117652709Y-85420065D01*
X117645385Y-85455762D01*
X117630620Y-85489081D01*
X117629547Y-85532958D01*
X117628800Y-85536601D01*
X117628585Y-85572308D01*
X117626731Y-85648162D01*
X117628108Y-85651731D01*
X117611588Y-88400000D01*
X106491437Y-88400000D01*
X106491437Y-85549254D01*
X106499041Y-85502912D01*
X106482437Y-85432023D01*
X106472219Y-85380653D01*
X110400000Y-85380653D01*
X110400000Y-85619347D01*
X110491344Y-85839873D01*
X110660127Y-86008656D01*
X110880653Y-86100000D01*
X111119347Y-86100000D01*
X111339873Y-86008656D01*
X111368529Y-85980000D01*
X113301179Y-85980000D01*
X115150000Y-87828823D01*
X115150000Y-87869347D01*
X115241344Y-88089873D01*
X115410127Y-88258656D01*
X115630653Y-88350000D01*
X115869347Y-88350000D01*
X116089873Y-88258656D01*
X116258656Y-88089873D01*
X116350000Y-87869347D01*
X116350000Y-87630653D01*
X116258656Y-87410127D01*
X116089873Y-87241344D01*
X115869347Y-87150000D01*
X115828823Y-87150000D01*
X113872839Y-85194018D01*
X113846060Y-85153940D01*
X113687286Y-85047851D01*
X113547271Y-85020000D01*
X113547266Y-85020000D01*
X113500000Y-85010598D01*
X113452734Y-85020000D01*
X111368529Y-85020000D01*
X111339873Y-84991344D01*
X111119347Y-84900000D01*
X110880653Y-84900000D01*
X110660127Y-84991344D01*
X110491344Y-85160127D01*
X110400000Y-85380653D01*
X106472219Y-85380653D01*
X106468228Y-85360590D01*
X106464344Y-85354778D01*
X106462751Y-85347975D01*
X106420290Y-85288845D01*
X106379821Y-85228278D01*
X106374008Y-85224394D01*
X106369933Y-85218719D01*
X106308074Y-85180339D01*
X106247509Y-85139871D01*
X106240652Y-85138507D01*
X106234716Y-85134824D01*
X106162883Y-85123038D01*
X106091437Y-85108826D01*
X106045371Y-85117989D01*
X105860717Y-85124218D01*
X105860672Y-85124211D01*
X105822590Y-85125504D01*
X105782023Y-85126873D01*
X105781976Y-85126884D01*
X105582572Y-85133657D01*
X105362707Y-85140402D01*
X105160603Y-85145058D01*
X104976591Y-85146896D01*
X104810589Y-85145276D01*
X104662733Y-85139679D01*
X104533270Y-85129785D01*
X104422524Y-85115590D01*
X104330738Y-85097542D01*
X104257720Y-85076626D01*
X104202212Y-85054211D01*
X104161273Y-85031400D01*
X104130246Y-85007878D01*
X104103882Y-84980912D01*
X104078251Y-84945673D01*
X104051887Y-84896937D01*
X104025360Y-84830695D01*
X104000112Y-84744742D01*
X103977491Y-84638169D01*
X103958397Y-84510835D01*
X103943242Y-84362774D01*
X103932072Y-84194104D01*
X103924677Y-84004794D01*
X103920684Y-83794674D01*
X103919626Y-83563461D01*
X103920973Y-83310750D01*
X103924161Y-83036230D01*
X103928597Y-82739876D01*
X103933085Y-82458732D01*
X103933124Y-82458552D01*
X103933716Y-82419256D01*
X103934340Y-82380140D01*
X103934307Y-82379959D01*
X103938293Y-82115183D01*
X103938396Y-82114696D01*
X103938887Y-82075693D01*
X103939471Y-82036901D01*
X103939382Y-82036413D01*
X103943021Y-81747397D01*
X103943173Y-81746665D01*
X103943516Y-81708054D01*
X103944003Y-81669366D01*
X103943866Y-81668629D01*
X103946654Y-81354710D01*
X103946843Y-81353779D01*
X103947002Y-81315498D01*
X103947345Y-81276884D01*
X103947166Y-81275943D01*
X103948577Y-80936440D01*
X103948793Y-80935348D01*
X103948740Y-80897181D01*
X103948900Y-80858775D01*
X103948686Y-80857675D01*
X103948138Y-80460269D01*
X103950422Y-80387287D01*
X103933890Y-80343552D01*
X103924705Y-80297709D01*
X103884062Y-80237064D01*
X103737958Y-80002860D01*
X103585478Y-79756615D01*
X103431828Y-79506328D01*
X103278123Y-79253422D01*
X103126299Y-79000657D01*
X102977738Y-78749901D01*
X102834100Y-78503472D01*
X102697005Y-78263642D01*
X102568080Y-78032709D01*
X102448934Y-77812960D01*
X102341357Y-77607072D01*
X102247045Y-77417643D01*
X102167917Y-77247928D01*
X102105952Y-77101844D01*
X102060023Y-76976208D01*
X101993513Y-76775699D01*
X101993391Y-76774757D01*
X101981126Y-76738355D01*
X101969007Y-76701821D01*
X101968537Y-76700994D01*
X101898909Y-76494347D01*
X101816946Y-76250340D01*
X101737283Y-76007961D01*
X101661183Y-75766625D01*
X101590110Y-75526471D01*
X101525468Y-75287595D01*
X101468600Y-75050034D01*
X101420829Y-74813936D01*
X101383408Y-74579382D01*
X101357523Y-74346318D01*
X101344336Y-74114787D01*
X101344958Y-73884524D01*
X101360277Y-73658796D01*
X101382627Y-73515887D01*
X101422961Y-73353133D01*
X101481907Y-73170571D01*
X101558501Y-72972712D01*
X101651498Y-72763305D01*
X101759508Y-72545725D01*
X101881137Y-72322971D01*
X102014892Y-72098002D01*
X102159328Y-71873544D01*
X102312928Y-71652337D01*
X102474171Y-71437024D01*
X102641431Y-71230302D01*
X102813037Y-71034807D01*
X102987238Y-70853139D01*
X103162049Y-70687964D01*
X103335267Y-70541882D01*
X103504374Y-70417377D01*
X103666348Y-70316716D01*
X103817687Y-70241581D01*
X103954441Y-70192585D01*
X104094671Y-70164104D01*
X104160731Y-70155068D01*
X104206621Y-70128263D01*
X104255631Y-70107731D01*
X104274726Y-70088482D01*
X104298137Y-70074807D01*
X104330271Y-70032489D01*
X104367700Y-69994757D01*
X104377976Y-69969663D01*
X104394370Y-69948073D01*
X104407863Y-69896678D01*
X104428003Y-69847496D01*
X104427894Y-69820380D01*
X104434778Y-69794159D01*
X104427577Y-69741514D01*
X104427363Y-69688369D01*
X104416887Y-69663362D01*
X104413212Y-69636499D01*
X104386408Y-69590611D01*
X104365875Y-69541599D01*
X104346625Y-69522503D01*
X104332951Y-69499093D01*
X104290635Y-69466961D01*
X104252902Y-69429530D01*
X104191194Y-69404261D01*
X104142302Y-69380456D01*
X104141124Y-69379575D01*
X104106938Y-69363238D01*
X104072790Y-69346612D01*
X104071363Y-69346237D01*
X104043207Y-69332782D01*
X104042940Y-69332583D01*
X104007551Y-69315743D01*
X103972416Y-69298952D01*
X103972096Y-69298870D01*
X103907790Y-69268270D01*
X103807742Y-69220220D01*
X103707661Y-69171108D01*
X103608084Y-69120605D01*
X103509347Y-69068320D01*
X103411805Y-69013884D01*
X103315841Y-68956966D01*
X103221857Y-68897271D01*
X103130160Y-68834467D01*
X103041081Y-68768247D01*
X102954894Y-68698281D01*
X102871874Y-68624243D01*
X102792207Y-68545726D01*
X102716106Y-68462323D01*
X102643738Y-68373544D01*
X102575264Y-68278826D01*
X102510878Y-68177556D01*
X102450805Y-68069063D01*
X102395323Y-67952633D01*
X102344767Y-67827505D01*
X102299562Y-67692976D01*
X102260169Y-67548274D01*
X102227135Y-67392771D01*
X102201029Y-67225786D01*
X102182456Y-67046738D01*
X102172037Y-66855101D01*
X102170396Y-66650368D01*
X102178153Y-66432099D01*
X102195915Y-66199848D01*
X102224275Y-65953242D01*
X102263817Y-65691864D01*
X102315098Y-65415379D01*
X102378665Y-65123426D01*
X102455058Y-64815624D01*
X102544798Y-64491622D01*
X102648399Y-64151046D01*
X102766366Y-63793543D01*
X102899180Y-63418782D01*
X103047379Y-63026272D01*
X103211362Y-62615860D01*
X103391719Y-62186899D01*
X103584636Y-61748773D01*
X103615265Y-61690302D01*
X103620092Y-61636706D01*
X103631751Y-61584179D01*
X103627167Y-61558141D01*
X103629538Y-61531813D01*
X103613491Y-61480458D01*
X103604160Y-61427460D01*
X103568711Y-61371784D01*
X103472312Y-61195001D01*
X103371290Y-61007756D01*
X103272111Y-60821401D01*
X103175092Y-60636017D01*
X103080615Y-60451811D01*
X102989003Y-60268887D01*
X102900640Y-60087470D01*
X102815854Y-59907701D01*
X102734928Y-59729609D01*
X102658266Y-59553520D01*
X102586152Y-59379498D01*
X102518939Y-59207795D01*
X102456905Y-59038498D01*
X102400405Y-58871936D01*
X102349701Y-58708218D01*
X102305080Y-58547575D01*
X102266806Y-58390239D01*
X102235110Y-58236397D01*
X102210203Y-58086245D01*
X102192272Y-57940014D01*
X102181462Y-57797843D01*
X102177895Y-57659877D01*
X102181665Y-57526187D01*
X102192850Y-57396788D01*
X102211533Y-57271604D01*
X102237819Y-57150462D01*
X102271873Y-57033111D01*
X102313941Y-56919214D01*
X102364373Y-56808394D01*
X102423639Y-56700264D01*
X102492345Y-56594432D01*
X102571154Y-56490649D01*
X102660821Y-56388715D01*
X102762117Y-56288561D01*
X102875771Y-56190257D01*
X103002506Y-56093933D01*
X103142956Y-55999820D01*
X103297702Y-55908181D01*
X103467243Y-55819324D01*
X103652038Y-55733549D01*
X103852506Y-55651153D01*
X104068952Y-55572450D01*
X104301782Y-55497688D01*
X104551249Y-55427143D01*
X104817746Y-55361028D01*
X105101428Y-55299595D01*
X105402731Y-55243015D01*
X105721822Y-55191501D01*
X106059079Y-55145214D01*
X106378378Y-55108510D01*
X106417102Y-55111937D01*
X106456644Y-55099513D01*
X106457925Y-55099366D01*
X106494267Y-55087692D01*
X106568914Y-55064239D01*
X106569930Y-55063389D01*
X106571189Y-55062984D01*
X106630915Y-55012320D01*
X106690917Y-54962074D01*
X106691528Y-54960902D01*
X106692539Y-54960045D01*
X106728308Y-54890421D01*
X106745954Y-54856607D01*
X106746316Y-54855370D01*
X106765257Y-54818502D01*
X106768438Y-54779756D01*
X106826764Y-54580389D01*
X106902745Y-54354263D01*
X106986950Y-54132944D01*
X107079170Y-53916523D01*
X107179170Y-53705150D01*
X107286721Y-53498965D01*
X107401625Y-53298057D01*
X107523622Y-53102624D01*
X107652506Y-52912771D01*
X107788031Y-52728670D01*
X107900000Y-52588088D01*
X107900000Y-52619347D01*
G36*
X112570203Y-50407240D02*
X112772746Y-50417002D01*
X112975370Y-50434272D01*
X113178296Y-50459167D01*
X113381435Y-50491796D01*
X113584595Y-50532259D01*
X113787683Y-50580674D01*
X113990558Y-50637155D01*
X114193048Y-50701807D01*
X114395048Y-50774760D01*
X114596419Y-50856138D01*
X114797011Y-50946058D01*
X114996682Y-51044653D01*
X115195276Y-51152042D01*
X115392725Y-51268404D01*
X115588800Y-51393829D01*
X115783371Y-51528463D01*
X115976331Y-51672481D01*
X116167466Y-51825982D01*
X116356657Y-51989137D01*
X116543716Y-52162068D01*
X116728519Y-52344957D01*
X116910848Y-52537896D01*
X117090565Y-52741065D01*
X117267481Y-52954583D01*
X117441436Y-53178613D01*
X117612219Y-53413252D01*
X117776712Y-53654325D01*
X117812013Y-53712855D01*
X117853436Y-53743399D01*
X117890169Y-53779424D01*
X117916895Y-53790191D01*
X117940089Y-53807294D01*
X117990037Y-53819659D01*
X118037769Y-53838889D01*
X118106111Y-53838224D01*
X118332777Y-53848732D01*
X118549873Y-53870193D01*
X118756440Y-53902077D01*
X118952800Y-53943924D01*
X119139358Y-53995314D01*
X119316459Y-54055840D01*
X119484569Y-54125167D01*
X119644126Y-54203008D01*
X119795542Y-54289113D01*
X119939251Y-54383307D01*
X120075613Y-54485435D01*
X120204976Y-54595389D01*
X120327621Y-54713075D01*
X120443754Y-54838369D01*
X120553574Y-54971181D01*
X120657207Y-55111363D01*
X120754767Y-55258777D01*
X120846324Y-55413224D01*
X120931933Y-55574464D01*
X121011664Y-55742289D01*
X121085549Y-55916385D01*
X121153650Y-56096478D01*
X121216016Y-56282232D01*
X121272724Y-56473357D01*
X121323835Y-56669477D01*
X121369431Y-56870240D01*
X121409602Y-57075299D01*
X121444453Y-57284337D01*
X121474073Y-57496890D01*
X121498591Y-57712717D01*
X121518114Y-57931364D01*
X121532767Y-58152443D01*
X121542686Y-58375710D01*
X121547999Y-58600697D01*
X121548845Y-58827098D01*
X121545364Y-59054519D01*
X121537699Y-59282611D01*
X121526002Y-59510960D01*
X121510413Y-59739313D01*
X121491088Y-59967258D01*
X121468178Y-60194443D01*
X121441842Y-60420483D01*
X121412232Y-60645046D01*
X121379511Y-60867747D01*
X121343829Y-61088291D01*
X121305339Y-61306350D01*
X121264213Y-61521510D01*
X121220638Y-61733304D01*
X121174728Y-61941615D01*
X121126687Y-62145906D01*
X121076683Y-62345827D01*
X121024851Y-62541154D01*
X120982936Y-62690328D01*
X120966620Y-62720130D01*
X120961616Y-62766202D01*
X120959947Y-62772143D01*
X120957369Y-62805313D01*
X120949439Y-62878328D01*
X120951220Y-62884418D01*
X120950728Y-62890748D01*
X120973496Y-62960590D01*
X120982830Y-62992509D01*
X120985684Y-62997980D01*
X121000048Y-63042042D01*
X121022139Y-63067856D01*
X121204096Y-63416631D01*
X121384975Y-63782041D01*
X121546035Y-64127692D01*
X121687843Y-64454143D01*
X121811055Y-64762105D01*
X121916278Y-65052099D01*
X122004197Y-65324760D01*
X122075519Y-65580681D01*
X122130999Y-65820475D01*
X122171451Y-66044821D01*
X122197729Y-66254443D01*
X122210731Y-66450177D01*
X122211363Y-66632981D01*
X122200503Y-66803989D01*
X122178949Y-66964496D01*
X122147365Y-67115872D01*
X122106232Y-67259634D01*
X122055870Y-67397196D01*
X121996405Y-67529992D01*
X121927902Y-67659195D01*
X121850371Y-67785860D01*
X121763863Y-67910850D01*
X121668490Y-68034899D01*
X121564469Y-68158641D01*
X121452133Y-68282630D01*
X121331897Y-68407416D01*
X121204246Y-68533554D01*
X121105312Y-68627736D01*
X121081027Y-68641098D01*
X121048197Y-68682106D01*
X121039234Y-68690639D01*
X121023621Y-68712805D01*
X120981577Y-68765323D01*
X120980000Y-68770758D01*
X120980000Y-64118529D01*
X121008656Y-64089873D01*
X121100000Y-63869347D01*
X121100000Y-63630653D01*
X121008656Y-63410127D01*
X120839873Y-63241344D01*
X120619347Y-63150000D01*
X120380653Y-63150000D01*
X120160127Y-63241344D01*
X119991344Y-63410127D01*
X119900000Y-63630653D01*
X119900000Y-63869347D01*
X119991344Y-64089873D01*
X120020001Y-64118530D01*
X120020000Y-76261580D01*
X119690055Y-76591526D01*
X119660000Y-76561471D01*
X119660000Y-59118529D01*
X119688656Y-59089873D01*
X119780000Y-58869347D01*
X119780000Y-58630653D01*
X119688656Y-58410127D01*
X119519873Y-58241344D01*
X119299347Y-58150000D01*
X119060653Y-58150000D01*
X118840127Y-58241344D01*
X118671344Y-58410127D01*
X118580000Y-58630653D01*
X118580000Y-58869347D01*
X118671344Y-59089873D01*
X118700000Y-59118529D01*
X118700001Y-74271178D01*
X117350000Y-72921179D01*
X117350000Y-72880653D01*
X117258656Y-72660127D01*
X117098529Y-72500000D01*
X117258656Y-72339873D01*
X117350000Y-72119347D01*
X117350000Y-71880653D01*
X117258656Y-71660127D01*
X117089873Y-71491344D01*
X116869347Y-71400000D01*
X116630653Y-71400000D01*
X116410127Y-71491344D01*
X116241344Y-71660127D01*
X116150000Y-71880653D01*
X116150000Y-71921179D01*
X116105201Y-71965977D01*
X115073221Y-70933998D01*
X115100000Y-70869347D01*
X115100000Y-70828821D01*
X118055984Y-67872838D01*
X118096060Y-67846060D01*
X118202149Y-67687286D01*
X118230000Y-67547271D01*
X118230000Y-67547267D01*
X118239402Y-67500001D01*
X118230000Y-67452734D01*
X118230000Y-65368529D01*
X118258656Y-65339873D01*
X118350000Y-65119347D01*
X118350000Y-64880653D01*
X118258656Y-64660127D01*
X118089873Y-64491344D01*
X117869347Y-64400000D01*
X117630653Y-64400000D01*
X117410127Y-64491344D01*
X117241344Y-64660127D01*
X117150000Y-64880653D01*
X117150000Y-65119347D01*
X117241344Y-65339873D01*
X117270000Y-65368529D01*
X117270001Y-67301177D01*
X114421179Y-70150000D01*
X114380653Y-70150000D01*
X114160127Y-70241344D01*
X114059946Y-70341525D01*
X109980000Y-66261581D01*
X109980000Y-63298821D01*
X111678822Y-61600000D01*
X111719347Y-61600000D01*
X111939873Y-61508656D01*
X112108656Y-61339873D01*
X112200000Y-61119347D01*
X112200000Y-60880653D01*
X112108656Y-60660127D01*
X111939873Y-60491344D01*
X111719347Y-60400000D01*
X111480653Y-60400000D01*
X111260127Y-60491344D01*
X111091344Y-60660127D01*
X111000000Y-60880653D01*
X111000000Y-60921178D01*
X109194016Y-62727163D01*
X109153941Y-62753940D01*
X109104940Y-62827276D01*
X109047852Y-62912714D01*
X109010598Y-63100000D01*
X109020001Y-63147271D01*
X109020000Y-66332049D01*
X108558387Y-65870436D01*
X108805987Y-65622835D01*
X108846060Y-65596060D01*
X108872835Y-65555988D01*
X108872837Y-65555986D01*
X108952149Y-65437287D01*
X108989403Y-65250000D01*
X108980000Y-65202729D01*
X108980000Y-52868529D01*
X109008656Y-52839873D01*
X109100000Y-52619347D01*
X109100000Y-52380653D01*
X109008656Y-52160127D01*
X108839873Y-51991344D01*
X108619347Y-51900000D01*
X108556565Y-51900000D01*
X108557608Y-51899033D01*
X108728277Y-51752333D01*
X108903983Y-51612383D01*
X109084504Y-51479324D01*
X109269587Y-51353315D01*
X109458989Y-51234502D01*
X109652517Y-51123006D01*
X109849869Y-51019004D01*
X110050846Y-50922620D01*
X110255228Y-50833985D01*
X110462722Y-50753265D01*
X110673134Y-50680582D01*
X110886227Y-50616072D01*
X111101798Y-50559867D01*
X111319532Y-50512124D01*
X111539290Y-50472955D01*
X111760813Y-50442506D01*
X111983855Y-50420910D01*
X112209031Y-50408256D01*
X112389054Y-50404786D01*
X112570203Y-50407240D01*
X112570203Y-50407240D01*
G37*
X112570203Y-50407240D02*
X112772746Y-50417002D01*
X112975370Y-50434272D01*
X113178296Y-50459167D01*
X113381435Y-50491796D01*
X113584595Y-50532259D01*
X113787683Y-50580674D01*
X113990558Y-50637155D01*
X114193048Y-50701807D01*
X114395048Y-50774760D01*
X114596419Y-50856138D01*
X114797011Y-50946058D01*
X114996682Y-51044653D01*
X115195276Y-51152042D01*
X115392725Y-51268404D01*
X115588800Y-51393829D01*
X115783371Y-51528463D01*
X115976331Y-51672481D01*
X116167466Y-51825982D01*
X116356657Y-51989137D01*
X116543716Y-52162068D01*
X116728519Y-52344957D01*
X116910848Y-52537896D01*
X117090565Y-52741065D01*
X117267481Y-52954583D01*
X117441436Y-53178613D01*
X117612219Y-53413252D01*
X117776712Y-53654325D01*
X117812013Y-53712855D01*
X117853436Y-53743399D01*
X117890169Y-53779424D01*
X117916895Y-53790191D01*
X117940089Y-53807294D01*
X117990037Y-53819659D01*
X118037769Y-53838889D01*
X118106111Y-53838224D01*
X118332777Y-53848732D01*
X118549873Y-53870193D01*
X118756440Y-53902077D01*
X118952800Y-53943924D01*
X119139358Y-53995314D01*
X119316459Y-54055840D01*
X119484569Y-54125167D01*
X119644126Y-54203008D01*
X119795542Y-54289113D01*
X119939251Y-54383307D01*
X120075613Y-54485435D01*
X120204976Y-54595389D01*
X120327621Y-54713075D01*
X120443754Y-54838369D01*
X120553574Y-54971181D01*
X120657207Y-55111363D01*
X120754767Y-55258777D01*
X120846324Y-55413224D01*
X120931933Y-55574464D01*
X121011664Y-55742289D01*
X121085549Y-55916385D01*
X121153650Y-56096478D01*
X121216016Y-56282232D01*
X121272724Y-56473357D01*
X121323835Y-56669477D01*
X121369431Y-56870240D01*
X121409602Y-57075299D01*
X121444453Y-57284337D01*
X121474073Y-57496890D01*
X121498591Y-57712717D01*
X121518114Y-57931364D01*
X121532767Y-58152443D01*
X121542686Y-58375710D01*
X121547999Y-58600697D01*
X121548845Y-58827098D01*
X121545364Y-59054519D01*
X121537699Y-59282611D01*
X121526002Y-59510960D01*
X121510413Y-59739313D01*
X121491088Y-59967258D01*
X121468178Y-60194443D01*
X121441842Y-60420483D01*
X121412232Y-60645046D01*
X121379511Y-60867747D01*
X121343829Y-61088291D01*
X121305339Y-61306350D01*
X121264213Y-61521510D01*
X121220638Y-61733304D01*
X121174728Y-61941615D01*
X121126687Y-62145906D01*
X121076683Y-62345827D01*
X121024851Y-62541154D01*
X120982936Y-62690328D01*
X120966620Y-62720130D01*
X120961616Y-62766202D01*
X120959947Y-62772143D01*
X120957369Y-62805313D01*
X120949439Y-62878328D01*
X120951220Y-62884418D01*
X120950728Y-62890748D01*
X120973496Y-62960590D01*
X120982830Y-62992509D01*
X120985684Y-62997980D01*
X121000048Y-63042042D01*
X121022139Y-63067856D01*
X121204096Y-63416631D01*
X121384975Y-63782041D01*
X121546035Y-64127692D01*
X121687843Y-64454143D01*
X121811055Y-64762105D01*
X121916278Y-65052099D01*
X122004197Y-65324760D01*
X122075519Y-65580681D01*
X122130999Y-65820475D01*
X122171451Y-66044821D01*
X122197729Y-66254443D01*
X122210731Y-66450177D01*
X122211363Y-66632981D01*
X122200503Y-66803989D01*
X122178949Y-66964496D01*
X122147365Y-67115872D01*
X122106232Y-67259634D01*
X122055870Y-67397196D01*
X121996405Y-67529992D01*
X121927902Y-67659195D01*
X121850371Y-67785860D01*
X121763863Y-67910850D01*
X121668490Y-68034899D01*
X121564469Y-68158641D01*
X121452133Y-68282630D01*
X121331897Y-68407416D01*
X121204246Y-68533554D01*
X121105312Y-68627736D01*
X121081027Y-68641098D01*
X121048197Y-68682106D01*
X121039234Y-68690639D01*
X121023621Y-68712805D01*
X120981577Y-68765323D01*
X120980000Y-68770758D01*
X120980000Y-64118529D01*
X121008656Y-64089873D01*
X121100000Y-63869347D01*
X121100000Y-63630653D01*
X121008656Y-63410127D01*
X120839873Y-63241344D01*
X120619347Y-63150000D01*
X120380653Y-63150000D01*
X120160127Y-63241344D01*
X119991344Y-63410127D01*
X119900000Y-63630653D01*
X119900000Y-63869347D01*
X119991344Y-64089873D01*
X120020001Y-64118530D01*
X120020000Y-76261580D01*
X119690055Y-76591526D01*
X119660000Y-76561471D01*
X119660000Y-59118529D01*
X119688656Y-59089873D01*
X119780000Y-58869347D01*
X119780000Y-58630653D01*
X119688656Y-58410127D01*
X119519873Y-58241344D01*
X119299347Y-58150000D01*
X119060653Y-58150000D01*
X118840127Y-58241344D01*
X118671344Y-58410127D01*
X118580000Y-58630653D01*
X118580000Y-58869347D01*
X118671344Y-59089873D01*
X118700000Y-59118529D01*
X118700001Y-74271178D01*
X117350000Y-72921179D01*
X117350000Y-72880653D01*
X117258656Y-72660127D01*
X117098529Y-72500000D01*
X117258656Y-72339873D01*
X117350000Y-72119347D01*
X117350000Y-71880653D01*
X117258656Y-71660127D01*
X117089873Y-71491344D01*
X116869347Y-71400000D01*
X116630653Y-71400000D01*
X116410127Y-71491344D01*
X116241344Y-71660127D01*
X116150000Y-71880653D01*
X116150000Y-71921179D01*
X116105201Y-71965977D01*
X115073221Y-70933998D01*
X115100000Y-70869347D01*
X115100000Y-70828821D01*
X118055984Y-67872838D01*
X118096060Y-67846060D01*
X118202149Y-67687286D01*
X118230000Y-67547271D01*
X118230000Y-67547267D01*
X118239402Y-67500001D01*
X118230000Y-67452734D01*
X118230000Y-65368529D01*
X118258656Y-65339873D01*
X118350000Y-65119347D01*
X118350000Y-64880653D01*
X118258656Y-64660127D01*
X118089873Y-64491344D01*
X117869347Y-64400000D01*
X117630653Y-64400000D01*
X117410127Y-64491344D01*
X117241344Y-64660127D01*
X117150000Y-64880653D01*
X117150000Y-65119347D01*
X117241344Y-65339873D01*
X117270000Y-65368529D01*
X117270001Y-67301177D01*
X114421179Y-70150000D01*
X114380653Y-70150000D01*
X114160127Y-70241344D01*
X114059946Y-70341525D01*
X109980000Y-66261581D01*
X109980000Y-63298821D01*
X111678822Y-61600000D01*
X111719347Y-61600000D01*
X111939873Y-61508656D01*
X112108656Y-61339873D01*
X112200000Y-61119347D01*
X112200000Y-60880653D01*
X112108656Y-60660127D01*
X111939873Y-60491344D01*
X111719347Y-60400000D01*
X111480653Y-60400000D01*
X111260127Y-60491344D01*
X111091344Y-60660127D01*
X111000000Y-60880653D01*
X111000000Y-60921178D01*
X109194016Y-62727163D01*
X109153941Y-62753940D01*
X109104940Y-62827276D01*
X109047852Y-62912714D01*
X109010598Y-63100000D01*
X109020001Y-63147271D01*
X109020000Y-66332049D01*
X108558387Y-65870436D01*
X108805987Y-65622835D01*
X108846060Y-65596060D01*
X108872835Y-65555988D01*
X108872837Y-65555986D01*
X108952149Y-65437287D01*
X108989403Y-65250000D01*
X108980000Y-65202729D01*
X108980000Y-52868529D01*
X109008656Y-52839873D01*
X109100000Y-52619347D01*
X109100000Y-52380653D01*
X109008656Y-52160127D01*
X108839873Y-51991344D01*
X108619347Y-51900000D01*
X108556565Y-51900000D01*
X108557608Y-51899033D01*
X108728277Y-51752333D01*
X108903983Y-51612383D01*
X109084504Y-51479324D01*
X109269587Y-51353315D01*
X109458989Y-51234502D01*
X109652517Y-51123006D01*
X109849869Y-51019004D01*
X110050846Y-50922620D01*
X110255228Y-50833985D01*
X110462722Y-50753265D01*
X110673134Y-50680582D01*
X110886227Y-50616072D01*
X111101798Y-50559867D01*
X111319532Y-50512124D01*
X111539290Y-50472955D01*
X111760813Y-50442506D01*
X111983855Y-50420910D01*
X112209031Y-50408256D01*
X112389054Y-50404786D01*
X112570203Y-50407240D01*
G04 #@! TD*
M02*
