<?xml version="1.0" encoding="UTF-8" standalone="no"?>
<!-- Created with Inkscape (http://www.inkscape.org/) -->

<svg
   xmlns:dc="http://purl.org/dc/elements/1.1/"
   xmlns:cc="http://creativecommons.org/ns#"
   xmlns:rdf="http://www.w3.org/1999/02/22-rdf-syntax-ns#"
   xmlns:svg="http://www.w3.org/2000/svg"
   xmlns="http://www.w3.org/2000/svg"
   xmlns:sodipodi="http://sodipodi.sourceforge.net/DTD/sodipodi-0.dtd"
   xmlns:inkscape="http://www.inkscape.org/namespaces/inkscape"
   width="24mm"
   height="50mm"
   viewBox="0 0 24 50"
   version="1.1"
   id="svg8"
   inkscape:version="0.91 r13725"
   sodipodi:docname="cuttlefist2.svg">
  <defs
     id="defs2" />
  <sodipodi:namedview
     id="base"
     pagecolor="#8cff79"
     bordercolor="#666666"
     borderopacity="1.0"
     inkscape:pageopacity="1"
     inkscape:pageshadow="2"
     inkscape:zoom="16"
     inkscape:cx="67.829625"
     inkscape:cy="50.981451"
     inkscape:document-units="mm"
     inkscape:current-layer="layer2"
     showgrid="false"
     inkscape:window-width="1333"
     inkscape:window-height="836"
     inkscape:window-x="-8"
     inkscape:window-y="-8"
     inkscape:window-maximized="1"
     showguides="false" />
  <metadata
     id="metadata5">
    <rdf:RDF>
      <cc:Work
         rdf:about="">
        <dc:format>image/svg+xml</dc:format>
        <dc:type
           rdf:resource="http://purl.org/dc/dcmitype/StillImage" />
        <dc:title></dc:title>
      </cc:Work>
    </rdf:RDF>
  </metadata>
  <g
     inkscape:label="Layer 1"
     inkscape:groupmode="layer"
     id="layer1"
     transform="translate(0,-247)"
     style="display:none">
    <path
       style="fill:#007f00;fill-opacity:1;stroke:none;stroke-width:0.29189265;stroke-miterlimit:4;stroke-dasharray:none;stroke-opacity:1"
       d="m 42.583984,11.623047 c -14.225676,-2.42e-4 -25.757923,16.577582 -25.757812,37.027344 0.0019,10.869914 3.326342,21.189567 9.091797,28.222656 -4.536951,1.248875 -7.895563,3.877616 -8.919922,7.267578 l -0.578125,3.248047 -0.06055,1.179687 c -1.8472,-2.944204 -3.076966,-4.751957 -4.523437,-7.855468 -0.859676,-4.222042 3.157471,-12.085243 -0.226563,-12.648438 -4.4995332,0.949113 -7.7130479,10.309015 -7.6855469,14.628906 0.029976,4.266071 2.143931,8.188773 3.8808594,12.027344 1.1550345,2.552599 5.1647825,8.085307 7.6562505,11.433597 l -0.462891,9.08984 c -1.04521,10.18887 7.103014,21.90302 7.577127,-6.23818 0,0 3.422379,39.70549 5.999045,-0.70908 0.182469,8.12536 6.671607,33.98159 6.99357,2.08565 0.03525,-3.49211 3.04163,36.09825 5.662206,2.84273 2.109458,10.85892 9.976769,25.41248 8.183169,-2.53469 -0.376203,-5.86186 10.313759,37.94425 7.42082,1.55357 10.866957,31.40474 8.25848,3.9316 9.277455,0.82297 1.697302,-5.17803 3.816558,14.73061 5.497755,12.43703 2.419735,-3.3011 3.516349,-10.76214 2.310728,-16.44167 2.620679,-4.18691 5.860505,-9.561111 6.611328,-11.857422 1.309411,-4.00461 2.984684,-8.134875 2.550781,-12.378906 -0.440422,-4.30774 -6.78722,-13.612367 -11.234375,-13.648438 -3.422555,-0.02835 -0.338044,6.939395 0.470703,10.746094 0.727641,3.424937 0.565625,7.04456 -1,10.191406 -0.438392,0.88115 -1.104154,1.884763 -1.839843,2.91211 C 68.179557,92.329576 67.714844,87.410156 67.714844,87.410156 67.71361,83.278822 63.637767,79.759351 57.90625,78.361328 64.459635,71.38986 68.330197,60.370024 68.341797,48.650391 68.341908,28.200628 56.80966,11.622804 42.583984,11.623047 Z"
       id="path815"
       inkscape:connector-curvature="0"
       sodipodi:nodetypes="cccccccccsccccscscsscsscssccccc"
       transform="matrix(0.28222222,0,0,0.28222222,0,261)" />
    <path
       style="fill:#1b0000;fill-opacity:1;stroke:none;stroke-width:0.93170804px;stroke-linecap:butt;stroke-linejoin:miter;stroke-opacity:1"
       d="m 2.8834071,280.37687 c -0.011504,0.007 -0.023302,0.0124 -0.034727,0.0198 0.011413,-0.007 0.023234,-0.0127 0.034727,-0.0198 z"
       id="path4332"
       inkscape:connector-curvature="0" />
    <path
       style="fill:#1b0000;fill-opacity:1;stroke:none;stroke-width:0.93170804px;stroke-linecap:butt;stroke-linejoin:miter;stroke-opacity:1"
       d="m 2.6811111,280.52349 c -0.013066,0.0109 -0.026742,0.0201 -0.039687,0.0314 0.012959,-0.0114 0.026607,-0.0205 0.039687,-0.0314 z"
       id="path4330"
       inkscape:connector-curvature="0" />
    <path
       style="fill:#1b0000;fill-opacity:1;stroke:none;stroke-width:0.93170804px;stroke-linecap:butt;stroke-linejoin:miter;stroke-opacity:1"
       d="m 2.4881857,280.70484 c -0.015034,0.0158 -0.030355,0.0305 -0.0452,0.0469 0.014828,-0.0164 0.030182,-0.031 0.0452,-0.0469 z"
       id="path4328"
       inkscape:connector-curvature="0" />
    <path
       style="fill:#1b0000;fill-opacity:1;stroke:none;stroke-width:0.93170804px;stroke-linecap:butt;stroke-linejoin:miter;stroke-opacity:1"
       d="m 2.3029774,280.92037 c -0.016017,0.0204 -0.032195,0.0401 -0.047956,0.0612 0.015743,-0.0211 0.031956,-0.0408 0.047956,-0.0612 z"
       id="path4326"
       inkscape:connector-curvature="0" />
    <path
       style="fill:#1b0000;fill-opacity:1;stroke:none;stroke-width:0.93170804px;stroke-linecap:butt;stroke-linejoin:miter;stroke-opacity:1"
       d="m 20.574661,281.1392 c 0.03853,0.0113 0.07776,0.0252 0.116858,0.0402 -0.03919,-0.0151 -0.07823,-0.0289 -0.116858,-0.0402 z"
       id="path4324"
       inkscape:connector-curvature="0" />
    <path
       style="fill:#1b0000;fill-opacity:1;stroke:none;stroke-width:0.93170804px;stroke-linecap:butt;stroke-linejoin:miter;stroke-opacity:1"
       d="m 2.1287934,281.16235 c -0.016721,0.0252 -0.033777,0.0497 -0.050161,0.0755 0.016351,-0.0258 0.033473,-0.0504 0.050161,-0.0755 z"
       id="path4322"
       inkscape:connector-curvature="0" />
    <path
       style="fill:#1b0000;fill-opacity:1;stroke:none;stroke-width:0.93170804px;stroke-linecap:butt;stroke-linejoin:miter;stroke-opacity:1"
       d="m 20.824362,281.23622 c 0.04009,0.0194 0.08028,0.0417 0.120716,0.0645 -0.04043,-0.0228 -0.08062,-0.0451 -0.120716,-0.0645 z"
       id="path4320"
       inkscape:connector-curvature="0" />
    <path
       style="fill:#1b0000;fill-opacity:1;stroke:none;stroke-width:0.93170804px;stroke-linecap:butt;stroke-linejoin:miter;stroke-opacity:1"
       d="m 21.072409,281.37622 c 0.04435,0.0286 0.08891,0.0604 0.133394,0.0926 -0.04458,-0.0323 -0.08894,-0.0639 -0.133394,-0.0926 z"
       id="path4318"
       inkscape:connector-curvature="0" />
    <path
       style="fill:#1b0000;fill-opacity:1;stroke:none;stroke-width:0.93170804px;stroke-linecap:butt;stroke-linejoin:miter;stroke-opacity:1"
       d="m 1.9656337,281.42583 c -0.018084,0.0315 -0.035867,0.0632 -0.053468,0.0954 0.017559,-0.0322 0.035427,-0.0639 0.053468,-0.0954 z"
       id="path4316"
       inkscape:connector-curvature="0" />
    <path
       style="fill:#1b0000;fill-opacity:1;stroke:none;stroke-width:0.93170804px;stroke-linecap:butt;stroke-linejoin:miter;stroke-opacity:1"
       d="m 21.328724,281.56033 c 0.04423,0.0351 0.08821,0.0731 0.132292,0.11135 -0.04411,-0.0382 -0.08803,-0.0762 -0.132292,-0.11135 z"
       id="path4314"
       inkscape:connector-curvature="0" />
    <path
       style="fill:#1b0000;fill-opacity:1;stroke:none;stroke-width:0.93170804px;stroke-linecap:butt;stroke-linejoin:miter;stroke-opacity:1"
       d="m 1.8118446,281.71357 c -0.016861,0.0338 -0.033273,0.0677 -0.049609,0.10197 0.016288,-0.0342 0.0328,-0.0682 0.049609,-0.10197 z"
       id="path4312"
       inkscape:connector-curvature="0" />
    <path
       style="fill:#1b0000;fill-opacity:1;stroke:none;stroke-width:0.93170804px;stroke-linecap:butt;stroke-linejoin:miter;stroke-opacity:1"
       d="m 21.581732,281.77806 c 0.04615,0.043 0.09158,0.0887 0.137252,0.1345 -0.04573,-0.0458 -0.09104,-0.0915 -0.137252,-0.1345 z"
       id="path4310"
       inkscape:connector-curvature="0" />
    <path
       style="fill:#1b0000;fill-opacity:1;stroke:none;stroke-width:0.93170804px;stroke-linecap:butt;stroke-linejoin:miter;stroke-opacity:1"
       d="m 1.6707335,282.01563 c -0.01677,0.0385 -0.032953,0.0769 -0.049058,0.11576 0.01607,-0.0388 0.032325,-0.0773 0.049058,-0.11576 z"
       id="path4308"
       inkscape:connector-curvature="0" />
    <path
       style="fill:#1b0000;fill-opacity:1;stroke:none;stroke-width:0.93170804px;stroke-linecap:butt;stroke-linejoin:miter;stroke-opacity:1"
       d="m 21.833637,282.02941 c 0.04516,0.048 0.08957,0.0981 0.133945,0.14828 -0.04443,-0.0503 -0.08873,-0.10028 -0.133945,-0.14828 z"
       id="path4306"
       inkscape:connector-curvature="0" />
    <path
       style="fill:#1b0000;fill-opacity:1;stroke:none;stroke-width:0.93170804px;stroke-linecap:butt;stroke-linejoin:miter;stroke-opacity:1"
       d="m 22.073416,282.29841 c 0.04599,0.0546 0.09082,0.11105 0.135598,0.16757 -0.04481,-0.0566 -0.08957,-0.11293 -0.135598,-0.16757 z"
       id="path4304"
       inkscape:connector-curvature="0" />
    <path
       style="fill:#1b0000;fill-opacity:1;stroke:none;stroke-width:0.93170804px;stroke-linecap:butt;stroke-linejoin:miter;stroke-opacity:1"
       d="m 1.5483637,282.31549 c -0.01642,0.0428 -0.032367,0.0854 -0.047956,0.12844 0.015544,-0.043 0.031583,-0.0857 0.047956,-0.12844 z"
       id="path4302"
       inkscape:connector-curvature="0" />
    <path
       style="fill:#1b0000;fill-opacity:1;stroke:none;stroke-width:0.93170804px;stroke-linecap:butt;stroke-linejoin:miter;stroke-opacity:1"
       d="m 22.311541,282.59717 c 0.0399,0.0527 0.07826,0.10663 0.116857,0.1604 -0.03867,-0.0539 -0.07689,-0.10763 -0.116857,-0.1604 z"
       id="path4300"
       inkscape:connector-curvature="0" />
    <path
       style="fill:#1b0000;fill-opacity:1;stroke:none;stroke-width:0.93170804px;stroke-linecap:butt;stroke-linejoin:miter;stroke-opacity:1"
       d="m 1.4281988,282.65118 c -0.00557,0.0168 -0.010553,0.0333 -0.015985,0.0502 0.00539,-0.0167 0.010462,-0.0334 0.015985,-0.0502 z"
       id="path4298"
       inkscape:connector-curvature="0" />
    <path
       style="fill:#1b0000;fill-opacity:1;stroke:none;stroke-width:0.93170804px;stroke-linecap:butt;stroke-linejoin:miter;stroke-opacity:1"
       d="m 22.532027,282.90254 c 0.04214,0.0615 0.0817,0.12409 0.121818,0.18631 -0.04019,-0.0623 -0.0796,-0.12466 -0.121818,-0.18631 z"
       id="path4296"
       inkscape:connector-curvature="0" />
    <path
       style="fill:#1b0000;fill-opacity:1;stroke:none;stroke-width:0.93170804px;stroke-linecap:butt;stroke-linejoin:miter;stroke-opacity:1"
       d="m 22.732669,283.21012 c 0.03789,0.0612 0.07298,0.12235 0.10859,0.18355 -0.03564,-0.0612 -0.07067,-0.12234 -0.10859,-0.18355 z"
       id="path4294"
       inkscape:connector-curvature="0" />
    <path
       style="fill:#1b0000;fill-opacity:1;stroke:none;stroke-width:0.93170804px;stroke-linecap:butt;stroke-linejoin:miter;stroke-opacity:1"
       d="m 1.2529123,283.26744 c -0.00442,0.0186 -0.00735,0.0361 -0.011575,0.0546 0.00418,-0.0183 0.00721,-0.0361 0.011575,-0.0546 z"
       id="path4292"
       inkscape:connector-curvature="0" />
    <path
       style="fill:#1b0000;fill-opacity:1;stroke:none;stroke-width:0.93170804px;stroke-linecap:butt;stroke-linejoin:miter;stroke-opacity:1"
       d="m 22.922838,283.53423 c 0.03229,0.0584 0.06108,0.11582 0.09095,0.17363 -0.02989,-0.0578 -0.05865,-0.11523 -0.09095,-0.17363 z"
       id="path4290"
       inkscape:connector-curvature="0" />
    <path
       style="fill:#1b0000;fill-opacity:1;stroke:none;stroke-width:0.93170804px;stroke-linecap:butt;stroke-linejoin:miter;stroke-opacity:1"
       d="m 23.082691,283.84071 c 0.02615,0.0536 0.04846,0.10562 0.07221,0.1582 -0.02377,-0.0526 -0.04604,-0.10459 -0.07221,-0.1582 z"
       id="path4288"
       inkscape:connector-curvature="0" />
    <path
       style="fill:#1b0000;fill-opacity:1;stroke:none;stroke-width:0.93170804px;stroke-linecap:butt;stroke-linejoin:miter;stroke-opacity:1"
       d="m 1.1443229,283.84126 c -0.00855,0.0629 -0.014294,0.12212 -0.019844,0.18135 0.00554,-0.0591 0.011328,-0.11863 0.019844,-0.18135 z"
       id="path4286"
       inkscape:connector-curvature="0" />
    <path
       style="fill:#1b0000;fill-opacity:1;stroke:none;stroke-width:0.93170804px;stroke-linecap:butt;stroke-linejoin:miter;stroke-opacity:1"
       d="m 1.1167621,284.09978 c -0.00619,0.0839 -0.00984,0.16386 -0.00937,0.23812 -4.731e-4,-0.0743 0.00317,-0.1541 0.00937,-0.23812 z"
       id="path4284"
       inkscape:connector-curvature="0" />
    <path
       style="fill:#1b0000;fill-opacity:1;stroke:none;stroke-width:0.93170804px;stroke-linecap:butt;stroke-linejoin:miter;stroke-opacity:1"
       d="m 23.223251,284.15104 c 0.02137,0.0515 0.0381,0.10048 0.05677,0.15048 -0.01868,-0.05 -0.0354,-0.0989 -0.05677,-0.15048 z"
       id="path4282"
       inkscape:connector-curvature="0" />
    <path
       style="fill:#1b0000;fill-opacity:1;stroke:none;stroke-width:0.93170804px;stroke-linecap:butt;stroke-linejoin:miter;stroke-opacity:1"
       d="m 23.328533,284.43106 c 0.0219,0.0654 0.03814,0.12687 0.05457,0.18851 -0.01645,-0.0617 -0.03264,-0.12301 -0.05457,-0.18851 z"
       id="path4280"
       inkscape:connector-curvature="0" />
    <path
       style="fill:#1b0000;fill-opacity:1;stroke:none;stroke-width:0.93170804px;stroke-linecap:butt;stroke-linejoin:miter;stroke-opacity:1"
       d="m 23.405703,284.6995 c 0.01982,0.0847 0.03423,0.16538 0.04189,0.24033 -0.0077,-0.075 -0.02207,-0.15558 -0.04189,-0.24033 z"
       id="path4278"
       inkscape:connector-curvature="0" />
    <path
       style="fill:#1b0000;fill-opacity:1;stroke:none;stroke-width:0.93170804px;stroke-linecap:butt;stroke-linejoin:miter;stroke-opacity:1"
       d="m 4.1859287,294.20245 c -0.00308,0.0769 -0.0061,0.15446 -0.00717,0.22765 0.00108,-0.0733 0.00408,-0.15063 0.00717,-0.22765 z"
       id="path4272"
       inkscape:connector-curvature="0" />
    <path
       style="fill:#1b0000;fill-opacity:1;stroke:none;stroke-width:0.93170804px;stroke-linecap:butt;stroke-linejoin:miter;stroke-opacity:1"
       d="m 4.1771093,294.56295 c 1.741e-4,0.0974 0.00287,0.1906 0.00661,0.28112 -0.00374,-0.0906 -0.00645,-0.18373 -0.00661,-0.28112 z"
       id="path4270"
       inkscape:connector-curvature="0" />
    <path
       style="fill:#1b0000;fill-opacity:1;stroke:none;stroke-width:0.93170804px;stroke-linecap:butt;stroke-linejoin:miter;stroke-opacity:1"
       d="m 4.1870314,294.9499 c 0.00646,0.11178 0.016261,0.21655 0.028112,0.3175 -0.011797,-0.10081 -0.021676,-0.20592 -0.028112,-0.3175 z"
       id="path4268"
       inkscape:connector-curvature="0" />
    <path
       style="fill:#1b0000;fill-opacity:1;stroke:none;stroke-width:0.93170804px;stroke-linecap:butt;stroke-linejoin:miter;stroke-opacity:1"
       d="m 4.2300259,295.37323 c 0.00978,0.0692 0.020209,0.13629 0.032522,0.2001 -0.01229,-0.0639 -0.022765,-0.13086 -0.032522,-0.2001 z"
       id="path4266"
       inkscape:connector-curvature="0" />
    <path
       style="fill:#1b0000;fill-opacity:1;stroke:none;stroke-width:0.93170804px;stroke-linecap:butt;stroke-linejoin:miter;stroke-opacity:1"
       d="m 4.2856988,295.68522 c 0.0126,0.0555 0.026773,0.10766 0.041341,0.15875 -0.014501,-0.051 -0.028797,-0.10336 -0.041341,-0.15875 z"
       id="path4264"
       inkscape:connector-curvature="0" />
    <path
       style="fill:#1b0000;fill-opacity:1;stroke:none;stroke-width:0.93170804px;stroke-linecap:butt;stroke-linejoin:miter;stroke-opacity:1"
       d="m 20.584032,295.88531 c -0.04925,0.0672 -0.09962,0.12207 -0.149931,0.17419 0.05049,-0.0503 0.100694,-0.10702 0.149931,-0.17419 z"
       id="path4262"
       inkscape:connector-curvature="0" />
    <path
       style="fill:#1b0000;fill-opacity:1;stroke:none;stroke-width:0.93170804px;stroke-linecap:butt;stroke-linejoin:miter;stroke-opacity:1"
       d="m 4.3546008,295.94154 c 0.022569,0.0692 0.047057,0.13419 0.073311,0.19458 -0.026311,-0.0607 -0.05071,-0.12508 -0.073311,-0.19458 z"
       id="path4260"
       inkscape:connector-curvature="0" />
    <path
       style="fill:#1b0000;fill-opacity:1;stroke:none;stroke-width:0.93170804px;stroke-linecap:butt;stroke-linejoin:miter;stroke-opacity:1"
       d="m 4.4802777,296.24085 c 0.014351,0.0278 0.028348,0.0559 0.043546,0.0816 -0.015186,-0.0257 -0.029208,-0.0537 -0.043546,-0.0816 z"
       id="path4258"
       inkscape:connector-curvature="0" />
    <path
       style="fill:#1b0000;fill-opacity:1;stroke:none;stroke-width:0.93170804px;stroke-linecap:butt;stroke-linejoin:miter;stroke-opacity:1"
       d="m 4.5822525,296.41227 c 0.014735,0.0209 0.029825,0.0404 0.0452,0.0595 -0.015369,-0.0192 -0.03047,-0.0386 -0.0452,-0.0595 z"
       id="path4256"
       inkscape:connector-curvature="0" />
    <path
       style="fill:#1b0000;fill-opacity:1;stroke:none;stroke-width:0.93170804px;stroke-linecap:butt;stroke-linejoin:miter;stroke-opacity:1"
       d="m 4.8914843,296.70166 c 0.011129,0.006 0.021765,0.0137 0.033073,0.0193 -0.011276,-0.006 -0.021976,-0.0131 -0.033073,-0.0193 z"
       id="path4254"
       inkscape:connector-curvature="0" />
    <path
       style="fill:#1b0000;fill-opacity:1;stroke:none;stroke-width:0.93170804px;stroke-linecap:butt;stroke-linejoin:miter;stroke-opacity:1"
       d="m 5.0243271,296.76119 c 0.00946,0.003 0.019105,0.006 0.028663,0.008 -0.00955,-0.003 -0.019218,-0.005 -0.028663,-0.008 z"
       id="path4252"
       inkscape:connector-curvature="0" />
    <path
       style="fill:#1b0000;fill-opacity:1;stroke:none;stroke-width:0.93170804px;stroke-linecap:butt;stroke-linejoin:miter;stroke-opacity:1"
       d="m 15.319375,296.87805 c -0.01849,0.002 -0.03701,0.004 -0.05567,0.006 0.01868,-0.002 0.03716,-0.004 0.05567,-0.006 z"
       id="path4250"
       inkscape:connector-curvature="0" />
    <path
       style="fill:#1b0000;fill-opacity:1;stroke:none;stroke-width:0.93170804px;stroke-linecap:butt;stroke-linejoin:miter;stroke-opacity:1"
       d="m 14.975968,296.89348 c 0.0141,1.6e-4 0.751361,1.25667 0.765401,1.25667 -0.01404,1e-5 -0.751311,-1.2566 -0.765401,-1.25667 z"
       id="path4243"
       inkscape:connector-curvature="0"
       sodipodi:nodetypes="ccc" />
  </g>
  <g
     inkscape:groupmode="layer"
     id="layer3"
     inkscape:label="SilkS"
     style="display:inline"
     transform="translate(0,14.000001)">
    <path
       style="fill:#ffffff;fill-opacity:1;stroke:none;stroke-width:0.93170804px;stroke-linecap:butt;stroke-linejoin:miter;stroke-opacity:1"
       d="m 11.827426,-13.213731 c -1.9486128,0.05806 -3.98033,1.083811 -5.5308939,3.4307615 -4.474997,0.09489 -4.2290874,5.9894034 -3.2422482,9.40428603 C 1.0449741,3.382531 1.744565,4.492291 3.0664109,5.732094 3.1353519,5.702744 3.2050952,5.677684 3.276424,5.662644 4.2314736,5.82159 3.0977455,8.040762 3.340365,9.232317 c 0.4082259,0.875881 0.7552935,1.386069 1.2766144,2.216989 L 4.6340683,11.116369 4.797228,10.199698 C 5.0863248,9.242974 6.0341998,8.5010845 7.3146282,8.148624 5.6874872,6.1637285 4.7492558,3.25129 4.7487196,0.18355602 4.7486883,-5.5878239 8.0033449,-10.266454 12.018147,-10.266386 c 4.014801,-6.8e-5 7.269458,4.6785618 7.269427,10.44994202 C 19.284274,3.4911 18.191941,6.6011455 16.34243,8.5686505 c 1.617562,0.3945535 2.767855,1.387827 2.768204,2.5537815 0,0 0.131153,1.388378 0.497747,2.14974 0.207628,-0.28994 0.395521,-0.573182 0.519245,-0.821862 0.441854,-0.88811 0.487578,-1.909648 0.282222,-2.8762415 -0.228247,-1.074336 -1.098764,-3.040791 -0.132843,-3.03279 0.03468,2.81e-4 0.06983,0.003 0.105282,0.0072 1.362541,-0.6730085 3.858299,-1.404303 0.803672,-8.194373 1.730457,-3.1596216 3.069015,-6.2190353 -3.149093,-6.8686953 -0.741021,-2.7322862 -3.167117,-4.6028132 -5.820833,-4.6980052 -0.129,-0.0046 -0.258699,-0.005 -0.388607,-0.0011 z"
       id="path4275"
       inkscape:connector-curvature="0" />
    <path
       style="fill:#ffffff;fill-opacity:1;stroke:none;stroke-width:0.93170804px;stroke-linecap:butt;stroke-linejoin:miter;stroke-opacity:1"
       d="m 28.574219,109.90234 c -2.576666,40.41456 -6,0.70899 -6,0.70899 0.968738,17.00381 -2.742188,17.2207 -2.742188,17.2207 l 3.283203,0.64063 c 15.91919,0.0194 31.893417,0.072 47.708985,1e-5 -3.569875,-4.11457 -2.558684,-19.18613 -4.712891,-13.80078 -0.61083,1.86347 -0.949762,11.72483 -2.648729,13.16632 -1.29205,-0.97805 -3.309681,-4.39711 -6.628615,-13.98859 2.892941,36.39068 -7.796121,-7.41459 -7.419922,-1.55273 1.793601,27.94717 -6.074135,13.39212 -8.183593,2.5332 -2.620573,33.25551 -5.626857,-6.33391 -5.66211,-2.8418 -0.321962,31.89594 -6.811671,6.03942 -6.99414,-2.08595 z"
       transform="matrix(0.28222222,0,0,0.28222224,0,-14.000003)"
       id="path4281"
       inkscape:connector-curvature="0"
       sodipodi:nodetypes="ccccccccscsc" />
    <path
       style="opacity:0.98999999;fill:#ffffff;fill-opacity:1;stroke:#ffffff;stroke-width:0.00669909;stroke-linecap:butt;stroke-miterlimit:4;stroke-dasharray:none;stroke-opacity:1"
       d="m 7.7379403,12.989617 c -0.534394,-0.121718 -0.9671659,-0.543499 -1.1172054,-1.088831 -0.046962,-0.170686 -0.046962,-0.566661 0,-0.737347 0.1856525,-0.674772 0.7576885,-1.115209 1.4484242,-1.115209 0.589061,0 1.087829,0.312999 1.3448143,0.84393 0.1072044,0.221484 0.1561256,0.46849 0.141725,0.715577 -0.013445,0.230665 -0.048549,0.368872 -0.1444414,0.56866 -0.1846489,0.384708 -0.4884524,0.645549 -0.9167054,0.787071 -0.1490509,0.04926 -0.5884842,0.06444 -0.7566113,0.02615 z m 0.6637819,-0.124472 c 0.4827465,-0.121621 0.8762274,-0.511207 0.9989907,-0.989104 0.015517,-0.0604 0.049817,-0.135499 0.076223,-0.166881 0.057099,-0.06786 0.06023,-0.108979 0.012926,-0.169771 -0.020481,-0.02632 -0.046931,-0.115947 -0.063547,-0.215335 C 9.3754233,11.019657 9.2550253,10.782282 9.0424417,10.567217 8.7873433,10.30914 8.4926401,10.180206 8.1245633,10.165641 c -0.1802305,-0.0071 -0.2464951,-0.0016 -0.3764192,0.03122 -0.4097548,0.103618 -0.7255042,0.357294 -0.9089382,0.730249 -0.085145,0.173114 -0.1228389,0.310151 -0.1482143,0.53883 -0.00981,0.08839 -0.028723,0.196618 -0.042034,0.240512 -0.020848,0.06875 -0.019899,0.08883 0.00684,0.144909 0.017074,0.0358 0.046523,0.07001 0.065442,0.07602 0.01938,0.0061 0.048476,0.05019 0.066642,0.100874 0.1116685,0.311542 0.4062952,0.622747 0.7216278,0.762234 0.2599738,0.114998 0.6143783,0.144655 0.8922111,0.07466 z"
       id="path4238"
       inkscape:connector-curvature="0" />
    <path
       style="opacity:0.98999999;fill:#ffffff;fill-opacity:1;stroke:#ffffff;stroke-width:0.00669909;stroke-linecap:butt;stroke-miterlimit:4;stroke-dasharray:none;stroke-opacity:1"
       d="m 14.807555,12.969293 c -0.545922,-0.118781 -0.99238,-0.558327 -1.133319,-1.115773 -0.04327,-0.17115 -0.04438,-0.500609 -0.0023,-0.675731 0.111276,-0.462728 0.447279,-0.86175 0.878476,-1.043238 0.37514,-0.1578945 0.837731,-0.1473715 1.211571,0.02756 0.815843,0.381758 1.104886,1.401605 0.612822,2.162258 -0.205668,0.317931 -0.529866,0.54615 -0.903856,0.636271 -0.178332,0.04297 -0.487179,0.047 -0.663432,0.0087 z m 0.75345,-0.156088 c 0.292339,-0.101085 0.521535,-0.272623 0.695789,-0.520752 0.08771,-0.124894 0.187095,-0.346986 0.215827,-0.482296 0.0073,-0.03425 0.03373,-0.08278 0.0588,-0.107852 0.05454,-0.05454 0.05834,-0.12034 0.0105,-0.181823 -0.02074,-0.02666 -0.0406,-0.09481 -0.0486,-0.166727 -0.03448,-0.310247 -0.168347,-0.578893 -0.406503,-0.815781 -0.131292,-0.130594 -0.196926,-0.17918 -0.336315,-0.248957 -0.236868,-0.118577 -0.40385,-0.15338 -0.682961,-0.142344 -0.174042,0.0069 -0.252327,0.01954 -0.371725,0.06008 -0.534837,0.181629 -0.902042,0.652326 -0.930706,1.193013 -0.0069,0.13082 -0.02092,0.210672 -0.0454,0.259209 -0.01946,0.03858 -0.03538,0.09175 -0.03538,0.118164 0,0.05051 0.05888,0.123645 0.09955,0.123645 0.01316,0 0.03949,0.04467 0.05852,0.09926 0.09181,0.263416 0.373774,0.584908 0.629188,0.717401 0.251558,0.130493 0.412971,0.166803 0.706347,0.158896 0.183405,-0.0049 0.243339,-0.01482 0.383065,-0.06314 z"
       id="path4240"
       inkscape:connector-curvature="0" />
    <path
       style="fill:#ffffff;fill-opacity:1"
       d="m 10.687036,3.242544 2.625857,0 0,0.6732965 -2.625857,0 z"
       id="path4211"
       inkscape:connector-curvature="0" />
    <path
       style="fill:#ffffff;fill-opacity:1"
       d="m 9.7893078,1.9183925 4.4213142,0 0,0.6732965 -4.4213142,0 z"
       id="path4209"
       inkscape:connector-curvature="0" />
    <path
       style="fill:#ffffff;fill-opacity:1"
       d="m 8.9140228,0.59424151 2.6482992,0 0,-2.53608641 c -0.254357,0 -0.508713,0 -0.76307,0 0,-0.2244321 0,-0.448865 0,-0.6732975 0.254357,0 0.508713,0 0.76307,0 l 1.7e-4,-0.4769195 c 1.86e-4,-0.5629196 0.02008,-0.7128049 0.123762,-0.9330048 0.230521,-0.4895806 0.834428,-0.7199213 1.592056,-0.6072383 l 0.16923,0.025172 0,0.3312665 0,0.3312663 -0.286151,0.00926 c -0.35304,0.011418 -0.500559,0.065704 -0.604331,0.2223948 l -0.06335,0.095662 -0.0071,0.5006225 -0.0071,0.5006235 c 0.318971,0.0041 0.637943,0.0081 0.956914,0.0122 0.0041,0.2206924 0.0083,0.4413844 0.0124,0.6620765 -0.322086,0 -0.644173,0 -0.966259,0 0,0.8453619 0,1.69072343 0,2.53608541 l 2.603414,0 0,0.67329749 -6.1718852,0 z"
       id="path12548"
       inkscape:connector-curvature="0" />
  </g>
  <g
     inkscape:groupmode="layer"
     id="layer4"
     inkscape:label="Cu"
     transform="translate(0,14.000001)">
    <path
       style="opacity:0.98999999;fill:#ffff00;fill-opacity:1;stroke:#ffffff;stroke-width:0.00669909;stroke-linecap:butt;stroke-miterlimit:4;stroke-dasharray:none;stroke-opacity:1"
       d="m 6.7167,11.920433 c -0.117356,-0.08266 -0.083959,-0.261341 0.00477,-0.352641 0.1624557,-0.245318 0.3029144,-0.515212 0.5357128,-0.703363 0.1462829,-0.05081 0.2968292,0.06058 0.3564738,0.189931 0.1117171,0.168205 0.2150554,0.342351 0.3387979,0.502263 0.1439947,0.04864 0.2814957,-0.06546 0.3512367,-0.182322 0.1296214,-0.183564 0.2350527,-0.39622 0.4282662,-0.523056 0.157529,-0.03181 0.2968302,0.09755 0.3536635,0.233693 0.1052304,0.173166 0.2293131,0.343504 0.4041807,0.452007 0.096988,0.115992 -0.094194,0.299632 -0.2061831,0.198035 C 9.0919491,11.611567 8.9563667,11.422288 8.8372998,11.231899 8.6919506,11.217172 8.6544997,11.388242 8.5854671,11.479789 8.4487338,11.680492 8.2370052,11.873373 7.9791599,11.865801 7.7792648,11.846432 7.6516014,11.668817 7.5609678,11.507496 7.5142358,11.426667 7.4702848,11.343658 7.4129184,11.269632 7.2978823,11.196301 7.1938346,11.330201 7.150616,11.424825 7.0643383,11.564271 6.9821749,11.706779 6.8884794,11.841286 6.8490306,11.89325 6.786272,11.944517 6.7167,11.920433 Z"
       id="path4200"
       inkscape:connector-curvature="0" />
    <path
       style="opacity:0.98999999;fill:#ffff00;fill-opacity:1;stroke:#ffffff;stroke-width:0.00669909;stroke-linecap:butt;stroke-miterlimit:4;stroke-dasharray:none;stroke-opacity:1"
       d="m 13.722152,11.862974 c -0.0631,-0.143465 0.03376,-0.288781 0.113373,-0.403167 0.135106,-0.222927 0.2795,-0.44629 0.478788,-0.617853 0.154673,-0.04814 0.307602,0.07222 0.368397,0.208019 0.109534,0.165325 0.207887,0.339331 0.338722,0.489394 0.161307,0.03528 0.293913,-0.100192 0.368596,-0.227062 0.12103,-0.173127 0.223293,-0.374184 0.412345,-0.4839 0.138947,-0.02433 0.277336,0.07636 0.320855,0.205963 0.114857,0.186686 0.250529,0.365493 0.428221,0.49674 0.08374,0.119321 -0.106647,0.284784 -0.213123,0.18521 -0.179199,-0.124749 -0.319958,-0.298474 -0.424692,-0.48877 -0.15873,-0.03219 -0.227819,0.148236 -0.294171,0.256846 -0.131992,0.204994 -0.36478,0.384025 -0.620577,0.350881 -0.208866,-0.04656 -0.328007,-0.244626 -0.425484,-0.417728 -0.02918,-0.09408 -0.113342,-0.224556 -0.228098,-0.182455 -0.111835,0.07299 -0.139045,0.218677 -0.224007,0.316266 -0.07545,0.116389 -0.135578,0.249564 -0.250501,0.333681 -0.04798,0.02131 -0.110797,0.01714 -0.148644,-0.02207 z"
       id="path4202"
       inkscape:connector-curvature="0" />
  </g>
  <g
     inkscape:groupmode="layer"
     id="layer2"
     inkscape:label="Edge.Cuts"
     style="display:inline"
     transform="translate(0,14.000001)">
    <path
       style="fill:none;fill-opacity:1;stroke:#000000;stroke-width:0.35433069;stroke-linecap:butt;stroke-linejoin:miter;stroke-miterlimit:4;stroke-dasharray:none;stroke-opacity:1"
       d="M 41.908203,2.7851562 C 35.00367,2.9908806 27.804671,6.6254405 22.310547,14.941406 6.454258,15.277631 7.3255917,36.163698 10.822266,48.263672 3.702664,61.590812 6.1815281,65.523013 10.865234,69.916016 6.7606735,71.663548 3.897872,80.221584 3.9238281,84.298828 3.9538045,88.5649 6.0677591,92.487601 7.8046875,96.326172 8.959722,98.87877 12.96947,104.41148 15.460938,107.75977 l -0.462891,9.08984 c 0.109872,9.4576 -0.2505,10.68305 7.613281,11.97461 l 0.25,41.5918 42.046875,0 0,-41.81055 c 10.973456,0.35811 8.929877,0.89055 9.011719,-17.9375 2.620679,-4.18691 5.860505,-9.56111 6.611328,-11.857423 1.309411,-4.00461 2.984684,-8.134875 2.550781,-12.378906 C 82.65378,82.242924 76.641259,73.331152 72.220703,72.808594 77.048604,70.423918 85.891841,67.832739 75.068359,43.773438 81.1999,32.577932 85.942822,21.737492 63.910156,19.435547 61.284491,9.7542185 52.688087,3.126357 43.285156,2.7890625 42.82807,2.7727633 42.368507,2.7713374 41.908203,2.7851562 Z"
       transform="matrix(0.28222222,0,0,0.28222224,0,-14.000003)"
       id="path836"
       inkscape:connector-curvature="0"
       sodipodi:nodetypes="cccccscccccccssccccc" />
  </g>
</svg>
