G04 #@! TF.GenerationSoftware,KiCad,Pcbnew,(6.0.0-rc1-dev-1248-ged6c68a1e)*
G04 #@! TF.CreationDate,2018-12-01T18:11:37-05:00*
G04 #@! TF.ProjectId,cuttle2fish,63757474-6c65-4326-9669-73682e6b6963,rev?*
G04 #@! TF.SameCoordinates,Original*
G04 #@! TF.FileFunction,Paste,Top*
G04 #@! TF.FilePolarity,Positive*
%FSLAX46Y46*%
G04 Gerber Fmt 4.6, Leading zero omitted, Abs format (unit mm)*
G04 Created by KiCad (PCBNEW (6.0.0-rc1-dev-1248-ged6c68a1e)) date 12/1/2018 6:11:37 PM*
%MOMM*%
%LPD*%
G01*
G04 APERTURE LIST*
%ADD10R,0.250000X1.000000*%
%ADD11R,1.000000X0.250000*%
%ADD12R,0.900000X1.700000*%
%ADD13R,0.650000X1.060000*%
%ADD14R,1.600000X1.300000*%
%ADD15R,0.800000X0.500000*%
%ADD16R,0.800000X0.300000*%
%ADD17R,0.900000X0.500000*%
%ADD18R,3.000000X1.700000*%
%ADD19R,0.800000X0.800000*%
%ADD20R,0.750000X0.800000*%
%ADD21R,0.800000X0.750000*%
G04 APERTURE END LIST*
D10*
G04 #@! TO.C,U2*
X116000000Y-69230000D03*
X115500000Y-69230000D03*
X115000000Y-69230000D03*
X114500000Y-69230000D03*
X114000000Y-69230000D03*
X113500000Y-69230000D03*
X113000000Y-69230000D03*
X112500000Y-69230000D03*
X112000000Y-69230000D03*
X111500000Y-69230000D03*
X111000000Y-69230000D03*
X110500000Y-69230000D03*
X110000000Y-69230000D03*
X109500000Y-69230000D03*
X109000000Y-69230000D03*
X108500000Y-69230000D03*
D11*
X106550000Y-71180000D03*
X106550000Y-71680000D03*
X106550000Y-72180000D03*
X106550000Y-72680000D03*
X106550000Y-73180000D03*
X106550000Y-73680000D03*
X106550000Y-74180000D03*
X106550000Y-74680000D03*
X106550000Y-75180000D03*
X106550000Y-75680000D03*
X106550000Y-76180000D03*
X106550000Y-76680000D03*
X106550000Y-77180000D03*
X106550000Y-77680000D03*
X106550000Y-78180000D03*
X106550000Y-78680000D03*
D10*
X108500000Y-80630000D03*
X109000000Y-80630000D03*
X109500000Y-80630000D03*
X110000000Y-80630000D03*
X110500000Y-80630000D03*
X111000000Y-80630000D03*
X111500000Y-80630000D03*
X112000000Y-80630000D03*
X112500000Y-80630000D03*
X113000000Y-80630000D03*
X113500000Y-80630000D03*
X114000000Y-80630000D03*
X114500000Y-80630000D03*
X115000000Y-80630000D03*
X115500000Y-80630000D03*
X116000000Y-80630000D03*
D11*
X117950000Y-78680000D03*
X117950000Y-78180000D03*
X117950000Y-77680000D03*
X117950000Y-77180000D03*
X117950000Y-76680000D03*
X117950000Y-76180000D03*
X117950000Y-75680000D03*
X117950000Y-75180000D03*
X117950000Y-74680000D03*
X117950000Y-74180000D03*
X117950000Y-73680000D03*
X117950000Y-73180000D03*
X117950000Y-72680000D03*
X117950000Y-72180000D03*
X117950000Y-71680000D03*
X117950000Y-71180000D03*
G04 #@! TD*
D12*
G04 #@! TO.C,SW1*
X110800000Y-58000000D03*
X114200000Y-58000000D03*
G04 #@! TD*
D13*
G04 #@! TO.C,U1*
X107300000Y-82400000D03*
X109200000Y-82400000D03*
X109200000Y-84600000D03*
X108250000Y-84600000D03*
X107300000Y-84600000D03*
G04 #@! TD*
D14*
G04 #@! TO.C,Y1*
X112650000Y-65040000D03*
X115950000Y-65040000D03*
X115950000Y-67040000D03*
X112650000Y-67040000D03*
G04 #@! TD*
D15*
G04 #@! TO.C,U4*
X114720000Y-53350000D03*
D16*
X114720000Y-54250000D03*
D15*
X114720000Y-55150000D03*
X116420000Y-55150000D03*
D16*
X116420000Y-54250000D03*
D15*
X116420000Y-53350000D03*
G04 #@! TD*
G04 #@! TO.C,U3*
X108650000Y-53350000D03*
D16*
X108650000Y-54250000D03*
D15*
X108650000Y-55150000D03*
X110350000Y-55150000D03*
D16*
X110350000Y-54250000D03*
D15*
X110350000Y-53350000D03*
G04 #@! TD*
D17*
G04 #@! TO.C,R3*
X108500000Y-61750000D03*
X108500000Y-63250000D03*
G04 #@! TD*
G04 #@! TO.C,R2*
X112500000Y-61750000D03*
X112500000Y-63250000D03*
G04 #@! TD*
G04 #@! TO.C,R1*
X110500000Y-61750000D03*
X110500000Y-63250000D03*
G04 #@! TD*
D18*
G04 #@! TO.C,J3*
X105250000Y-67580000D03*
X105250000Y-65040000D03*
X105250000Y-62500000D03*
X105250000Y-59960000D03*
X105250000Y-57420000D03*
G04 #@! TD*
G04 #@! TO.C,J2*
X119380000Y-67580000D03*
X119380000Y-65040000D03*
X119380000Y-62500000D03*
X119380000Y-59960000D03*
X119380000Y-57420000D03*
G04 #@! TD*
D19*
G04 #@! TO.C,D2*
X108250000Y-57200000D03*
X108250000Y-58800000D03*
G04 #@! TD*
G04 #@! TO.C,D1*
X116500000Y-57200000D03*
X116500000Y-58800000D03*
G04 #@! TD*
D20*
G04 #@! TO.C,C11*
X116250000Y-63000000D03*
X116250000Y-61500000D03*
G04 #@! TD*
G04 #@! TO.C,C10*
X114250000Y-63000000D03*
X114250000Y-61500000D03*
G04 #@! TD*
D21*
G04 #@! TO.C,C9*
X117000000Y-84500000D03*
X115500000Y-84500000D03*
G04 #@! TD*
G04 #@! TO.C,C8*
X111010000Y-82550000D03*
X112510000Y-82550000D03*
G04 #@! TD*
G04 #@! TO.C,C7*
X111010000Y-84500000D03*
X112510000Y-84500000D03*
G04 #@! TD*
D20*
G04 #@! TO.C,C6*
X108500000Y-66000000D03*
X108500000Y-67500000D03*
G04 #@! TD*
G04 #@! TO.C,C5*
X120000000Y-71500000D03*
X120000000Y-73000000D03*
G04 #@! TD*
D21*
G04 #@! TO.C,C4*
X117000000Y-82550000D03*
X115500000Y-82550000D03*
G04 #@! TD*
D20*
G04 #@! TO.C,C3*
X104500000Y-79250000D03*
X104500000Y-77750000D03*
G04 #@! TD*
G04 #@! TO.C,C2*
X104500000Y-73250000D03*
X104500000Y-71750000D03*
G04 #@! TD*
G04 #@! TO.C,C1*
X110500000Y-67540000D03*
X110500000Y-66040000D03*
G04 #@! TD*
M02*
