G04 #@! TF.GenerationSoftware,KiCad,Pcbnew,(6.0.0-rc1-dev-1248-ged6c68a1e)*
G04 #@! TF.CreationDate,2018-12-01T18:11:37-05:00*
G04 #@! TF.ProjectId,cuttle2fish,63757474-6c65-4326-9669-73682e6b6963,rev?*
G04 #@! TF.SameCoordinates,Original*
G04 #@! TF.FileFunction,Profile,NP*
%FSLAX46Y46*%
G04 Gerber Fmt 4.6, Leading zero omitted, Abs format (unit mm)*
G04 Created by KiCad (PCBNEW (6.0.0-rc1-dev-1248-ged6c68a1e)) date 12/1/2018 6:11:37 PM*
%MOMM*%
%LPD*%
G01*
G04 APERTURE LIST*
G04 #@! TA.AperFunction,NonConductor*
%ADD10C,0.093750*%
G04 #@! TD*
G04 APERTURE END LIST*
D10*
G04 #@! TO.C,svg2mod*
X112387904Y-50004735D02*
X112582548Y-50007371D01*
X112193941Y-50008473D02*
X112387904Y-50004735D01*
X111953362Y-50021993D02*
X112193941Y-50008473D01*
X111714280Y-50045141D02*
X111953362Y-50021993D01*
X111476939Y-50077765D02*
X111714280Y-50045141D01*
X111241582Y-50119714D02*
X111476939Y-50077765D01*
X111008452Y-50170833D02*
X111241582Y-50119714D01*
X110777794Y-50230972D02*
X111008452Y-50170833D01*
X110549849Y-50299977D02*
X110777794Y-50230972D01*
X110324862Y-50377695D02*
X110549849Y-50299977D01*
X110103075Y-50463975D02*
X110324862Y-50377695D01*
X109884733Y-50558664D02*
X110103075Y-50463975D01*
X109670078Y-50661608D02*
X109884733Y-50558664D01*
X109459354Y-50772657D02*
X109670078Y-50661608D01*
X109252804Y-50891656D02*
X109459354Y-50772657D01*
X109050672Y-51018454D02*
X109252804Y-50891656D01*
X108853200Y-51152898D02*
X109050672Y-51018454D01*
X108660633Y-51294836D02*
X108853200Y-51152898D01*
X108473213Y-51444115D02*
X108660633Y-51294836D01*
X108291183Y-51600582D02*
X108473213Y-51444115D01*
X108114788Y-51764085D02*
X108291183Y-51600582D01*
X107944270Y-51934471D02*
X108114788Y-51764085D01*
X107779874Y-52111588D02*
X107944270Y-51934471D01*
X107621841Y-52295284D02*
X107779874Y-52111588D01*
X107470416Y-52485405D02*
X107621841Y-52295284D01*
X107325841Y-52681800D02*
X107470416Y-52485405D01*
X107188361Y-52884315D02*
X107325841Y-52681800D01*
X107058218Y-53092799D02*
X107188361Y-52884315D01*
X106935656Y-53307098D02*
X107058218Y-53092799D01*
X106820918Y-53527061D02*
X106935656Y-53307098D01*
X106714248Y-53752534D02*
X106820918Y-53527061D01*
X106615888Y-53983365D02*
X106714248Y-53752534D01*
X106526083Y-54219402D02*
X106615888Y-53983365D01*
X106445075Y-54460491D02*
X106526083Y-54219402D01*
X106373108Y-54706482D02*
X106445075Y-54460491D01*
X106009032Y-54748334D02*
X106373108Y-54706482D01*
X105662748Y-54795860D02*
X106009032Y-54748334D01*
X105333913Y-54848947D02*
X105662748Y-54795860D01*
X105022182Y-54907485D02*
X105333913Y-54848947D01*
X104727211Y-54971363D02*
X105022182Y-54907485D01*
X104448656Y-55040470D02*
X104727211Y-54971363D01*
X104186174Y-55114695D02*
X104448656Y-55040470D01*
X103939421Y-55193928D02*
X104186174Y-55114695D01*
X103708053Y-55278057D02*
X103939421Y-55193928D01*
X103491725Y-55366972D02*
X103708053Y-55278057D01*
X103290094Y-55460561D02*
X103491725Y-55366972D01*
X103102816Y-55558715D02*
X103290094Y-55460561D01*
X102929548Y-55661322D02*
X103102816Y-55558715D01*
X102769944Y-55768271D02*
X102929548Y-55661322D01*
X102623662Y-55879451D02*
X102769944Y-55768271D01*
X102490357Y-55994752D02*
X102623662Y-55879451D01*
X102369686Y-56114063D02*
X102490357Y-55994752D01*
X102261304Y-56237272D02*
X102369686Y-56114063D01*
X102164867Y-56364270D02*
X102261304Y-56237272D01*
X102080033Y-56494944D02*
X102164867Y-56364270D01*
X102006456Y-56629185D02*
X102080033Y-56494944D01*
X101943794Y-56766881D02*
X102006456Y-56629185D01*
X101891701Y-56907922D02*
X101943794Y-56766881D01*
X101849834Y-57052196D02*
X101891701Y-56907922D01*
X101817850Y-57199593D02*
X101849834Y-57052196D01*
X101795403Y-57350003D02*
X101817850Y-57199593D01*
X101782152Y-57503313D02*
X101795403Y-57350003D01*
X101777750Y-57659413D02*
X101782152Y-57503313D01*
X101781855Y-57818193D02*
X101777750Y-57659413D01*
X101794123Y-57979541D02*
X101781855Y-57818193D01*
X101814210Y-58143347D02*
X101794123Y-57979541D01*
X101841771Y-58309500D02*
X101814210Y-58143347D01*
X101876463Y-58477889D02*
X101841771Y-58309500D01*
X101917943Y-58648403D02*
X101876463Y-58477889D01*
X101965865Y-58820931D02*
X101917943Y-58648403D01*
X102019887Y-58995362D02*
X101965865Y-58820931D01*
X102079664Y-59171586D02*
X102019887Y-58995362D01*
X102144852Y-59349492D02*
X102079664Y-59171586D01*
X102215108Y-59528968D02*
X102144852Y-59349492D01*
X102290087Y-59709905D02*
X102215108Y-59528968D01*
X102369446Y-59892190D02*
X102290087Y-59709905D01*
X102452840Y-60075714D02*
X102369446Y-59892190D01*
X102539927Y-60260365D02*
X102452840Y-60075714D01*
X102630361Y-60446032D02*
X102539927Y-60260365D01*
X102723800Y-60632605D02*
X102630361Y-60446032D01*
X102819898Y-60819973D02*
X102723800Y-60632605D01*
X102918313Y-61008025D02*
X102819898Y-60819973D01*
X103018700Y-61196650D02*
X102918313Y-61008025D01*
X103120715Y-61385737D02*
X103018700Y-61196650D01*
X103224015Y-61575176D02*
X103120715Y-61385737D01*
X103024267Y-62028817D02*
X103224015Y-61575176D01*
X102841251Y-62464103D02*
X103024267Y-62028817D01*
X102674494Y-62881458D02*
X102841251Y-62464103D01*
X102523526Y-63281304D02*
X102674494Y-62881458D01*
X102387877Y-63664062D02*
X102523526Y-63281304D01*
X102267076Y-64030157D02*
X102387877Y-63664062D01*
X102160652Y-64380011D02*
X102267076Y-64030157D01*
X102068134Y-64714045D02*
X102160652Y-64380011D01*
X101989052Y-65032684D02*
X102068134Y-64714045D01*
X101922934Y-65336350D02*
X101989052Y-65032684D01*
X101869311Y-65625464D02*
X101922934Y-65336350D01*
X101827710Y-65900451D02*
X101869311Y-65625464D01*
X101797662Y-66161732D02*
X101827710Y-65900451D01*
X101778696Y-66409731D02*
X101797662Y-66161732D01*
X101770340Y-66644869D02*
X101778696Y-66409731D01*
X101772125Y-66867570D02*
X101770340Y-66644869D01*
X101783579Y-67078256D02*
X101772125Y-66867570D01*
X101804232Y-67277350D02*
X101783579Y-67078256D01*
X101833612Y-67465274D02*
X101804232Y-67277350D01*
X101871250Y-67642452D02*
X101833612Y-67465274D01*
X101916674Y-67809305D02*
X101871250Y-67642452D01*
X101969413Y-67966257D02*
X101916674Y-67809305D01*
X102028997Y-68113730D02*
X101969413Y-67966257D01*
X102094955Y-68252146D02*
X102028997Y-68113730D01*
X102166817Y-68381929D02*
X102094955Y-68252146D01*
X102244111Y-68503501D02*
X102166817Y-68381929D01*
X102326367Y-68617285D02*
X102244111Y-68503501D01*
X102413113Y-68723703D02*
X102326367Y-68617285D01*
X102503880Y-68823178D02*
X102413113Y-68723703D01*
X102598196Y-68916133D02*
X102503880Y-68823178D01*
X102695591Y-69002990D02*
X102598196Y-68916133D01*
X102795594Y-69084171D02*
X102695591Y-69002990D01*
X102897734Y-69160101D02*
X102795594Y-69084171D01*
X103001541Y-69231200D02*
X102897734Y-69160101D01*
X103106543Y-69297893D02*
X103001541Y-69231200D01*
X103212270Y-69360601D02*
X103106543Y-69297893D01*
X103318250Y-69419747D02*
X103212270Y-69360601D01*
X103424015Y-69475754D02*
X103318250Y-69419747D01*
X103529091Y-69529045D02*
X103424015Y-69475754D01*
X103633010Y-69580041D02*
X103529091Y-69529045D01*
X103735300Y-69629167D02*
X103633010Y-69580041D01*
X103835489Y-69676844D02*
X103735300Y-69629167D01*
X103933109Y-69723495D02*
X103835489Y-69676844D01*
X104027687Y-69769543D02*
X103933109Y-69723495D01*
X103846624Y-69806317D02*
X104027687Y-69769543D01*
X103660760Y-69872907D02*
X103846624Y-69806317D01*
X103471407Y-69966915D02*
X103660760Y-69872907D01*
X103279879Y-70085942D02*
X103471407Y-69966915D01*
X103087486Y-70227592D02*
X103279879Y-70085942D01*
X102895541Y-70389467D02*
X103087486Y-70227592D01*
X102705356Y-70569169D02*
X102895541Y-70389467D01*
X102518243Y-70764301D02*
X102705356Y-70569169D01*
X102335515Y-70972466D02*
X102518243Y-70764301D01*
X102158484Y-71191266D02*
X102335515Y-70972466D01*
X101988461Y-71418302D02*
X102158484Y-71191266D01*
X101826758Y-71651179D02*
X101988461Y-71418302D01*
X101674689Y-71887498D02*
X101826758Y-71651179D01*
X101533565Y-72124862D02*
X101674689Y-71887498D01*
X101404698Y-72360872D02*
X101533565Y-72124862D01*
X101289401Y-72593133D02*
X101404698Y-72360872D01*
X101188985Y-72819246D02*
X101289401Y-72593133D01*
X101104762Y-73036814D02*
X101188985Y-72819246D01*
X101038046Y-73243438D02*
X101104762Y-73036814D01*
X100990147Y-73436723D02*
X101038046Y-73243438D01*
X100962379Y-73614269D02*
X100990147Y-73436723D01*
X100944995Y-73870440D02*
X100962379Y-73614269D01*
X100944305Y-74125620D02*
X100944995Y-73870440D01*
X100958783Y-74379802D02*
X100944305Y-74125620D01*
X100986901Y-74632979D02*
X100958783Y-74379802D01*
X101027132Y-74885145D02*
X100986901Y-74632979D01*
X101077948Y-75136291D02*
X101027132Y-74885145D01*
X101137822Y-75386409D02*
X101077948Y-75136291D01*
X101205226Y-75635494D02*
X101137822Y-75386409D01*
X101278634Y-75883537D02*
X101205226Y-75635494D01*
X101356518Y-76130531D02*
X101278634Y-75883537D01*
X101437351Y-76376469D02*
X101356518Y-76130531D01*
X101519604Y-76621343D02*
X101437351Y-76376469D01*
X101601752Y-76865147D02*
X101519604Y-76621343D01*
X101682266Y-77107872D02*
X101601752Y-76865147D01*
X101733752Y-77248711D02*
X101682266Y-77107872D01*
X101802410Y-77410575D02*
X101733752Y-77248711D01*
X101886682Y-77591322D02*
X101802410Y-77410575D01*
X101985007Y-77788814D02*
X101886682Y-77591322D01*
X102095827Y-78000909D02*
X101985007Y-77788814D01*
X102217581Y-78225469D02*
X102095827Y-78000909D01*
X102348711Y-78460353D02*
X102217581Y-78225469D01*
X102487657Y-78703421D02*
X102348711Y-78460353D01*
X102632859Y-78952534D02*
X102487657Y-78703421D01*
X102782759Y-79205551D02*
X102632859Y-78952534D01*
X102935795Y-79460332D02*
X102782759Y-79205551D01*
X103090410Y-79714737D02*
X102935795Y-79460332D01*
X103245044Y-79966627D02*
X103090410Y-79714737D01*
X103398137Y-80213862D02*
X103245044Y-79966627D01*
X103548130Y-80454300D02*
X103398137Y-80213862D01*
X103548740Y-80896507D02*
X103548130Y-80454300D01*
X103547011Y-81312724D02*
X103548740Y-80896507D01*
X103543539Y-81703721D02*
X103547011Y-81312724D01*
X103538924Y-82070270D02*
X103543539Y-81703721D01*
X103533763Y-82413143D02*
X103538924Y-82070270D01*
X103528654Y-82733112D02*
X103533763Y-82413143D01*
X103524196Y-83030947D02*
X103528654Y-82733112D01*
X103520985Y-83307421D02*
X103524196Y-83030947D01*
X103519621Y-83563305D02*
X103520985Y-83307421D01*
X103520702Y-83799370D02*
X103519621Y-83563305D01*
X103524825Y-84016388D02*
X103520702Y-83799370D01*
X103532589Y-84215130D02*
X103524825Y-84016388D01*
X103544591Y-84396369D02*
X103532589Y-84215130D01*
X103561429Y-84560875D02*
X103544591Y-84396369D01*
X103583703Y-84709420D02*
X103561429Y-84560875D01*
X103612009Y-84842776D02*
X103583703Y-84709420D01*
X103646946Y-84961713D02*
X103612009Y-84842776D01*
X103689111Y-85067005D02*
X103646946Y-84961713D01*
X103739104Y-85159421D02*
X103689111Y-85067005D01*
X103797521Y-85239734D02*
X103739104Y-85159421D01*
X103864961Y-85308715D02*
X103797521Y-85239734D01*
X103942022Y-85367136D02*
X103864961Y-85308715D01*
X104029302Y-85415768D02*
X103942022Y-85367136D01*
X104127400Y-85455383D02*
X104029302Y-85415768D01*
X104236912Y-85486752D02*
X104127400Y-85455383D01*
X104358438Y-85510647D02*
X104236912Y-85486752D01*
X104492574Y-85527840D02*
X104358438Y-85510647D01*
X104639920Y-85539101D02*
X104492574Y-85527840D01*
X104801074Y-85545202D02*
X104639920Y-85539101D01*
X104976632Y-85546915D02*
X104801074Y-85545202D01*
X105167194Y-85545012D02*
X104976632Y-85546915D01*
X105373358Y-85540263D02*
X105167194Y-85545012D01*
X105595720Y-85533441D02*
X105373358Y-85540263D01*
X105834881Y-85525317D02*
X105595720Y-85533441D01*
X106091437Y-85516662D02*
X105834881Y-85525317D01*
X106091437Y-97316529D02*
X106091437Y-85516662D01*
X117957999Y-97316529D02*
X106091437Y-97316529D01*
X118028555Y-85578398D02*
X117957999Y-97316529D01*
X118344354Y-85523569D02*
X118028555Y-85578398D01*
X118627178Y-85467264D02*
X118344354Y-85523569D01*
X118878866Y-85407725D02*
X118627178Y-85467264D01*
X119101260Y-85343197D02*
X118878866Y-85407725D01*
X119296200Y-85271923D02*
X119101260Y-85343197D01*
X119465526Y-85192147D02*
X119296200Y-85271923D01*
X119611078Y-85102111D02*
X119465526Y-85192147D01*
X119734697Y-85000060D02*
X119611078Y-85102111D01*
X119838223Y-84884238D02*
X119734697Y-85000060D01*
X119923495Y-84752887D02*
X119838223Y-84884238D01*
X119992356Y-84604251D02*
X119923495Y-84752887D01*
X120046644Y-84436574D02*
X119992356Y-84604251D01*
X120088201Y-84248099D02*
X120046644Y-84436574D01*
X120118866Y-84037070D02*
X120088201Y-84248099D01*
X120140480Y-83801731D02*
X120118866Y-84037070D01*
X120154883Y-83540324D02*
X120140480Y-83801731D01*
X120163915Y-83251094D02*
X120154883Y-83540324D01*
X120169417Y-82932283D02*
X120163915Y-83251094D01*
X120173229Y-82582136D02*
X120169417Y-82932283D01*
X120177192Y-82198897D02*
X120173229Y-82582136D01*
X120046554Y-79633542D02*
X120177192Y-82198897D01*
X120192531Y-79436761D02*
X120046554Y-79633542D01*
X120347740Y-79226132D02*
X120192531Y-79436761D01*
X120509988Y-79004246D02*
X120347740Y-79226132D01*
X120677080Y-78773693D02*
X120509988Y-79004246D01*
X120846823Y-78537066D02*
X120677080Y-78773693D01*
X121017021Y-78296954D02*
X120846823Y-78537066D01*
X121185482Y-78055950D02*
X121017021Y-78296954D01*
X121350011Y-77816645D02*
X121185482Y-78055950D01*
X121508414Y-77581629D02*
X121350011Y-77816645D01*
X121658496Y-77353494D02*
X121508414Y-77581629D01*
X121798065Y-77134831D02*
X121658496Y-77353494D01*
X121924926Y-76928232D02*
X121798065Y-77134831D01*
X122036884Y-76736287D02*
X121924926Y-76928232D01*
X122131746Y-76561588D02*
X122036884Y-76736287D01*
X122207318Y-76406726D02*
X122131746Y-76561588D01*
X122313736Y-76174194D02*
X122207318Y-76406726D01*
X122421893Y-75940775D02*
X122313736Y-76174194D01*
X122530270Y-75706309D02*
X122421893Y-75940775D01*
X122637348Y-75470636D02*
X122530270Y-75706309D01*
X122741609Y-75233597D02*
X122637348Y-75470636D01*
X122841533Y-74995031D02*
X122741609Y-75233597D01*
X122935603Y-74754778D02*
X122841533Y-74995031D01*
X123022299Y-74512678D02*
X122935603Y-74754778D01*
X123100102Y-74268572D02*
X123022299Y-74512678D01*
X123167495Y-74022299D02*
X123100102Y-74268572D01*
X123222958Y-73773700D02*
X123167495Y-74022299D01*
X123264973Y-73522614D02*
X123222958Y-73773700D01*
X123292021Y-73268881D02*
X123264973Y-73522614D01*
X123302583Y-73012342D02*
X123292021Y-73268881D01*
X123297032Y-72820610D02*
X123302583Y-73012342D01*
X123278338Y-72610648D02*
X123297032Y-72820610D01*
X123246906Y-72385242D02*
X123278338Y-72610648D01*
X123203144Y-72147182D02*
X123246906Y-72385242D01*
X123147459Y-71899254D02*
X123203144Y-72147182D01*
X123080256Y-71644245D02*
X123147459Y-71899254D01*
X123001943Y-71384945D02*
X123080256Y-71644245D01*
X122912926Y-71124139D02*
X123001943Y-71384945D01*
X122813611Y-70864616D02*
X122912926Y-71124139D01*
X122704406Y-70609163D02*
X122813611Y-70864616D01*
X122585716Y-70360567D02*
X122704406Y-70609163D01*
X122457949Y-70121618D02*
X122585716Y-70360567D01*
X122321511Y-69895101D02*
X122457949Y-70121618D01*
X122176809Y-69683804D02*
X122321511Y-69895101D01*
X122024249Y-69490515D02*
X122176809Y-69683804D01*
X121864238Y-69318022D02*
X122024249Y-69490515D01*
X121697182Y-69169113D02*
X121864238Y-69318022D01*
X121523488Y-69046573D02*
X121697182Y-69169113D01*
X121343564Y-68953193D02*
X121523488Y-69046573D01*
X121482714Y-68820728D02*
X121343564Y-68953193D01*
X121616532Y-68688497D02*
X121482714Y-68820728D01*
X121744446Y-68555742D02*
X121616532Y-68688497D01*
X121865888Y-68421701D02*
X121744446Y-68555742D01*
X121980286Y-68285615D02*
X121865888Y-68421701D01*
X122087071Y-68146722D02*
X121980286Y-68285615D01*
X122185671Y-68004263D02*
X122087071Y-68146722D01*
X122275517Y-67857478D02*
X122185671Y-68004263D01*
X122356038Y-67705606D02*
X122275517Y-67857478D01*
X122426664Y-67547887D02*
X122356038Y-67705606D01*
X122486825Y-67383561D02*
X122426664Y-67547887D01*
X122535949Y-67211867D02*
X122486825Y-67383561D01*
X122573468Y-67032045D02*
X122535949Y-67211867D01*
X122598810Y-66843336D02*
X122573468Y-67032045D01*
X122611406Y-66644978D02*
X122598810Y-66843336D01*
X122610684Y-66436212D02*
X122611406Y-66644978D01*
X122596075Y-66216276D02*
X122610684Y-66436212D01*
X122567008Y-65984412D02*
X122596075Y-66216276D01*
X122522913Y-65739859D02*
X122567008Y-65984412D01*
X122463220Y-65481856D02*
X122522913Y-65739859D01*
X122387358Y-65209643D02*
X122463220Y-65481856D01*
X122294756Y-64922461D02*
X122387358Y-65209643D01*
X122184846Y-64619548D02*
X122294756Y-64922461D01*
X122057055Y-64300144D02*
X122184846Y-64619548D01*
X121910815Y-63963490D02*
X122057055Y-64300144D01*
X121745554Y-63608824D02*
X121910815Y-63963490D01*
X121560703Y-63235388D02*
X121745554Y-63608824D01*
X121355690Y-62842420D02*
X121560703Y-63235388D01*
X121410731Y-62646532D02*
X121355690Y-62842420D01*
X121464029Y-62445681D02*
X121410731Y-62646532D01*
X121515423Y-62240201D02*
X121464029Y-62445681D01*
X121564754Y-62030426D02*
X121515423Y-62240201D01*
X121611860Y-61816689D02*
X121564754Y-62030426D01*
X121656581Y-61599324D02*
X121611860Y-61816689D01*
X121698758Y-61378664D02*
X121656581Y-61599324D01*
X121738229Y-61155044D02*
X121698758Y-61378664D01*
X121774835Y-60928797D02*
X121738229Y-61155044D01*
X121808414Y-60700256D02*
X121774835Y-60928797D01*
X121838807Y-60469755D02*
X121808414Y-60700256D01*
X121865852Y-60237628D02*
X121838807Y-60469755D01*
X121889390Y-60004209D02*
X121865852Y-60237628D01*
X121909261Y-59769830D02*
X121889390Y-60004209D01*
X121925303Y-59534827D02*
X121909261Y-59769830D01*
X121937356Y-59299532D02*
X121925303Y-59534827D01*
X121945261Y-59064280D02*
X121937356Y-59299532D01*
X121948856Y-58829403D02*
X121945261Y-59064280D01*
X121947981Y-58595236D02*
X121948856Y-58829403D01*
X121942476Y-58362113D02*
X121947981Y-58595236D01*
X121932181Y-58130366D02*
X121942476Y-58362113D01*
X121916934Y-57900329D02*
X121932181Y-58130366D01*
X121896576Y-57672337D02*
X121916934Y-57900329D01*
X121870946Y-57446723D02*
X121896576Y-57672337D01*
X121839884Y-57223820D02*
X121870946Y-57446723D01*
X121803229Y-57003963D02*
X121839884Y-57223820D01*
X121760822Y-56787484D02*
X121803229Y-57003963D01*
X121712500Y-56574719D02*
X121760822Y-56787484D01*
X121658106Y-56365999D02*
X121712500Y-56574719D01*
X121597476Y-56161659D02*
X121658106Y-56365999D01*
X121530453Y-55962033D02*
X121597476Y-56161659D01*
X121456874Y-55767454D02*
X121530453Y-55962033D01*
X121376580Y-55578256D02*
X121456874Y-55767454D01*
X121289410Y-55394772D02*
X121376580Y-55578256D01*
X121195203Y-55217337D02*
X121289410Y-55394772D01*
X121093801Y-55046284D02*
X121195203Y-55217337D01*
X120985041Y-54881946D02*
X121093801Y-55046284D01*
X120868763Y-54724658D02*
X120985041Y-54881946D01*
X120744808Y-54574752D02*
X120868763Y-54724658D01*
X120613015Y-54432563D02*
X120744808Y-54574752D01*
X120473223Y-54298424D02*
X120613015Y-54432563D01*
X120325272Y-54172670D02*
X120473223Y-54298424D01*
X120169002Y-54055632D02*
X120325272Y-54172670D01*
X120004251Y-53947646D02*
X120169002Y-54055632D01*
X119830861Y-53849045D02*
X120004251Y-53947646D01*
X119648670Y-53760163D02*
X119830861Y-53849045D01*
X119457518Y-53681333D02*
X119648670Y-53760163D01*
X119257244Y-53612889D02*
X119457518Y-53681333D01*
X119047689Y-53555164D02*
X119257244Y-53612889D01*
X118828692Y-53508493D02*
X119047689Y-53555164D01*
X118600092Y-53473208D02*
X118828692Y-53508493D01*
X118361728Y-53449645D02*
X118600092Y-53473208D01*
X118113442Y-53438135D02*
X118361728Y-53449645D01*
X117939206Y-53182782D02*
X118113442Y-53438135D01*
X117761181Y-52938195D02*
X117939206Y-53182782D01*
X117579541Y-52704267D02*
X117761181Y-52938195D01*
X117394456Y-52480889D02*
X117579541Y-52704267D01*
X117206100Y-52267954D02*
X117394456Y-52480889D01*
X117014643Y-52065355D02*
X117206100Y-52267954D01*
X116820258Y-51872983D02*
X117014643Y-52065355D01*
X116623117Y-51690731D02*
X116820258Y-51872983D01*
X116423392Y-51518491D02*
X116623117Y-51690731D01*
X116221255Y-51356155D02*
X116423392Y-51518491D01*
X116016878Y-51203616D02*
X116221255Y-51356155D01*
X115810432Y-51060765D02*
X116016878Y-51203616D01*
X115602091Y-50927495D02*
X115810432Y-51060765D01*
X115392026Y-50803698D02*
X115602091Y-50927495D01*
X115180408Y-50689267D02*
X115392026Y-50803698D01*
X114967411Y-50584093D02*
X115180408Y-50689267D01*
X114753205Y-50488070D02*
X114967411Y-50584093D01*
X114537964Y-50401088D02*
X114753205Y-50488070D01*
X114321858Y-50323041D02*
X114537964Y-50401088D01*
X114105060Y-50253821D02*
X114321858Y-50323041D01*
X113887743Y-50193319D02*
X114105060Y-50253821D01*
X113670077Y-50141429D02*
X113887743Y-50193319D01*
X113452235Y-50098041D02*
X113670077Y-50141429D01*
X113234389Y-50063050D02*
X113452235Y-50098041D01*
X113016712Y-50036346D02*
X113234389Y-50063050D01*
X112799374Y-50017822D02*
X113016712Y-50036346D01*
X112582548Y-50007371D02*
X112799374Y-50017822D01*
G04 #@! TD*
M02*
